<svg width="837" height="837" xmlns="http://www.w3.org/2000/svg" xmlns:xlink="http://www.w3.org/1999/xlink" xml:space="preserve" overflow="hidden"><defs><clipPath id="clip0"><rect x="3365" y="128" width="837" height="837"/></clipPath><clipPath id="clip1"><rect x="3393" y="348" width="781" height="472"/></clipPath><clipPath id="clip2"><rect x="3393" y="348" width="781" height="472"/></clipPath><clipPath id="clip3"><rect x="3393" y="273" width="781" height="780"/></clipPath></defs><g clip-path="url(#clip0)" transform="translate(-3365 -128)"><path d="M3365 546.5C3365 315.369 3552.37 128 3783.5 128 4014.63 128 4202 315.369 4202 546.5 4202 777.631 4014.63 965 3783.5 965 3552.37 965 3365 777.631 3365 546.5Z" fill="#DEDEDE" fill-rule="evenodd"/><g clip-path="url(#clip1)"><g clip-path="url(#clip2)"><g clip-path="url(#clip3)"><path d="M662.527 101.187C643.41 88.9207 624.593 94.4239 603.652 102.13 581.438 110.061 550.39 126.177 520.152 149.872 487.788 175.348 464.201 205.447 445.332 231.296 428.121 255.708 407.936 289.749 402.593 319.048 398.601 297.503 391.225 287.334 390.761 286.31L387.985 286.31C387.555 287.252 381.313 295.861 376.977 314.735 367.712 357.772 386.791 377.237 385.092 398.116 382.013 401.508 377.647 406.56 372.413 413.302 348.391 444.333 330.152 480.425 297.027 500.593 266.791 519.163 230.207 515.658 202.717 495.554 159.005 464.188 153.837 395.258 185.546 352.607 205.041 325.85 235.734 320.758 268.955 322.209 325.441 324.668 360.07 337.096 364.243 338.008 362.745 337.474 324.354 317.401 269.684 311.858 230.986 308.227 197.022 311.767 172.815 342.868 134.595 392.521 138.448 472.616 192.762 509.645 225.853 532.697 270.415 536.533 304.495 511.939 342.677 484.873 361.346 437.132 375.407 415.317 379.121 408.914 382.327 403.932 384.816 400.248 384.295 403.775 383.296 407.259 381.997 410.664 377.206 423.288 375.959 425.646 377.579 439.802 378.691 448.329 381.202 455.435 383.5 460.408 385.741 465.382 387.996 468.227 387.996 468.227L390.772 468.227C390.772 468.227 393.021 465.387 395.268 460.408 397.569 455.434 400.08 448.329 401.188 439.802 404.059 414.73 394.307 414.365 393.634 396.794 418.289 432.483 434.026 481.944 474.762 511.152 508.108 535.499 552.301 532.458 585.792 509.393 639.993 472.861 644.737 392.789 606.46 342.493 593.69 325.909 577.848 316.587 558.218 312.244 521.8 304.603 475.04 314.294 439.012 326.274 422.758 332.134 413.901 336.391 413.901 336.391 413.901 336.391 423.275 333.337 439.994 329.719 468.763 322.864 523.385 316.409 554.952 325.357 570.194 329.605 583.83 338.489 593.694 352.207 625.32 395.274 619.657 464.229 575.859 495.276 548.667 514.923 512.358 518.532 482.239 499.824 443.688 476.064 425.827 430.62 393.601 395.552 393.614 390.535 394.022 385.783 396.976 377.265 404.416 354.691 405.341 336.652 403.201 322.639 414.129 293.896 439.992 265.405 459.673 242.518 480.054 219.023 506.659 194.589 537.23 172.132 566.402 150.883 596.44 136.895 614.218 131.562 629.799 126.007 643.282 121.723 653.186 134.772 657.338 140.054 659.979 147.699 660.731 155.621 664.423 190.44 637.049 221.799 629.312 262.617 625.99 280.634 626.598 293.782 615.725 302.431 611.195 306.015 605.63 308.374 599.779 310.073 604.97 313.752 609.874 317.999 614.404 322.904 618.365 321.583 622.422 319.79 626.292 317.244 645.139 305.491 647.568 283.602 652.429 268.086 660.973 240.278 728.644 142.987 662.523 101.176Z" fill="#F06292" transform="matrix(1.00078 0 0 1 3394 273.854)"/><path d="M567.496 431.61C608.348 421.111 579.896 321.313 493.726 343.106 472.402 348.097 459.697 362.097 448.251 365.341 437.092 369.29 430.832 365.984 429.885 365.875 430.828 366.054 436.961 369.855 448.645 366.631 460.816 363.648 474.304 350.907 494.624 346.907 514.323 342.324 540.494 345.07 559.888 361.294 585.525 382.769 583.023 420.664 565.744 424.894 558.959 426.719 555.57 421.911 548.695 418.926 538.838 415.121 532.341 419.986 531.494 425.92 529.573 437.539 542.204 442.292 545.48 448.542 552.504 461.412 536.619 480.924 514.383 471.212 482.213 457.946 486.292 414.779 441.518 403.137 483.773 417.324 478.717 460.357 512.389 475.868 540.502 488.483 560.027 463.202 550.984 445.61 546.944 438.377 539.681 435.463 538.321 430.472 537.417 427.905 537.839 425.768 539.263 424.873 545.44 420.204 554.501 435.411 567.493 431.61Z" fill="#F06292" transform="matrix(1.00078 0 0 1 3394 273.854)"/><path d="M416.653 397.705C466.142 361.665 465.642 416.479 494.858 419.093 512.394 421.135 513.962 397.991 523.583 393.174 526.575 391.389 528.89 392.036 528.839 391.923 528.86 392.087 526.919 390.628 522.931 391.492 519.091 392.401 513.962 396.097 510.282 401.648 486.071 437.241 477.786 363.493 432.985 382.336 421.496 387.158 417.408 396.726 416.652 397.704Z" fill="#F06292" transform="matrix(1.00078 0 0 1 3394 273.854)"/><path d="M597.775 205.897C607.344 186.572 598.9 172.424 598.753 171.477 598.73 172.42 603.904 185.633 593.17 203.461 565.87 251.281 461.877 227.364 453.904 294.388 453.375 300.57 454.131 303.984 454.131 303.984 454.131 303.984 454.052 300.435 455.668 294.719 457.101 288.981 461.045 281.388 467.795 274.212 498.701 239.996 574.855 254.939 597.776 205.898Z" fill="#F06292" transform="matrix(1.00078 0 0 1 3394 273.854)"/><path d="M600.677 266.712C600.677 256.487 592.39 248.199 582.165 248.199 571.94 248.199 563.652 256.487 563.652 266.712 563.652 291.189 600.679 291.224 600.679 266.712Z" fill="#F06292" transform="matrix(1.00078 0 0 1 3394 273.854)"/><path d="M501.176 280.601C501.176 298.958 528.946 298.983 528.946 280.601 528.946 272.93 522.73 266.714 515.059 266.714 507.392 266.719 501.177 272.935 501.177 280.601Z" fill="#F06292" transform="matrix(1.00078 0 0 1 3394 273.854)"/><path d="M625.586 171.636C640.885 171.636 640.906 148.494 625.586 148.494 610.287 148.494 610.266 171.636 625.586 171.636Z" fill="#F06292" transform="matrix(1.00078 0 0 1 3394 273.854)"/><path d="M163.319 324.892C167.753 320.079 172.47 315.74 177.471 311.965 149.093 303.451 151.77 285.238 147.846 262.998 140.418 221.246 99.2578 166.993 125.294 134.585 135.58 122.061 148.085 125.663 164.357 131.848 172.35 134.407 182.835 138.868 191.623 142.981 209.267 151.474 225.778 161.76 240.873 173.079 301.259 218.18 351.373 281.698 362.769 303.093 368.959 313.409 371.018 319.778 372.017 321.776 372.017 321.871 372.112 321.871 372.112 321.963 373.812 326.397 374.567 328.851 374.567 328.851 374.372 327.67 373.881 317.059 368.434 300.548 352.697 256.624 306.518 189.64 257.947 150.807 230.113 128.405 198.025 110.623 175.012 102.405 146.131 91.4025 120.964 87.6968 100.287 115.897 91.8907 127.408 88.3032 140.522 87.3602 153.166 85.7574 178.36 94.3449 200.435 102.741 218.835 111.233 237.235 120.194 252.99 124.726 268.462 131.307 290.055 132.844 314.254 163.315 324.887Z" fill="#F06292" transform="matrix(1.00078 0 0 1 3394 273.854)"/><path d="M229.127 467.638C232.936 474.098 240.069 478.232 246.914 479.102 286.693 485.049 297.441 428.866 320.345 411.566 329.223 404.573 336.352 404.095 337.294 403.782 336.351 404.026 329.102 403.999 319.554 410.48 305.554 420.054 297.813 436.033 288.284 450.012 278.524 464.181 264.715 476.557 247.839 473.533 234.048 471.213 228.488 456.866 233.092 448.47 235.32 443.566 242.904 441.068 246.375 432.642 250.062 422.53 242.088 414.389 230.082 418.981 226.238 420.637 223.514 422.838 220.787 424.098 200.436 434.054 187.21 387.954 218.987 361.487 238.347 345.381 264.415 342.727 283.996 347.339 309.854 352.491 324.445 372.159 344.248 368.025 347.528 367.36 349.101 366.47 349.101 366.47 348.158 366.578 341.677 369.957 330.314 365.905 314.898 361.444 294.092 335.182 250.619 341.603 238.465 343.392 225.734 348.113 215.135 356.854 204.528 365.515 196.527 378.29 194.103 392.698 191.474 408.482 195.714 427.552 211.222 431.595 224.314 435.483 233.171 420.154 239.405 424.94 240.781 425.814 241.194 427.872 240.294 430.418 238.379 437.541 215.709 445.963 229.127 467.639Z" fill="#F06292" transform="matrix(1.00078 0 0 1 3394 273.854)"/><path d="M361.387 398.194C360.679 397.251 357.06 387.891 345.576 382.9 315.174 369.665 297.083 402.169 291.979 406.482 289.233 408.793 285.993 410.417 283.057 410.791 271.859 412.889 268.624 393.976 256.114 390.766 251.882 389.75 249.663 391.257 249.702 391.092 249.628 391.209 252.225 390.51 255.453 392.443 265.187 397.386 266.525 420.59 283.857 418.78 303.898 417.224 306.722 394.794 324.344 388.895 331.073 386.484 338.105 386.106 343.848 387.792 355.802 391.197 360.441 397.495 361.387 398.194Z" fill="#F06292" transform="matrix(1.00078 0 0 1 3394 273.854)"/><path d="M323.746 303.93C323.746 303.93 324.519 300.603 324.059 294.535 319.937 256.958 277.876 245.525 246.984 237.329 163.393 217.942 181.476 172.751 180.79 171.794 180.79 171.794 180.448 172.567 179.796 174.018 175.578 183.757 176.864 196.085 181.485 205.619 192.753 230.231 218.607 239.378 244.769 246.307 258.117 249.404 271.275 252.209 282.707 256.823 325.362 273.468 323.082 302.975 323.746 303.93Z" fill="#F06292" transform="matrix(1.00078 0 0 1 3394 273.854)"/><path d="M187.927 248.197C163.454 248.197 163.415 285.223 187.927 285.223 198.152 285.223 206.44 276.936 206.44 266.711 206.444 256.486 198.152 248.198 187.927 248.198Z" fill="#F06292" transform="matrix(1.00078 0 0 1 3394 273.854)"/><path d="M273.64 277.932C273.64 285.603 267.424 291.819 259.758 291.819 252.087 291.819 245.871 285.603 245.871 277.932 245.871 270.266 252.087 264.05 259.758 264.05 267.424 264.05 273.64 270.266 273.64 277.932" fill="#F06292" transform="matrix(1.00078 0 0 1 3394 273.854)"/><path d="M141.59 160.072C141.59 166.461 146.772 171.643 153.162 171.643 159.551 171.643 164.733 166.461 164.733 160.072 164.729 144.773 141.59 144.752 141.59 160.072Z" fill="#F06292" transform="matrix(1.00078 0 0 1 3394 273.854)"/><path d="M418.666 206.453C411.443 217.829 404.527 229.175 400.045 239.509 390.428 261.076 395.262 275.337 395.258 276.279 395.458 275.145 393.151 263.295 404.805 241.807 409.827 232.181 417.754 222.429 425.559 210.832 433.135 199.277 441.157 185.787 443.26 169.775 446.662 130.855 412.22 119.34 399.897 137.088 395.236 143.195 395.371 152.751 400.757 157.638 405.63 162.394 412.946 163.206 417.685 160.035 424.739 155.227 423.006 144.493 417.025 141.444 415.309 140.627 414.284 140.701 414.306 140.636 415.248 141.409 419.483 141.817 420.069 148.22 420.513 151.165 419.427 155.43 415.904 156.977 408.15 160.773 397.173 150.501 405.418 141.266 413.845 130.906 437.418 138.976 433.89 168.783 432.588 182.17 425.76 195.028 418.666 206.452Z" fill="#F06292" transform="matrix(1.00078 0 0 1 3394 273.854)"/><path d="M352.914 211.001C360.646 222.677 368.473 232.459 373.399 242.068 378.424 251.499 381.435 259.99 382.095 266.245 383.024 272.461 382.625 276.153 382.625 276.153 382.625 276.153 383.694 272.643 383.92 266.128 384.029 259.664 382.686 250.118 378.168 239.775 373.786 229.453 366.971 218.078 359.82 206.628 324.002 147.965 361.58 127.359 372.96 141.541 376.222 145.272 376.574 150.559 373.737 153.53 368.22 159.84 358.108 157.265 359.477 148.373 360.021 142.597 363.66 142.279 364.608 141.497 364.629 141.563 363.721 141.476 362.183 142.171 356.697 144.86 354.903 154.872 361.427 159.407 365.797 162.43 372.834 161.761 377.556 157.217 388.484 147.465 376.986 124.744 357.053 130.138 349.052 132.123 342.362 138.63 339.104 146.066 335.638 153.554 334.852 161.816 335.494 169.757 337.47 185.794 345.416 199.382 352.913 211.001Z" fill="#F06292" transform="matrix(1.00078 0 0 1 3394 273.854)"/><path d="M31.6051-1.89384C29.9718-1.04681 28.2691-0.408325 26.4968 0.0174583 24.7333 0.443141 22.9002 0.660325 20.989 0.660325 15.2553 0.660325 10.7117-0.938168 7.36708-4.13515 4.01808-7.33214 2.34575-11.6758 2.34575-17.1666 2.34575-22.6575 4.01808-27.0009 7.36708-30.1981 10.7117-33.4038 15.2553-35.0109 20.989-35.0109 22.9003-35.0109 24.7333-34.7938 26.4968-34.3681 28.2691-33.938 29.9718-33.2995 31.6051-32.4568L31.6051-25.3331C29.9588-26.4538 28.3386-27.2791 26.7401-27.8004 25.1417-28.3217 23.4606-28.5823 21.7015-28.5823 18.5392-28.5823 16.046-27.5658 14.2302-25.5416 12.4232-23.5131 11.5197-20.7201 11.5197-17.167 11.5197-13.6095 12.4232-10.8165 14.2302-8.7923 16.0459-6.7638 18.5392-5.75166 21.7015-5.75166 23.4606-5.75166 25.1418-6.01229 26.7401-6.53353 28.3386-7.06346 29.9588-7.88883 31.6051-9.00082Z" fill="#F06292" transform="matrix(1.00078 0 0 1 3471.9 1038.1)"/><path d="M23.1262-18.7649C22.4051-19.1124 21.6884-19.3601 20.9717-19.5121 20.2507-19.6727 19.5339-19.7553 18.8172-19.7553 16.6975-19.7553 15.0642-19.0776 13.9175-17.7224 12.7795-16.3671 12.2148-14.4211 12.2148-11.8844L12.2148 0.000522638 3.9617 0.000522638 3.9617-25.8011 12.2148-25.8011 12.2148-21.5616C13.266-23.2513 14.478-24.4849 15.8462-25.2624 17.2231-26.0356 18.8738-26.4266 20.798-26.4266 21.076-26.4266 21.3757-26.4135 21.7015-26.3919 22.0229-26.3657 22.492-26.3137 23.1088-26.2355Z" fill="#F06292" transform="matrix(1.00078 0 0 1 3506.55 1038.1)"/><path d="M29.7114-12.9614 29.7114-10.6158 10.4427-10.6158C10.6382-8.67845 11.3332-7.22763 12.5277-6.25464 13.7309-5.29033 15.4032-4.81249 17.5491-4.81249 19.2866-4.81249 21.0632-5.06443 22.8832-5.57699 24.6989-6.09824 26.571-6.88014 28.4953-7.92263L28.4953-1.56335C26.5493-0.833607 24.5947-0.282002 22.64 0.0872916 20.694 0.46954 18.7393 0.660658 16.7847 0.660658 12.1152 0.660658 8.48819-0.520836 5.90803-2.88383 3.32353-5.25549 2.03339-8.58714 2.03339-12.8745 2.03339-17.0791 3.30174-20.3848 5.83853-22.7956 8.37521-25.215 11.872-26.4269 16.333-26.4269 20.3856-26.4269 23.6304-25.2019 26.0629-22.7608 28.4954-20.3153 29.7116-17.0488 29.7116-12.9613ZM21.2324-15.7067C21.2324-17.2704 20.772-18.5302 19.8598-19.4944 18.9563-20.4544 17.7618-20.9365 16.2805-20.9365 14.682-20.9365 13.3832-20.4847 12.3885-19.5812 11.3895-18.6864 10.7727-17.3964 10.5294-15.7066Z" fill="#F06292" transform="matrix(1.00078 0 0 1 3529.83 1038.1)"/><path d="M15.5335-11.607C13.8046-11.607 12.5102-11.3117 11.6415-10.7209 10.7727-10.1388 10.3383-9.28307 10.3383-8.14939 10.3383-7.10689 10.6858-6.29024 11.3808-5.69955 12.0845-5.10881 13.0575-4.81343 14.2998-4.81343 15.8505-4.81343 17.1536-5.36942 18.2091-6.48142 19.2733-7.59341 19.8076-8.98774 19.8076-10.6687L19.8076-11.607ZM28.1301-14.7171 28.1301-0.0010008 19.8075-0.0010008 19.8075-3.82348C18.7042-2.2598 17.4619-1.11733 16.0719-0.400652 14.6906 0.30303 13.0139 0.659213 11.0332 0.659213 8.35753 0.659213 6.18558-0.113968 4.51759-1.66908 2.85827-3.23277 2.03295-5.25271 2.03295-7.7329 2.03295-10.7649 3.06676-12.9889 5.14309-14.4049 7.22808-15.8166 10.4946-16.5246 14.9425-16.5246L19.8075-16.5246 19.8075-17.1674C19.8075-18.4619 19.2907-19.4131 18.2612-20.0169 17.2274-20.6294 15.6245-20.9378 13.4484-20.9378 11.6848-20.9378 10.0429-20.7554 8.51388-20.3991 6.99356-20.0516 5.58622-19.5217 4.29174-18.818L4.29174-25.1076C6.05092-25.5334 7.82322-25.8591 9.60842-26.0806 11.3894-26.3109 13.1702-26.4281 14.9425-26.4281 19.599-26.4281 22.9567-25.5073 25.02-23.6655 27.092-21.8325 28.1301-18.8527 28.1301-14.7174Z" fill="#F06292" transform="matrix(1.00078 0 0 1 3561.85 1038.1)"/><path d="M12.9614-33.1163 12.9614-25.8015 21.4751-25.8015 21.4751-19.894 12.9614-19.894 12.9614-8.96524C12.9614-7.75772 13.1959-6.94107 13.6738-6.5154 14.1603-6.0984 15.1072-5.8899 16.5232-5.8899L20.7454-5.8899 20.7454 0.000222399 13.6738 0.000222399C10.416 0.000222399 8.1138-0.677405 6.75851-2.03262 5.40321-3.39659 4.72567-5.70743 4.72567-8.96524L4.72567-19.894 0.625186-19.894 0.625186-25.8015 4.72567-25.8015 4.72567-33.1163Z" fill="#F06292" transform="matrix(1.00078 0 0 1 3593.71 1038.1)"/><path d="M29.7114-12.9614 29.7114-10.6158 10.4427-10.6158C10.6382-8.67845 11.3332-7.22763 12.5277-6.25464 13.7309-5.29033 15.4032-4.81249 17.5491-4.81249 19.2866-4.81249 21.0632-5.06443 22.8832-5.57699 24.6989-6.09824 26.571-6.88014 28.4953-7.92263L28.4953-1.56335C26.5493-0.833607 24.5947-0.282002 22.64 0.0872916 20.694 0.46954 18.7393 0.660658 16.7847 0.660658 12.1152 0.660658 8.48819-0.520836 5.90803-2.88383 3.32353-5.25549 2.03339-8.58714 2.03339-12.8745 2.03339-17.0791 3.30174-20.3848 5.83853-22.7956 8.37521-25.215 11.872-26.4269 16.333-26.4269 20.3856-26.4269 23.6304-25.2019 26.0629-22.7608 28.4954-20.3153 29.7116-17.0488 29.7116-12.9613ZM21.2324-15.7067C21.2324-17.2704 20.772-18.5302 19.8598-19.4944 18.9563-20.4544 17.7618-20.9365 16.2805-20.9365 14.682-20.9365 13.3832-20.4847 12.3885-19.5812 11.3895-18.6864 10.7727-17.3964 10.5294-15.7066Z" fill="#F06292" transform="matrix(1.00078 0 0 1 3616.28 1038.1)"/><path d="M21.5104-22.0142 21.5104-35.8452 29.7982-35.8452 29.7982-0.001112 21.5104-0.001112 21.5104-3.73675C20.3724-2.21643 19.1214-1.10443 17.7574-0.400763 16.3891 0.302919 14.8081 0.659102 13.0141 0.659102 9.83882 0.659102 7.2283-0.600566 5.178-3.12858 3.13649-5.65225 2.12002-8.90139 2.12002-12.8759 2.12002-16.8461 3.13645-20.0952 5.178-22.6232 7.2283-25.1599 9.83882-26.4283 13.0141-26.4283 14.7951-26.4283 16.3718-26.0678 17.7401-25.351 19.1171-24.63 20.3724-23.518 21.5104-22.0151ZM16.0721-5.31645C17.8444-5.31645 19.1909-5.95931 20.1204-7.24509 21.0456-8.53957 21.5104-10.4161 21.5104-12.8746 21.5104-15.3287 21.0456-17.2009 20.1204-18.4867 19.1909-19.7812 17.8443-20.4327 16.0721-20.4327 14.3216-20.4327 12.9838-19.7812 12.0585-18.4867 11.129-17.201 10.6685-15.3289 10.6685-12.8746 10.6685-10.4161 11.129-8.53957 12.0585-7.24509 12.9837-5.9594 14.3216-5.31645 16.0721-5.31645Z" fill="#F06292" transform="matrix(1.00078 0 0 1 3648.3 1038.1)"/><path d="M17.6874-5.31667C19.4597-5.31667 20.8062-5.95954 21.7357-7.24531 22.6609-8.53979 23.1257-10.4163 23.1257-12.8748 23.1257-15.329 22.6609-17.2011 21.7357-18.4869 20.8062-19.7814 19.4596-20.4329 17.6874-20.4329 15.9239-20.4329 14.5686-19.7814 13.6217-18.4869 12.6834-17.1881 12.2144-15.316 12.2144-12.8748 12.2144-10.4293 12.6835-8.55713 13.6217-7.26266 14.5687-5.96385 15.9239-5.31667 17.6874-5.31667ZM12.2143-22.0144C13.3479-23.5174 14.6033-24.6294 15.9846-25.3504 17.3616-26.0671 18.9471-26.4276 20.7453-26.4276 23.9292-26.4276 26.5398-25.1593 28.5814-22.6224 30.6186-20.0945 31.6394-16.8454 31.6394-12.8752 31.6394-8.90069 30.6186-5.65155 28.5814-3.12788 26.5399-0.599866 23.9292 0.659802 20.7453 0.659802 18.9469 0.659802 17.3615 0.303619 15.9846-0.400062 14.6033-1.11678 13.3479-2.22874 12.2143-3.73605L12.2143-0.000411438 3.96115-0.000411438 3.96115-35.8445 12.2143-35.8445Z" fill="#F06292" transform="matrix(1.00078 0 0 1 3698.53 1038.1)"/><path d="M0.573367-25.8016 8.82648-25.8016 15.7591-8.2877 21.6492-25.8016 29.9023-25.8016 19.043 2.44972C17.9527 5.30789 16.6844 7.3147 15.2379 8.46139 13.7871 9.60808 11.8715 10.1815 9.48678 10.1815L4.72611 10.1815 4.72611 4.76056 7.2976 4.76056C8.69627 4.76056 9.71708 4.53903 10.3556 4.10031 10.9898 3.65725 11.4849 2.85799 11.8324 1.70263L12.0757 0.990265Z" fill="#F06292" transform="matrix(1.00078 0 0 1 3732.33 1038.1)"/><path d="M4.32633-34.3851 19.0425-34.3851C23.4209-34.3851 26.7786-33.4121 29.1199-31.4661 31.4569-29.5288 32.6296-26.7662 32.6296-23.1783 32.6296-19.5643 31.4568-16.7843 29.1199-14.8383 26.7786-12.901 23.4209-11.9367 19.0425-11.9367L13.2045-11.9367 13.2045-0.000555998 4.32588-0.000555998ZM13.2049-27.9564 13.2049-18.3655 18.1046-18.3655C19.8161-18.3655 21.1453-18.7825 22.0834-19.6165 23.0216-20.4505 23.4908-21.6363 23.4908-23.1783 23.4908-24.7073 23.0216-25.8801 22.0834-26.7055 21.1453-27.5394 19.816-27.9564 18.1046-27.9564Z" fill="#F06292" transform="matrix(1.00078 0 0 1 3779.54 1038.1)"/><path d="M23.1262-18.7649C22.4051-19.1124 21.6884-19.3601 20.9717-19.5121 20.2507-19.6727 19.5339-19.7553 18.8172-19.7553 16.6975-19.7553 15.0642-19.0776 13.9175-17.7224 12.7795-16.3671 12.2148-14.4211 12.2148-11.8844L12.2148 0.000522638 3.9617 0.000522638 3.9617-25.8011 12.2148-25.8011 12.2148-21.5616C13.266-23.2513 14.478-24.4849 15.8462-25.2624 17.2231-26.0356 18.8738-26.4266 20.798-26.4266 21.076-26.4266 21.3757-26.4135 21.7015-26.3919 22.0229-26.3657 22.492-26.3137 23.1088-26.2355Z" fill="#F06292" transform="matrix(1.00078 0 0 1 3814.14 1038.1)"/><path d="M16.2451-20.5196C14.4121-20.5196 13.0178-19.8593 12.0578-18.539 11.0935-17.2271 10.6157-15.342 10.6157-12.8747 10.6157-10.4074 11.0935-8.51354 12.0578-7.19305 13.0178-5.88123 14.4121-5.22971 16.2451-5.22971 18.0391-5.22971 19.4118-5.88127 20.363-7.19305 21.3099-8.51354 21.7877-10.4074 21.7877-12.8747 21.7877-15.342 21.3098-17.2271 20.363-18.539 19.4117-19.8595 18.0391-20.5196 16.2451-20.5196ZM16.2451-26.4271C20.6801-26.4271 24.1421-25.2283 26.6354-22.8305 29.1374-20.4328 30.3884-17.1142 30.3884-12.8747 30.3884-8.6352 29.1374-5.31656 26.6354-2.91888 24.1421-0.529866 20.6801 0.660414 16.2451 0.660414 11.7841 0.660414 8.29615-0.529754 5.78549-2.91888 3.2835-5.31656 2.0325-8.6352 2.0325-12.8747 2.0325-17.1142 3.2835-20.4328 5.78549-22.8305 8.29615-25.2282 11.7841-26.4271 16.2451-26.4271Z" fill="#F06292" transform="matrix(1.00078 0 0 1 3837.43 1038.1)"/><path d="M28.2691-33.3076 28.2691-26.0275C26.3796-26.8701 24.5335-27.5086 22.7265-27.9388 20.9282-28.3644 19.2342-28.5816 17.6357-28.5816 15.5247-28.5816 13.9609-28.2863 12.9444-27.6955 11.9367-27.1134 11.4328-26.2099 11.4328-24.985 11.4328-24.0685 11.7716-23.3517 12.4579-22.8305 13.1399-22.318 14.3779-21.8793 16.1762-21.51L19.9465-20.7455C23.769-19.981 26.4838-18.8168 28.0953-17.2532 29.7155-15.6895 30.5278-13.4567 30.5278-10.5639 30.5278-6.77621 29.3985-3.95274 27.1397-2.10227 24.8897-0.260585 21.4581 0.660369 16.8364 0.660369 14.6559 0.660369 12.4666 0.45187 10.2687 0.0348722 8.0794-0.369093 5.88154-0.977221 3.68357-1.78947L3.68357-9.27809C5.88154-8.10526 8.0099-7.22779 10.0602-6.6371 12.1105-6.04641 14.0825-5.75097 15.985-5.75097 17.918-5.75097 19.3992-6.0724 20.433-6.72397 21.4625-7.37118 21.9794-8.2921 21.9794-9.48661 21.9794-10.5639 21.6232-11.3892 20.9195-11.9713 20.2245-12.562 18.8345-13.0876 16.7495-13.5524L13.3092-14.2995C9.86891-15.038 7.35391-16.2151 5.76854-17.8266 4.17872-19.4338 3.3882-21.6056 3.3882-24.3422 3.3882-27.7694 4.49151-30.4061 6.70684-32.2479 8.91782-34.0895 12.0975-35.0105 16.2457-35.0105 18.1309-35.0105 20.0725-34.8628 22.0663-34.5761 24.0558-34.2981 26.1233-33.8725 28.2691-33.3078Z" fill="#F06292" transform="matrix(1.00078 0 0 1 3869.86 1038.1)"/><path d="M0.573367-25.8016 8.82648-25.8016 15.7591-8.2877 21.6492-25.8016 29.9023-25.8016 19.043 2.44972C17.9527 5.30789 16.6844 7.3147 15.2379 8.46139 13.7871 9.60808 11.8715 10.1815 9.48678 10.1815L4.72611 10.1815 4.72611 4.76056 7.2976 4.76056C8.69627 4.76056 9.71708 4.53903 10.3556 4.10031 10.9898 3.65725 11.4849 2.85799 11.8324 1.70263L12.0757 0.990265Z" fill="#F06292" transform="matrix(1.00078 0 0 1 3903.86 1038.1)"/><path d="M27.8688-21.5104C28.9113-23.1089 30.1493-24.3251 31.5871-25.1591 33.0206-26.0018 34.6016-26.4275 36.3304-26.4275 39.2841-26.4275 41.5342-25.5109 43.0892-23.6822 44.6399-21.8491 45.4175-19.1907 45.4175-15.707L45.4175-0.000111199 37.1297-0.000111199 37.1297-13.4486C37.1384-13.6441 37.1514-13.8526 37.1645-14.0741 37.1732-14.2912 37.1819-14.5997 37.1819-14.9949 37.1819-16.8236 36.9082-18.1484 36.3652-18.9737 35.8309-19.7947 34.9622-20.2074 33.7589-20.2074 32.1953-20.2074 30.9833-19.5559 30.1276-18.2614 29.2806-16.9757 28.8419-15.1079 28.8071-12.6667L28.8071-2.22399e-05 20.5193-2.22399e-05 20.5193-13.4485C20.5193-16.3066 20.2673-18.1484 19.7722-18.9737 19.2857-19.7947 18.4169-20.2074 17.1659-20.2074 15.576-20.2074 14.3555-19.5559 13.4997-18.2614 12.6397-16.9626 12.214-15.1036 12.214-12.6841L12.214-0.000689437 3.9088-0.000689437 3.9088-25.8023 12.214-25.8023 12.214-22.0146C13.2218-23.4741 14.3772-24.5731 15.689-25.3159 17.0095-26.0544 18.456-26.4279 20.0327-26.4279 21.8137-26.4279 23.3904-25.9936 24.7587-25.1247 26.1227-24.2647 27.1608-23.0614 27.8688-21.5108Z" fill="#F06292" transform="matrix(1.00078 0 0 1 3934.64 1038.1)"/><path d="M17.6874-5.31667C19.4597-5.31667 20.8062-5.95954 21.7357-7.24531 22.6609-8.53979 23.1257-10.4163 23.1257-12.8748 23.1257-15.329 22.6609-17.2011 21.7357-18.4869 20.8062-19.7814 19.4596-20.4329 17.6874-20.4329 15.9239-20.4329 14.5686-19.7814 13.6217-18.4869 12.6834-17.1881 12.2144-15.316 12.2144-12.8748 12.2144-10.4293 12.6835-8.55713 13.6217-7.26266 14.5687-5.96385 15.9239-5.31667 17.6874-5.31667ZM12.2143-22.0144C13.3479-23.5174 14.6033-24.6294 15.9846-25.3504 17.3616-26.0671 18.9471-26.4276 20.7453-26.4276 23.9292-26.4276 26.5398-25.1593 28.5814-22.6224 30.6186-20.0945 31.6394-16.8454 31.6394-12.8752 31.6394-8.90069 30.6186-5.65155 28.5814-3.12788 26.5399-0.599866 23.9292 0.659802 20.7453 0.659802 18.9469 0.659802 17.3615 0.303619 15.9846-0.400062 14.6033-1.11678 13.3479-2.22874 12.2143-3.73605L12.2143-0.000411438 3.96115-0.000411438 3.96115-35.8445 12.2143-35.8445Z" fill="#F06292" transform="matrix(1.00078 0 0 1 3983.83 1038.1)"/><path d="M16.2451-20.5196C14.4121-20.5196 13.0178-19.8593 12.0578-18.539 11.0935-17.2271 10.6157-15.342 10.6157-12.8747 10.6157-10.4074 11.0935-8.51354 12.0578-7.19305 13.0178-5.88123 14.4121-5.22971 16.2451-5.22971 18.0391-5.22971 19.4118-5.88127 20.363-7.19305 21.3099-8.51354 21.7877-10.4074 21.7877-12.8747 21.7877-15.342 21.3098-17.2271 20.363-18.539 19.4117-19.8595 18.0391-20.5196 16.2451-20.5196ZM16.2451-26.4271C20.6801-26.4271 24.1421-25.2283 26.6354-22.8305 29.1374-20.4328 30.3884-17.1142 30.3884-12.8747 30.3884-8.6352 29.1374-5.31656 26.6354-2.91888 24.1421-0.529866 20.6801 0.660414 16.2451 0.660414 11.7841 0.660414 8.29615-0.529754 5.78549-2.91888 3.2835-5.31656 2.0325-8.6352 2.0325-12.8747 2.0325-17.1142 3.2835-20.4328 5.78549-22.8305 8.29615-25.2282 11.7841-26.4271 16.2451-26.4271Z" fill="#F06292" transform="matrix(1.00078 0 0 1 4017.63 1038.1)"/><path d="M3.96148-35.844 12.2146-35.844 12.2146 0 3.96148 0Z" fill="#F06292" transform="matrix(1.00078 0 0 1 4050.06 1038.1)"/><path d="M24.1169-24.9854 24.1169-18.7304C22.3534-19.4601 20.6506-20.0075 19.0087-20.3811 17.3624-20.7503 15.8117-20.9371 14.3522-20.9371 12.7885-20.9371 11.6244-20.7373 10.8599-20.3463 10.0954-19.9511 9.71317-19.3473 9.71317-18.5393 9.71317-17.8791 9.99985-17.3665 10.5819-17.0103 11.1596-16.6628 12.189-16.4066 13.6745-16.2458L15.134-16.0373C19.3606-15.4901 22.1971-14.6038 23.6478-13.3791 25.1073-12.1498 25.837-10.2212 25.837-7.5932 25.837-4.84791 24.8206-2.78471 22.7965-1.40773 20.768-0.0264099 17.7445 0.659913 13.7267 0.659913 12.0241 0.659913 10.2604 0.525262 8.44477 0.260285 6.62477-0.0046815 4.75261-0.40431 2.83264-0.938557L2.83264-7.21088C4.47461-6.41163 6.15995-5.80787 7.88877-5.40388 9.61325-5.0086 11.3681-4.81314 13.1535-4.81314 14.7605-4.81314 15.9725-5.03032 16.7847-5.47338 17.6057-5.92513 18.0183-6.58972 18.0183-7.47153 18.0183-8.20127 17.7316-8.74421 17.167-9.10483 16.611-9.46101 15.4903-9.74769 13.8136-9.95619L12.3715-10.1299C8.69672-10.5904 6.12524-11.4418 4.65707-12.6841 3.18456-13.9351 2.45043-15.8289 2.45043-18.3657 2.45043-21.0979 3.37999-23.1264 5.24776-24.447 7.12425-25.7675 9.99542-26.4277 13.8657-26.4277 15.3817-26.4277 16.9758-26.3104 18.6438-26.0802 20.3205-25.8457 22.1448-25.4807 24.1169-24.9855Z" fill="#F06292" transform="matrix(1.00078 0 0 1 4066.25 1038.1)"/><path d="M20.9366-35.844 20.9366-30.4231 16.3844-30.4231C15.2115-30.4231 14.3949-30.2059 13.9345-29.7802 13.4697-29.3632 13.2395-28.6335 13.2395-27.5909L13.2395-25.8013 20.2938-25.8013 20.2938-19.8938 13.2395-19.8938 13.2395 0.000911836 5.00387 0.000911836 5.00387-19.8938 0.903385-19.8938 0.903385-25.8013 5.00387-25.8013 5.00387-27.5909C5.00387-30.4056 5.78573-32.4819 7.34951-33.8286 8.9132-35.1707 11.337-35.844 14.6296-35.844Z" fill="#F06292" transform="matrix(1.00078 0 0 1 3471.9 1085.27)"/><path d="M12.9614-33.1163 12.9614-25.8015 21.4751-25.8015 21.4751-19.894 12.9614-19.894 12.9614-8.96524C12.9614-7.75772 13.1959-6.94107 13.6738-6.5154 14.1603-6.0984 15.1072-5.8899 16.5232-5.8899L20.7454-5.8899 20.7454 0.000222399 13.6738 0.000222399C10.416 0.000222399 8.1138-0.677405 6.75851-2.03262 5.40321-3.39659 4.72567-5.70743 4.72567-8.96524L4.72567-19.894 0.625186-19.894 0.625186-25.8015 4.72567-25.8015 4.72567-33.1163Z" fill="#F06292" transform="matrix(1.00078 0 0 1 3613.79 1085.27)"/><path d="M29.9027-15.7069 29.9027 0 21.5974 0 21.5974-11.9717C21.5974-14.2304 21.5452-15.7812 21.441-16.6282 21.3454-17.4709 21.1804-18.0964 20.9372-18.5047 20.6114-19.0347 20.1727-19.4517 19.6167-19.7557 19.0694-20.0554 18.4439-20.2075 17.7402-20.2075 16.0114-20.2075 14.6562-19.5385 13.6745-18.2094 12.7015-16.8759 12.215-15.0339 12.215-12.6841L12.215-0.000611597 3.96188-0.000611597 3.96188-35.8447 12.215-35.8447 12.215-22.0137C13.453-23.5166 14.7692-24.6286 16.1592-25.3497 17.5578-26.0664 19.1042-26.4269 20.7983-26.4269 23.7738-26.4269 26.0325-25.5104 27.5746-23.6816 29.1253-21.8486 29.9029-19.1901 29.9029-15.7065Z" fill="#F06292" transform="matrix(1.00078 0 0 1 3636.36 1085.27)"/><path d="M4.32633-34.3851 14.23-34.3851 26.7399-10.8075 26.7399-34.3851 35.1494-34.3851 35.1494 0 25.2457 0 12.7358-23.5954 12.7358 0 4.32633 0Z" fill="#F06292" transform="matrix(1.00078 0 0 1 3718.43 1085.27)"/><path d="M4.32633-34.3851 19.0425-34.3851C23.4209-34.3851 26.7786-33.4121 29.1199-31.4661 31.4569-29.5288 32.6296-26.7662 32.6296-23.1783 32.6296-19.5643 31.4568-16.7843 29.1199-14.8383 26.7786-12.901 23.4209-11.9367 19.0425-11.9367L13.2045-11.9367 13.2045-0.000555998 4.32588-0.000555998ZM13.2049-27.9564 13.2049-18.3655 18.1046-18.3655C19.8161-18.3655 21.1453-18.7825 22.0834-19.6165 23.0216-20.4505 23.4908-21.6363 23.4908-23.1783 23.4908-24.7073 23.0216-25.8801 22.0834-26.7055 21.1453-27.5394 19.816-27.9564 18.1046-27.9564Z" fill="#F06292" transform="matrix(1.00078 0 0 1 3874.03 1085.27)"/><path d="M3.96148-25.8016 12.2146-25.8016 12.2146-0.469262C12.2146 2.99271 11.3806 5.6337 9.71261 7.4537 8.05329 9.26937 5.65127 10.1815 2.50199 10.1815L-1.56369 10.1815-1.56369 4.76056-0.138999 4.76056C1.42469 4.76056 2.49331 4.40438 3.07533 3.7007 3.66608 2.99267 3.96146 1.6027 3.96146-0.469284ZM3.96148-35.8443 12.2146-35.8443 12.2146-29.1201 3.96148-29.1201Z" fill="#F06292" transform="matrix(1.00078 0 0 1 3964.35 1085.27)"/><path d="M12.9614-33.1163 12.9614-25.8015 21.4751-25.8015 21.4751-19.894 12.9614-19.894 12.9614-8.96524C12.9614-7.75772 13.1959-6.94107 13.6738-6.5154 14.1603-6.0984 15.1072-5.8899 16.5232-5.8899L20.7454-5.8899 20.7454 0.000222399 13.6738 0.000222399C10.416 0.000222399 8.1138-0.677405 6.75851-2.03262 5.40321-3.39659 4.72567-5.70743 4.72567-8.96524L4.72567-19.894 0.625186-19.894 0.625186-25.8015 4.72567-25.8015 4.72567-33.1163Z" fill="#F06292" transform="matrix(1.00078 0 0 1 4040.54 1085.27)"/></g></g></g></g></svg>