<svg width="838" height="837" xmlns="http://www.w3.org/2000/svg" xmlns:xlink="http://www.w3.org/1999/xlink" xml:space="preserve" overflow="hidden"><defs><clipPath id="clip0"><rect x="2419" y="128" width="838" height="837"/></clipPath><clipPath id="clip1"><rect x="2447" y="339" width="782" height="491"/></clipPath><clipPath id="clip2"><rect x="2447" y="339" width="782" height="491"/></clipPath><clipPath id="clip3"><rect x="2447" y="267" width="782" height="781"/></clipPath></defs><g clip-path="url(#clip0)" transform="translate(-2419 -128)"><path d="M2419 546.5C2419 315.369 2606.59 128 2838 128 3069.41 128 3257 315.369 3257 546.5 3257 777.631 3069.41 965 2838 965 2606.59 965 2419 777.631 2419 546.5Z" fill="#DEDEDE" fill-rule="evenodd"/><g clip-path="url(#clip1)"><g clip-path="url(#clip2)"><g clip-path="url(#clip3)"><path d="M371.24 285.385C362.301 264.664 350.215 195.766 268.918 129.295 249.264 115.046 227.878 103.357 206.727 95.0655 144.279 70.08 88.4175 89.6733 87.437 89.7647 97.6035 91.7754 126.95 86.6965 196.953 118.501 281.33 157.304 334.726 240.02 371.236 285.387Z" fill="#F06292" transform="matrix(1.00014 0 0 1 2448 267.478)"/><path d="M143.456 190.271C154.192 136.227 117.913 141.206 104.13 123.48 93.6198 108.914 103.751 95.2828 103.952 94.3079 91.4221 104.396 89.6328 117.778 94.6468 128.933 97.6018 134.56 101.945 139.813 107.19 144.083 129.116 162.4 133.716 155.05 118.849 205.382 116.904 212.332 115.228 219.318 113.962 226.207 104.848 273.304 128.611 297.611 128.907 298.591 128.737 291.648 118.232 279.938 130.543 229.615 132.698 220.95 134.992 213.669 143.456 190.273Z" fill="#F06292" transform="matrix(1.00014 0 0 1 2448 267.478)"/><path d="M191.107 443.903C168.676 414.822 154.741 373.966 188.844 359.051 203.698 351.131 219.823 337.987 231.617 324.822 272.013 319.504 312.604 340.354 313.592 340.672 312.617 339.951 295.888 314.6 260.279 307.879 213.177 298.701 186.438 322.563 160.351 319.059 141.573 317.11 136.476 309.336 135.279 308.667 135.992 309.642 139.37 323.899 158.005 329.748 180.875 337.469 194.023 330.693 229.192 325.192 214.935 332.212 203.798 337.02 176.31 345.96 127.736 365.736 138.918 418.178 167.545 461.228 182.625 480.595 201.3 495.474 219.522 507.099 245.047 523.65 293.76 541.619 323.584 551.943 242.374 489.426 317.795 546.56 233.687 486.022 217.662 474.454 202.222 460.184 191.106 443.907Z" fill="#F06292" transform="matrix(1.00014 0 0 1 2448 267.478)"/><path d="M369.424 388.787C362.26 419.065 374.455 449.847 334.943 475.468 296.157 500.984 322.235 534.722 322.761 538.268 323.148 535.426 318.617 508.043 331.178 497.628 341.779 488.523 373.25 481.469 381.553 441.904 386.814 417.363 373.728 385.487 385.143 370.809 387.802 366.404 390.754 364.75 390.558 364.567 389.578 365.512 374.115 367.249 369.424 388.786Z" fill="#F06292" transform="matrix(1.00014 0 0 1 2448 267.478)"/><path d="M679.765 94.6399C679.121 94.1525 678.655 93.7956 678.294 93.5214 682.438 93.0253 685.906 92.9034 688.287 92.7162 691.002 92.5509 692.452 92.4639 692.452 92.4639 692.452 92.4639 691.063 92.0374 688.465 91.2366 685.849 90.488 682.016 89.0953 676.998 88.003 608.826 74.5989 528.974 96.8378 461.201 178.7 427.095 219.749 407.036 283.172 406.587 284.168 422.938 264.31 424.865 255.366 480.368 195.291 538.234 133.1 619.501 96.0159 676.656 93.6873 677.138 93.6177 677.487 93.6133 677.952 93.5567 678.188 93.9397 678.535 94.5054 679.014 95.2715 684.21 105.273 682.927 116.418 677.247 124.1 667.103 136.839 650.307 135.219 639.298 152.819 626.741 178.375 641.843 198.407 649.099 229.742 660.81 281.348 650.217 288.761 649.799 297.708 650.16 296.733 673.723 271.609 665.685 226.343 659.518 189.685 644.843 168.373 658.982 155.935 669.24 146.812 702.403 130.58 684.981 100.555 683.058 97.6518 681.095 95.8153 679.768 94.6402Z" fill="#F06292" transform="matrix(1.00014 0 0 1 2448 267.478)"/><path d="M620.204 320.291C594.736 323.25 566.556 298.996 519.914 307.225 484.018 313.339 466.527 338.573 465.548 339.265 466.514 338.969 510.218 317.087 552.742 325.408 590.453 367.062 616.19 355.925 612.848 392.656 609.349 427.324 574.676 465.205 546.044 485.19 474.03 535.287 503.215 511.267 455.29 549.609 484.079 540.065 534.571 522.352 560.192 506.275 644.788 454.063 649.357 383.453 626.204 358.162 613.771 343.774 601.184 345.685 560.227 326.697 579.845 330.304 620.303 344.911 642.38 317.484 645.718 312.692 646.554 309.624 646.554 309.624 645.444 310.233 638.524 318.729 620.203 320.286Z" fill="#F06292" transform="matrix(1.00014 0 0 1 2448 267.478)"/><path d="M455.769 537.769C468.698 510.817 470.967 493.791 444.989 476.039 390.705 439.504 435.959 380.498 390.553 362.955 389.288 364.191 400.829 365.762 401.22 390.151 402.178 411.254 380.905 458.853 436.032 490.371 458.201 502.678 456.578 508.489 455.769 537.769Z" fill="#F06292" transform="matrix(1.00014 0 0 1 2448 267.478)"/><path d="M416.061 188.578C408.271 197.891 401.447 207.662 397.278 216.988 393.039 226.345 392.447 235.136 392.883 240.96 393.522 246.853 394.893 249.912 394.893 249.912 394.893 249.912 394.201 246.592 394.776 240.96 395.141 235.328 397.539 227.586 402.178 219.43 406.744 211.148 414.429 203.123 422.52 194.036 430.506 184.91 439.645 174.674 444.912 161.457 449.769 148.283 449.5 132.106 440.564 120.613 431.603 109.31 415.775 106.738 405.896 112.839 400.992 115.759 397.923 120.391 396.97 124.873 395.947 129.421 397.314 133.495 398.985 136.062 402.741 141.368 406.967 141.276 406.745 141.402 406.953 141.363 402.859 140.397 400.647 135.144 399.494 132.667 399.09 129.208 400.491 125.896 401.818 122.597 404.717 119.473 408.542 117.649 416.232 113.71 427.8 117.505 433.88 125.8 440.069 134.208 440.251 147.256 435.781 158.042 431.782 169.308 423.743 179.254 416.062 188.58Z" fill="#F06292" transform="matrix(1.00014 0 0 1 2448 267.478)"/><path d="M355.542 194.249C363.553 203.41 371.135 211.47 375.578 219.709 380.096 227.821 382.393 235.451 382.711 240.96 383.238 246.469 382.542 249.69 382.542 249.69 382.542 249.69 383.909 246.736 384.6 240.964 385.083 235.263 384.6 226.585 380.478 217.276 376.432 207.993 369.716 198.187 361.999 188.804 354.396 179.403 346.427 169.359 342.536 158.056 338.163 147.228 338.511 134.228 344.696 126.016 350.767 117.895 362.147 114.343 369.467 118.199 377.127 121.812 379.568 130.133 376.935 134.742 374.851 139.643 371.129 140.479 371.321 140.527 371.116 140.387 374.972 140.609 378.598 135.66 380.2 133.245 381.552 129.433 380.63 125.08 379.773 120.79 376.857 116.263 372.118 113.391 350.358 99.6038 320.567 125.799 333.402 161.451 338.559 174.711 347.632 185.053 355.541 194.249Z" fill="#F06292" transform="matrix(1.00014 0 0 1 2448 267.478)"/><path d="M31.6658-1.89748C30.0294-1.04882 28.3235-0.409109 26.5477 0.0174919 24.7808 0.443993 22.9442 0.661594 21.0293 0.661594 15.2847 0.661594 10.7323-0.939971 7.38123-4.1431 4.0258-7.34623 2.35026-11.6983 2.35026-17.1996 2.35026-22.701 4.0258-27.0528 7.38123-30.2561 10.7323-33.468 15.2847-35.0782 21.0293-35.0782 22.9443-35.0782 24.7808-34.8606 26.5477-34.4341 28.3235-34.0032 30.0294-33.3634 31.6658-32.5192L31.6658-25.3818C30.0164-26.5046 28.3931-27.3315 26.7915-27.8538 25.19-28.3762 23.5057-28.6372 21.7432-28.6372 18.5748-28.6372 16.0768-27.6188 14.2575-25.5907 12.4471-23.5583 11.5418-20.7599 11.5418-17.2 11.5418-13.6356 12.4471-10.8372 14.2575-8.80919 16.0767-6.77679 18.5748-5.76271 21.7432-5.76271 23.5057-5.76271 25.1901-6.02384 26.7915-6.54608 28.3931-7.07703 30.0164-7.90398 31.6658-9.01812Z" fill="#F06292" transform="matrix(1.00014 0 0 1 2526 1033.19)"/><path d="M23.1706-18.801C22.4482-19.1491 21.73-19.3973 21.012-19.5496 20.2896-19.7105 19.5714-19.7932 18.8533-19.7932 16.7296-19.7932 15.0931-19.1143 13.9442-17.7565 12.804-16.3986 12.2383-14.4488 12.2383-11.9073L12.2383 0.000523642 3.96932 0.000523642 3.96932-25.8506 12.2383-25.8506 12.2383-21.603C13.2915-23.2959 14.5058-24.532 15.8766-25.311 17.2562-26.0856 18.91-26.4773 20.8379-26.4773 21.1165-26.4773 21.4167-26.4643 21.7432-26.4426 22.0653-26.4164 22.5352-26.3643 23.1532-26.2859Z" fill="#F06292" transform="matrix(1.00014 0 0 1 2560.69 1033.19)"/><path d="M29.7685-12.9863 29.7685-10.6362 10.4628-10.6362C10.6587-8.69513 11.355-7.24152 12.5518-6.26666 13.7573-5.30049 15.4328-4.82174 17.5828-4.82174 19.3236-4.82174 21.1037-5.07416 22.9272-5.5877 24.7463-6.10995 26.6221-6.89335 28.5501-7.93785L28.5501-1.56636C26.6003-0.835209 24.6419-0.282544 22.6835 0.0874593 20.7338 0.470442 18.7753 0.661928 16.8169 0.661928 12.1385 0.661928 8.5045-0.521837 5.91938-2.88937 3.32992-5.26559 2.0373-8.60364 2.0373-12.8992 2.0373-17.1119 3.30808-20.4239 5.84975-22.8394 8.3913-25.2635 11.8948-26.4777 16.3644-26.4777 20.4248-26.4777 23.6759-25.2503 26.113-22.8045 28.5502-20.3543 29.7687-17.0815 29.7687-12.9862ZM21.2732-15.7369C21.2732-17.3036 20.8119-18.5658 19.8979-19.5318 18.9927-20.4937 17.7959-20.9768 16.3118-20.9768 14.7102-20.9768 13.4089-20.5241 12.4123-19.6189 11.4114-18.7223 10.7934-17.4298 10.5496-15.7368Z" fill="#F06292" transform="matrix(1.00014 0 0 1 2584.01 1033.19)"/><path d="M15.5633-11.6293C13.8312-11.6293 12.5342-11.3334 11.6638-10.7415 10.7934-10.1583 10.3582-9.3009 10.3582-8.16505 10.3582-7.12055 10.7064-6.30233 11.4027-5.7105 12.1077-5.11862 13.0826-4.82267 14.3273-4.82267 15.8809-4.82267 17.1866-5.37974 18.2441-6.49387 19.3104-7.608 19.8457-9.00501 19.8457-10.6892L19.8457-11.6293ZM28.1842-14.7454 28.1842-0.00100272 19.8456-0.00100272 19.8456-3.83083C18.7401-2.26414 17.4954-1.11948 16.1028-0.401422 14.7188 0.303612 13.0389 0.660479 11.0544 0.660479 8.37359 0.660479 6.19747-0.114187 4.52627-1.67229 2.86376-3.23898 2.03686-5.2628 2.03686-7.74776 2.03686-10.7856 3.07265-13.0138 5.15297-14.4326 7.24197-15.847 10.5147-16.5563 14.9713-16.5563L19.8456-16.5563 19.8456-17.2004C19.8456-18.4974 19.3277-19.4504 18.2963-20.0554 17.2605-20.669 15.6546-20.978 13.4742-20.978 11.7073-20.978 10.0622-20.7953 8.53024-20.4383 7.007-20.0901 5.59695-19.5592 4.29999-18.8541L4.29999-25.1559C6.06255-25.5825 7.83825-25.9088 9.62688-26.1307 11.4113-26.3615 13.1956-26.4789 14.9713-26.4789 19.6367-26.4789 23.0008-25.5563 25.0681-23.7109 27.144-21.8744 28.1842-18.8889 28.1842-14.7456Z" fill="#F06292" transform="matrix(1.00014 0 0 1 2616.07 1033.19)"/><path d="M12.9863-33.18 12.9863-25.8511 21.5163-25.8511 21.5163-19.9323 12.9863-19.9323 12.9863-8.98246C12.9863-7.77263 13.2213-6.95441 13.7-6.52792 14.1875-6.11012 15.1363-5.90122 16.555-5.90122L20.7852-5.90122 20.7852 0.000222826 13.7 0.000222826C10.436 0.000222826 8.12939-0.678707 6.77149-2.03652 5.41359-3.40312 4.73475-5.71839 4.73475-8.98246L4.73475-19.9323 0.626387-19.9323 0.626387-25.8511 4.73475-25.8511 4.73475-33.18Z" fill="#F06292" transform="matrix(1.00014 0 0 1 2647.97 1033.19)"/><path d="M29.7685-12.9863 29.7685-10.6362 10.4628-10.6362C10.6587-8.69513 11.355-7.24152 12.5518-6.26666 13.7573-5.30049 15.4328-4.82174 17.5828-4.82174 19.3236-4.82174 21.1037-5.07416 22.9272-5.5877 24.7463-6.10995 26.6221-6.89335 28.5501-7.93785L28.5501-1.56636C26.6003-0.835209 24.6419-0.282544 22.6835 0.0874593 20.7338 0.470442 18.7753 0.661928 16.8169 0.661928 12.1385 0.661928 8.5045-0.521837 5.91938-2.88937 3.32992-5.26559 2.0373-8.60364 2.0373-12.8992 2.0373-17.1119 3.30808-20.4239 5.84975-22.8394 8.3913-25.2635 11.8948-26.4777 16.3644-26.4777 20.4248-26.4777 23.6759-25.2503 26.113-22.8045 28.5502-20.3543 29.7687-17.0815 29.7687-12.9862ZM21.2732-15.7369C21.2732-17.3036 20.8119-18.5658 19.8979-19.5318 18.9927-20.4937 17.7959-20.9768 16.3118-20.9768 14.7102-20.9768 13.4089-20.5241 12.4123-19.6189 11.4114-18.7223 10.7934-17.4298 10.5496-15.7368Z" fill="#F06292" transform="matrix(1.00014 0 0 1 2670.57 1033.19)"/><path d="M21.5518-22.0565 21.5518-35.914 29.8555-35.914 29.8555-0.00111413 21.5518-0.00111413 21.5518-3.74393C20.4116-2.22069 19.1582-1.10656 17.7916-0.401533 16.4206 0.303501 14.8366 0.660368 13.0391 0.660368 9.85773 0.660368 7.24219-0.60172 5.18795-3.13459 3.14252-5.66311 2.12409-8.91849 2.12409-12.9006 2.12409-16.8784 3.14247-20.1338 5.18795-22.6667 7.24219-25.2082 9.85773-26.4791 13.0391-26.4791 14.8235-26.4791 16.4032-26.1179 17.7742-25.3997 19.1538-24.6773 20.4116-23.5632 21.5518-22.0574ZM16.103-5.32666C17.8787-5.32666 19.2278-5.97076 20.1591-7.25901 21.0861-8.55597 21.5518-10.4361 21.5518-12.8993 21.5518-15.3582 21.0861-17.2339 20.1591-18.5222 19.2278-19.8192 17.8786-20.4719 16.103-20.4719 14.3491-20.4719 13.0087-19.8192 12.0816-18.5222 11.1503-17.2341 10.689-15.3583 10.689-12.8993 10.689-10.4361 11.1503-8.55597 12.0816-7.25901 13.0086-5.97085 14.3491-5.32666 16.103-5.32666Z" fill="#F06292" transform="matrix(1.00014 0 0 1 2702.63 1033.19)"/><path d="M17.7214-5.32689C19.4971-5.32689 20.8462-5.97099 21.7775-7.25924 22.7044-8.5562 23.1701-10.4363 23.1701-12.8995 23.1701-15.3584 22.7044-17.2342 21.7775-18.5224 20.8462-19.8194 19.497-20.4722 17.7214-20.4722 15.9545-20.4722 14.5966-19.8194 13.6479-18.5224 12.7078-17.2211 12.2378-15.3454 12.2378-12.8995 12.2378-10.4493 12.7079-8.57358 13.6479-7.27662 14.5967-5.97531 15.9545-5.32689 17.7214-5.32689ZM12.2377-22.0567C13.3736-23.5625 14.6313-24.6767 16.0153-25.3991 17.3949-26.1171 18.9835-26.4783 20.7851-26.4783 23.9752-26.4783 26.5908-25.2077 28.6363-22.6659 30.6774-20.1331 31.7002-16.8778 31.7002-12.9 31.7002-8.91779 30.6774-5.66241 28.6363-3.13388 26.5909-0.601018 23.9752 0.66107 20.7851 0.66107 18.9834 0.66107 17.3948 0.304202 16.0153-0.400831 14.6313-1.11892 13.3736-2.23302 12.2377-3.74323L12.2377-0.000412229 3.96876-0.000412229 3.96876-35.9134 12.2377-35.9134Z" fill="#F06292" transform="matrix(1.00014 0 0 1 2752.92 1033.19)"/><path d="M0.574468-25.8512 8.84344-25.8512 15.7894-8.30362 21.6908-25.8512 29.9598-25.8512 19.0796 2.45443C17.9872 5.31808 16.7164 7.32876 15.2672 8.47765 13.8136 9.62654 11.8944 10.2011 9.50501 10.2011L4.73519 10.2011 4.73519 4.76971 7.31162 4.76971C8.71298 4.76971 9.73575 4.54775 10.3755 4.10819 11.0109 3.66428 11.507 2.86349 11.8551 1.7059L12.0989 0.992168Z" fill="#F06292" transform="matrix(1.00014 0 0 1 2786.76 1033.19)"/><path d="M4.33464-34.4512 19.0791-34.4512C23.466-34.4512 26.8301-33.4763 29.1759-31.5266 31.5173-29.5855 32.6923-26.8176 32.6923-23.2228 32.6923-19.6019 31.5172-16.8166 29.1759-14.8669 26.8301-12.9258 23.466-11.9596 19.0791-11.9596L13.2299-11.9596 13.2299-0.000557066 4.33419-0.000557066ZM13.2303-28.0102 13.2303-18.4008 18.1394-18.4008C19.8542-18.4008 21.1859-18.8186 22.1259-19.6542 23.0659-20.4898 23.5359-21.6779 23.5359-23.2228 23.5359-24.7548 23.0659-25.9299 22.1259-26.7568 21.1859-27.5924 19.854-28.0102 18.1394-28.0102Z" fill="#F06292" transform="matrix(1.00014 0 0 1 2834.03 1033.19)"/><path d="M23.1706-18.801C22.4482-19.1491 21.73-19.3973 21.012-19.5496 20.2896-19.7105 19.5714-19.7932 18.8533-19.7932 16.7296-19.7932 15.0931-19.1143 13.9442-17.7565 12.804-16.3986 12.2383-14.4488 12.2383-11.9073L12.2383 0.000523642 3.96932 0.000523642 3.96932-25.8506 12.2383-25.8506 12.2383-21.603C13.2915-23.2959 14.5058-24.532 15.8766-25.311 17.2562-26.0856 18.91-26.4773 20.8379-26.4773 21.1165-26.4773 21.4167-26.4643 21.7432-26.4426 22.0653-26.4164 22.5352-26.3643 23.1532-26.2859Z" fill="#F06292" transform="matrix(1.00014 0 0 1 2868.68 1033.19)"/><path d="M16.2763-20.5591C14.4398-20.5591 13.0428-19.8975 12.081-18.5746 11.1148-17.2602 10.6361-15.3715 10.6361-12.8994 10.6361-10.4274 11.1148-8.5299 12.081-7.20687 13.0428-5.89253 14.4398-5.23976 16.2763-5.23976 18.0738-5.23976 19.4491-5.89257 20.4021-7.20687 21.3509-8.5299 21.8295-10.4274 21.8295-12.8994 21.8295-15.3715 21.3508-17.2602 20.4021-18.5746 19.4489-19.8976 18.0738-20.5591 16.2763-20.5591ZM16.2763-26.4779C20.7198-26.4779 24.1885-25.2767 26.6866-22.8743 29.1934-20.4721 30.4468-17.147 30.4468-12.8994 30.4468-8.65179 29.1934-5.32677 26.6866-2.92448 24.1885-0.530884 20.7198 0.661683 16.2763 0.661683 11.8068 0.661683 8.31209-0.530772 5.7966-2.92448 3.28981-5.32677 2.03641-8.65179 2.03641-12.8994 2.03641-17.147 3.28981-20.4721 5.7966-22.8743 8.31209-25.2766 11.8068-26.4779 16.2763-26.4779Z" fill="#F06292" transform="matrix(1.00014 0 0 1 2891.99 1033.19)"/><path d="M28.3235-33.3716 28.3235-26.0775C26.4303-26.9218 24.5806-27.5615 22.7702-27.9924 20.9684-28.4189 19.2711-28.6365 17.6696-28.6365 15.5545-28.6365 13.9877-28.3406 12.9693-27.7487 11.9596-27.1655 11.4547-26.2603 11.4547-25.033 11.4547-24.1147 11.7942-23.3965 12.4818-22.8743 13.1651-22.3608 14.4055-21.9213 16.2073-21.5513L19.9848-20.7853C23.8147-20.0194 26.5347-18.853 28.1493-17.2863 29.7726-15.7196 30.5865-13.4826 30.5865-10.5842 30.5865-6.78923 29.455-3.96034 27.1918-2.10631 24.9375-0.261086 21.4993 0.661638 16.8687 0.661638 14.684 0.661638 12.4905 0.452738 10.2884 0.0349392 8.09492-0.369803 5.89284-0.979099 3.69065-1.79291L3.69065-9.29591C5.89284-8.12084 8.02529-7.24168 10.0795-6.64985 12.1338-6.05802 14.1096-5.76202 16.0158-5.76202 17.9524-5.76202 19.4365-6.08407 20.4723-6.73689 21.5037-7.38534 22.0216-8.30803 22.0216-9.50484 22.0216-10.5842 21.6647-11.411 20.9597-11.9943 20.2634-12.5861 18.8707-13.1128 16.7817-13.5785L13.3348-14.327C9.88787-15.0668 7.36804-16.2463 5.77962-17.8609 4.18675-19.4711 3.39471-21.6471 3.39471-24.389 3.39471-27.8228 4.50014-30.4645 6.71973-32.3098 8.93496-34.155 12.1207-35.0778 16.2769-35.0778 18.1657-35.0778 20.1111-34.9298 22.1087-34.6426 24.102-34.3641 26.1735-33.9376 28.3235-33.3718Z" fill="#F06292" transform="matrix(1.00014 0 0 1 2924.47 1033.19)"/><path d="M0.574468-25.8512 8.84344-25.8512 15.7894-8.30362 21.6908-25.8512 29.9598-25.8512 19.0796 2.45443C17.9872 5.31808 16.7164 7.32876 15.2672 8.47765 13.8136 9.62654 11.8944 10.2011 9.50501 10.2011L4.73519 10.2011 4.73519 4.76971 7.31162 4.76971C8.71298 4.76971 9.73575 4.54775 10.3755 4.10819 11.0109 3.66428 11.507 2.86349 11.8551 1.7059L12.0989 0.992168Z" fill="#F06292" transform="matrix(1.00014 0 0 1 2958.52 1033.19)"/><path d="M27.9224-21.5518C28.9669-23.1533 30.2072-24.3719 31.6478-25.2074 33.084-26.0517 34.6681-26.4782 36.4002-26.4782 39.3596-26.4782 41.614-25.56 43.172-23.7277 44.7257-21.8911 45.5048-19.2276 45.5048-15.7372L45.5048-0.000111413 37.2011-0.000111413 37.2011-13.4744C37.2098-13.6703 37.2228-13.8792 37.236-14.1011 37.2446-14.3187 37.2533-14.6278 37.2533-15.0237 37.2533-16.8559 36.9791-18.1833 36.4351-19.0102 35.8998-19.8328 35.0294-20.2462 33.8238-20.2462 32.2571-20.2462 31.0428-19.5935 30.1855-18.2965 29.3369-17.0083 28.8973-15.1369 28.8625-12.6911L28.8625-2.22826e-05 20.5587-2.22826e-05 20.5587-13.4743C20.5587-16.338 20.3063-18.1833 19.8102-19.0102 19.3227-19.8328 18.4522-20.2462 17.1988-20.2462 15.606-20.2462 14.3831-19.5935 13.5257-18.2965 12.664-16.9952 12.2375-15.1326 12.2375-12.7085L12.2375-0.000690762 3.91631-0.000690762 3.91631-25.8519 12.2375-25.8519 12.2375-22.0569C13.2472-23.5192 14.4048-24.6203 15.7192-25.3645 17.0422-26.1044 18.4915-26.4787 20.0712-26.4787 21.8556-26.4787 23.4353-26.0435 24.8063-25.173 26.1728-24.3114 27.213-23.1058 27.9224-21.5521Z" fill="#F06292" transform="matrix(1.00014 0 0 1 2989.33 1033.19)"/><path d="M17.7214-5.32689C19.4971-5.32689 20.8462-5.97099 21.7775-7.25924 22.7044-8.5562 23.1701-10.4363 23.1701-12.8995 23.1701-15.3584 22.7044-17.2342 21.7775-18.5224 20.8462-19.8194 19.497-20.4722 17.7214-20.4722 15.9545-20.4722 14.5966-19.8194 13.6479-18.5224 12.7078-17.2211 12.2378-15.3454 12.2378-12.8995 12.2378-10.4493 12.7079-8.57358 13.6479-7.27662 14.5967-5.97531 15.9545-5.32689 17.7214-5.32689ZM12.2377-22.0567C13.3736-23.5625 14.6313-24.6767 16.0153-25.3991 17.3949-26.1171 18.9835-26.4783 20.7851-26.4783 23.9752-26.4783 26.5908-25.2077 28.6363-22.6659 30.6774-20.1331 31.7002-16.8778 31.7002-12.9 31.7002-8.91779 30.6774-5.66241 28.6363-3.13388 26.5909-0.601018 23.9752 0.66107 20.7851 0.66107 18.9834 0.66107 17.3948 0.304202 16.0153-0.400831 14.6313-1.11892 13.3736-2.23302 12.2377-3.74323L12.2377-0.000412229 3.96876-0.000412229 3.96876-35.9134 12.2377-35.9134Z" fill="#F06292" transform="matrix(1.00014 0 0 1 3038.59 1033.19)"/><path d="M16.2763-20.5591C14.4398-20.5591 13.0428-19.8975 12.081-18.5746 11.1148-17.2602 10.6361-15.3715 10.6361-12.8994 10.6361-10.4274 11.1148-8.5299 12.081-7.20687 13.0428-5.89253 14.4398-5.23976 16.2763-5.23976 18.0738-5.23976 19.4491-5.89257 20.4021-7.20687 21.3509-8.5299 21.8295-10.4274 21.8295-12.8994 21.8295-15.3715 21.3508-17.2602 20.4021-18.5746 19.4489-19.8976 18.0738-20.5591 16.2763-20.5591ZM16.2763-26.4779C20.7198-26.4779 24.1885-25.2767 26.6866-22.8743 29.1934-20.4721 30.4468-17.147 30.4468-12.8994 30.4468-8.65179 29.1934-5.32677 26.6866-2.92448 24.1885-0.530884 20.7198 0.661683 16.2763 0.661683 11.8068 0.661683 8.31209-0.530772 5.7966-2.92448 3.28981-5.32677 2.03641-8.65179 2.03641-12.8994 2.03641-17.147 3.28981-20.4721 5.7966-22.8743 8.31209-25.2766 11.8068-26.4779 16.2763-26.4779Z" fill="#F06292" transform="matrix(1.00014 0 0 1 3072.43 1033.19)"/><path d="M3.96909-35.9129 12.2381-35.9129 12.2381 0 3.96909 0Z" fill="#F06292" transform="matrix(1.00014 0 0 1 3104.91 1033.19)"/><path d="M24.1633-25.0334 24.1633-18.7664C22.3964-19.4975 20.6903-20.0459 19.0452-20.4202 17.3957-20.7901 15.8421-20.9773 14.3798-20.9773 12.8131-20.9773 11.6467-20.7771 10.8807-20.3854 10.1148-19.9894 9.73183-19.3844 9.73183-18.5749 9.73183-17.9135 10.0191-17.3998 10.6022-17.043 11.1811-16.6948 12.2124-16.4381 13.7008-16.277L15.1631-16.0681C19.3978-15.5199 22.2397-14.6319 23.6932-13.4048 25.1555-12.1731 25.8866-10.2408 25.8866-7.60779 25.8866-4.85722 24.8683-2.79006 22.8403-1.41043 20.8079-0.0264606 17.7786 0.661181 13.7531 0.661181 12.0472 0.661181 10.2801 0.526271 8.46099 0.260785 6.63749-0.00469049 4.76174-0.405087 2.83808-0.94036L2.83808-7.22473C4.48321-6.42395 6.17179-5.81903 7.90393-5.41427 9.63172-5.01823 11.39-4.82238 13.1787-4.82238 14.7889-4.82238 16.0032-5.03999 16.8169-5.4839 17.6395-5.93652 18.0529-6.60238 18.0529-7.48588 18.0529-8.21703 17.7657-8.76101 17.2-9.12232 16.6429-9.47919 15.5201-9.76642 13.8402-9.97532L12.3953-10.1494C8.71343-10.6107 6.137-11.4637 4.66602-12.7085 3.19068-13.9619 2.45513-15.8593 2.45513-18.401 2.45513-21.1384 3.38648-23.1708 5.25784-24.494 7.13794-25.817 10.0146-26.4785 13.8923-26.4785 15.4112-26.4785 17.0084-26.3609 18.6796-26.1303 20.3595-25.8953 22.1874-25.5297 24.1633-25.0335Z" fill="#F06292" transform="matrix(1.00014 0 0 1 3121.11 1033.19)"/><path d="M20.9769-35.9129 20.9769-30.4815 16.4158-30.4815C15.2408-30.4815 14.4225-30.2639 13.9613-29.8374 13.4956-29.4196 13.265-28.6886 13.265-27.6439L13.265-25.8509 20.3328-25.8509 20.3328-19.932 13.265-19.932 13.265 0.000913588 5.01348 0.000913588 5.01348-19.932 0.90512-19.932 0.90512-25.8509 5.01348-25.8509 5.01348-27.6439C5.01348-30.464 5.79685-32.5443 7.36363-33.8936 8.93032-35.2383 11.3588-35.9129 14.6577-35.9129Z" fill="#F06292" transform="matrix(1.00014 0 0 1 2526 1080.45)"/><path d="M12.9863-33.18 12.9863-25.8511 21.5163-25.8511 21.5163-19.9323 12.9863-19.9323 12.9863-8.98246C12.9863-7.77263 13.2213-6.95441 13.7-6.52792 14.1875-6.11012 15.1363-5.90122 16.555-5.90122L20.7852-5.90122 20.7852 0.000222826 13.7 0.000222826C10.436 0.000222826 8.12939-0.678707 6.77149-2.03652 5.41359-3.40312 4.73475-5.71839 4.73475-8.98246L4.73475-19.9323 0.626387-19.9323 0.626387-25.8511 4.73475-25.8511 4.73475-33.18Z" fill="#F06292" transform="matrix(1.00014 0 0 1 2668.07 1080.45)"/><path d="M29.9601-15.7371 29.9601 0 21.6389 0 21.6389-11.9947C21.6389-14.2578 21.5866-15.8115 21.4822-16.6602 21.3864-17.5045 21.2211-18.1312 20.9774-18.5403 20.651-19.0713 20.2115-19.4891 19.6544-19.7937 19.106-20.0939 18.4793-20.2463 17.7743-20.2463 16.0422-20.2463 14.6844-19.5761 13.7008-18.2444 12.7259-16.9083 12.2385-15.0628 12.2385-12.7085L12.2385-0.000612772 3.96949-0.000612772 3.96949-35.9136 12.2385-35.9136 12.2385-22.056C13.4789-23.5618 14.7976-24.6759 16.1902-25.3984 17.5916-26.1165 19.1409-26.4777 20.8383-26.4777 23.8195-26.4777 26.0825-25.5594 27.6276-23.7271 29.1812-21.8906 29.9603-19.227 29.9603-15.7367Z" fill="#F06292" transform="matrix(1.00014 0 0 1 2690.67 1080.45)"/><path d="M4.33464-34.4512 14.2573-34.4512 26.7913-10.8282 26.7913-34.4512 35.2169-34.4512 35.2169 0 25.2942 0 12.7603-23.6408 12.7603 0 4.33464 0Z" fill="#F06292" transform="matrix(1.00014 0 0 1 2772.84 1080.45)"/><path d="M4.33464-34.4512 19.0791-34.4512C23.466-34.4512 26.8301-33.4763 29.1759-31.5266 31.5173-29.5855 32.6923-26.8176 32.6923-23.2228 32.6923-19.6019 31.5172-16.8166 29.1759-14.8669 26.8301-12.9258 23.466-11.9596 19.0791-11.9596L13.2299-11.9596 13.2299-0.000557066 4.33419-0.000557066ZM13.2303-28.0102 13.2303-18.4008 18.1394-18.4008C19.8542-18.4008 21.1859-18.8186 22.1259-19.6542 23.0659-20.4898 23.5359-21.6779 23.5359-23.2228 23.5359-24.7548 23.0659-25.9299 22.1259-26.7568 21.1859-27.5924 19.854-28.0102 18.1394-28.0102Z" fill="#F06292" transform="matrix(1.00014 0 0 1 2928.65 1080.45)"/><path d="M3.96909-25.8512 12.2381-25.8512 12.2381-0.470164C12.2381 2.99846 11.4025 5.64452 9.73127 7.46802 8.06876 9.28718 5.66213 10.2011 2.5068 10.2011L-1.56669 10.2011-1.56669 4.76971-0.139266 4.76971C1.42743 4.76971 2.49811 4.41284 3.08124 3.70781 3.67312 2.99842 3.96907 1.60578 3.96907-0.470186ZM3.96909-35.9131 12.2381-35.9131 12.2381-29.1761 3.96909-29.1761Z" fill="#F06292" transform="matrix(1.00014 0 0 1 3019.08 1080.45)"/><path d="M12.9863-33.18 12.9863-25.8511 21.5163-25.8511 21.5163-19.9323 12.9863-19.9323 12.9863-8.98246C12.9863-7.77263 13.2213-6.95441 13.7-6.52792 14.1875-6.11012 15.1363-5.90122 16.555-5.90122L20.7852-5.90122 20.7852 0.000222826 13.7 0.000222826C10.436 0.000222826 8.12939-0.678707 6.77149-2.03652 5.41359-3.40312 4.73475-5.71839 4.73475-8.98246L4.73475-19.9323 0.626387-19.9323 0.626387-25.8511 4.73475-25.8511 4.73475-33.18Z" fill="#F06292" transform="matrix(1.00014 0 0 1 3095.37 1080.45)"/></g></g></g></g></svg>