<svg width="837" height="837" xmlns="http://www.w3.org/2000/svg" xmlns:xlink="http://www.w3.org/1999/xlink" xml:space="preserve" overflow="hidden"><defs><clipPath id="clip0"><rect x="1474" y="128" width="837" height="837"/></clipPath><clipPath id="clip1"><rect x="1502" y="339" width="781" height="462"/></clipPath><clipPath id="clip2"><rect x="1502" y="339" width="781" height="462"/></clipPath><clipPath id="clip3"><rect x="1502" y="260" width="781" height="780"/></clipPath></defs><g clip-path="url(#clip0)" transform="translate(-1474 -128)"><path d="M1474 546.5C1474 315.369 1661.37 128 1892.5 128 2123.63 128 2311 315.369 2311 546.5 2311 777.631 2123.63 965 1892.5 965 1661.37 965 1474 777.631 1474 546.5Z" fill="#DEDEDE" fill-rule="evenodd"/><g clip-path="url(#clip1)"><g clip-path="url(#clip2)"><g clip-path="url(#clip3)"><path d="M193.093 210.39C192.649 214.358 194.467 218.466 197.609 220.933 200.65 223.325 204.644 224.161 208.513 224.327 212.38 224.491 216.252 224.06 220.116 224.248 226.398 224.553 232.525 226.484 238.812 226.758 240.2 226.819 241.971 226.515 242.284 225.162 242.588 223.857 241.257 222.825 240.204 221.994 236.219 218.844 234.365 213.732 231.006 209.925 228.27 206.827 224.584 204.673 220.686 203.299 216.792 201.923 212.672 201.284 208.559 200.866 205.706 200.574 202.738 200.401 200.045 201.388 196.295 202.758 193.536 206.422 193.093 210.39Z" fill="#F06292" transform="matrix(1.00041 0 0 1 1503 260.075)"/><path d="M202.705 244.106C197.845 250.933 202.636 262.445 217.076 263.998 224.799 264.829 212.781 263.493 280.194 261.77 282.07 258.28 278.349 255.491 268.969 247.79 265.888 245.263 262.695 242.73 258.94 241.39 255.381 240.12 251.531 239.998 247.754 239.885 221.323 239.106 208.048 236.604 202.705 244.105Z" fill="#F06292" transform="matrix(1.00041 0 0 1 1503 260.075)"/><path d="M223.745 274.859C215.978 275.08 207.303 275.681 202.082 281.194 195.965 287.659 197.789 297.608 205.267 301.511 210.192 304.083 216.179 303.33 221.774 302.969 244.812 301.486 267.562 307.872 290.591 309.504 307.96 310.736 325.464 309.257 342.797 310.875 275.612 269.203 308.869 272.444 223.741 274.859Z" fill="#F06292" transform="matrix(1.00041 0 0 1 1503 260.075)"/><path d="M279.793 238.281C302.069 258.099 324.602 277.63 347.389 296.866 348.525 297.822 349.842 298.845 351.322 298.689 352.858 298.527 354.006 297.075 354.289 295.56 354.594 293.924 354.106 292.244 353.576 290.687 352.239 286.759 350.434 283.021 348.267 279.48 336.563 260.328 325.021 240.405 308.274 225.338 295.905 214.213 280.103 205.955 263.735 204.636 258.049 204.18 254.354 210.767 257.687 215.4 263.831 223.941 271.875 231.233 279.794 238.282Z" fill="#F06292" transform="matrix(1.00041 0 0 1 1503 260.075)"/><path d="M139.462 124.882C124.9 124.882 124.9 147.463 139.462 147.463 154.024 147.463 154.024 124.882 139.462 124.882Z" fill="#F06292" transform="matrix(1.00041 0 0 1 1503 260.075)"/><path d="M159.455 152.683C147.199 152.683 147.199 171.692 159.455 171.692 171.712 171.692 171.712 152.683 159.455 152.683Z" fill="#F06292" transform="matrix(1.00041 0 0 1 1503 260.075)"/><path d="M163.777 187.746C151.764 187.746 151.764 206.377 163.777 206.377 175.789 206.377 175.789 187.746 163.777 187.746Z" fill="#F06292" transform="matrix(1.00041 0 0 1 1503 260.075)"/><path d="M177.989 219.724C165.872 219.724 165.872 238.511 177.989 238.511 190.107 238.511 190.107 219.724 177.989 219.724Z" fill="#F06292" transform="matrix(1.00041 0 0 1 1503 260.075)"/><path d="M185.196 261.871C172.818 261.871 172.818 281.067 185.196 281.067 197.574 281.067 197.574 261.871 185.196 261.871Z" fill="#F06292" transform="matrix(1.00041 0 0 1 1503 260.075)"/><path d="M193.627 175.639C206.005 175.639 206.005 156.443 193.627 156.443 181.249 156.448 181.249 175.639 193.627 175.639Z" fill="#F06292" transform="matrix(1.00041 0 0 1 1503 260.075)"/><path d="M227.22 191.734C238.324 191.734 238.324 174.513 227.22 174.513 216.117 174.517 216.117 191.734 227.22 191.734Z" fill="#F06292" transform="matrix(1.00041 0 0 1 1503 260.075)"/><path d="M203.585 378.366C262.622 367.123 270.437 364.286 274.952 354.841 277.401 349.715 273.725 343.86 268.048 343.559 257.601 343.002 247.851 347.079 237.822 349.19 224.843 351.918 203.28 351.769 195.261 366.989 192.242 372.723 197.219 379.58 203.584 378.366Z" fill="#F06292" transform="matrix(1.00041 0 0 1 1503 260.075)"/><path d="M234.839 393.915C235.709 390.695 233.611 387.198 230.644 385.675 224.232 382.373 218.475 386.21 197.59 392.254 171.541 399.781 179.238 421.875 190.991 419.259 194.354 418.511 196.816 415.774 199.479 413.49 215.429 395.516 232.059 404.232 234.839 393.915Z" fill="#F06292" transform="matrix(1.00041 0 0 1 1503 260.075)"/><path d="M240.72 414.644C240.916 414.374 241.115 414.109 241.311 413.838L240.754 414.557C241.781 409.283 236.552 404.241 225.191 410.768 206.717 421.379 190.558 425.051 204.472 440.519 216.098 453.442 219.582 443.403 235.837 421.288 238.187 419.364 240.105 417.567 240.719 414.644Z" fill="#F06292" transform="matrix(1.00041 0 0 1 1503 260.075)"/><path d="M283.023 415.457C285.09 411.493 281.861 406.916 277.44 407.586 274.021 408.103 270.545 408.408 267.13 408.935 248.581 411.798 247.969 420.63 243.334 427.357 237.16 436.323 234.594 433.36 225.817 451.042 223.05 456.62 221.963 460.975 227.631 466.488 233.253 471.958 246.875 475.729 248.89 468.124 257.104 437.085 276.035 428.839 283.023 415.457Z" fill="#F06292" transform="matrix(1.00041 0 0 1 1503 260.075)"/><path d="M351.234 367.139C304.396 396.22 303.026 392.496 263.951 459.178 262.241 462.093 260.496 465.23 260.657 468.602 260.961 475.084 273.676 494.286 283.365 481.45 285.101 479.152 286.172 476.438 287.311 473.797 303.496 436.296 336.42 408.377 355.045 372.025 357.125 367.965 355.58 364.441 351.234 367.139Z" fill="#F06292" transform="matrix(1.00041 0 0 1 1503 260.075)"/><path d="M339.36 418.464C337.65 419.395 336.332 420.888 335.053 422.349 329.958 428.18 324.858 434.01 319.764 439.839 311.241 449.59 302.378 460.032 300.198 472.793 299.754 475.395 299.65 478.25 301.068 480.473 303.549 484.371 309.587 484.337 313.425 481.761 317.441 479.067 319.733 474.516 321.856 470.166 325.725 462.234 329.589 454.307 333.456 446.371 337.89 437.273 342.354 428.102 344.925 418.313 343.276 417.277 341.07 417.538 339.36 418.465Z" fill="#F06292" transform="matrix(1.00041 0 0 1 1503 260.075)"/><path d="M277.888 395.363C299.96 393.684 301.583 386.005 310.171 377.538 319.578 368.266 332.827 364.368 345.001 359.246 355.438 354.857 354.825 347.56 348.934 343.544 341.399 338.406 308.909 338.445 300.025 345.441 288.47 354.534 297.506 360.577 275.774 371.963 262.317 379.016 259.041 396.789 277.889 395.362Z" fill="#F06292" transform="matrix(1.00041 0 0 1 1503 260.075)"/><path d="M629.066 90.5941C605.219 99.0826 582.637 109.833 561.949 121.847 520.215 145.872 487.61 177.216 462.766 205.671 437.744 234.396 422.477 262.216 412.361 281.546 409.146 287.972 406.619 293.481 404.608 298.105 396.185 280.163 383.42 280.154 374.992 298.105 361.669 267.449 340.62 232.972 316.838 205.671 291.998 177.216 259.389 145.872 217.655 121.847 196.971 109.834 174.389 99.0825 150.538 90.5941 144.499 88.423 137.633 86.2563 129.501 85.534 99.6808 82.8539 82.9511 110.873 88.4033 139.824 91.3837 154.909 98.6105 167.282 105.293 178.034 112.159 188.963 118.211 198.448 123.45 208.925 134.109 229.7 141.515 251.65 145.852 273.509 146.844 279.199 147.84 284.891 148.924 290.49 154.498 317.975 168.16 325.676 193.455 328.246 194.176 328.338 194.899 328.425 195.621 328.516 173.771 340.864 154.74 353.981 148.018 378.286 145.491 386.688 144.407 395.45 144.407 404.208 143.773 439.885 161.211 476.381 188.038 502.216 201.861 514.951 217.668 525.159 235.01 532.115 243.773 535.457 253.076 537.99 262.922 538.351 272.677 538.712 282.706 536.362 291.194 532.029 299.682 527.603 306.548 521.552 312.331 515.317 318.114 509.082 322.899 502.399 327.146 495.894 335.548 482.798 342.683 470.511 349.548 459.129 363.023 436.404 379.083 404.063 380.384 401.253 380.34 414.519 381.536 485.843 389.817 485.843 398.209 485.843 399.284 413.266 399.249 401.253 412.606 430.178 438.786 474.531 452.487 495.894 476.639 532.898 503.244 547.899 544.621 532.115 602.314 508.978 636.099 453.648 635.22 404.204 635.22 357.24 609.654 345.806 584.006 328.507 618.644 324.17 625.879 318.748 633.776 273.499 638.109 251.64 645.52 229.69 656.179 208.915 669.501 182.274 686.165 165.432 691.225 139.814 697.407 106.917 677.264 73.3199 629.068 90.5886ZM168.889 269.174C164.826 245.148 157.238 220.848 146.125 197.724 135.374 174.06 117.944 153.824 114.96 134.767 112.402 124.53 115.086 110.624 127.878 111.19 132.033 111.368 137.093 112.634 142.511 114.531 165 121.849 186.32 131.421 206.19 142.351 245.845 164.032 279.99 190.045 305.734 216.06 331.421 241.839 354.395 269.576 373.83 300.772 370.746 308.39 368.657 318.193 368.017 329.101 362.413 328.021 354.455 328.213 344.661 327.891 322.893 327.983 292.089 324.458 255.416 318.95 237.807 316.47 208.639 310.949 196.253 308.652 169.608 303.596 174.186 297.984 168.89 269.177ZM380.416 395.103C354.85 433.908 366.379 416.209 340.966 453.709 333.557 464.546 325.251 476.381 316.305 488.215 307.451 499.867 296.975 511.519 284.148 518.023 271.412 524.528 256.054 522.809 241.243 516.487 226.428 510.165 212.341 500.681 200.506 489.116 176.028 466.805 160.222 434.922 160.039 404.209 159.769 388.673 162.567 374.401 170.429 363.559 179.905 350.115 196.729 339.39 211.618 330.227 260.156 334.991 293.475 338.524 344.943 333.207 354.95 331.893 362.529 330.519 367.92 330.736 367.842 332.498 367.798 334.287 367.798 336.097 367.798 356.885 373.085 374.754 380.676 382.868 380.554 386.858 380.463 390.917 380.415 395.103ZM609.195 363.564C617.054 374.402 619.855 388.677 619.585 404.214 619.302 452.373 581.667 498.015 538.381 516.487 487.358 538.268 466.795 497.692 399.208 395.103 399.16 390.913 399.065 386.854 398.952 382.873 406.544 374.754 411.83 356.89 411.83 336.101 411.83 334.291 411.787 332.502 411.708 330.74 435.32 329.797 439.667 342.828 568.011 330.231 571.535 332.399 575.238 334.748 578.941 337.185 589.778 344.325 601.43 352.543 609.201 363.565ZM664.656 134.762C660.18 163.399 623.849 191.606 610.731 269.167 603.996 305.81 615.104 304.827 543.889 315.778 451.902 331.724 425.767 326.373 411.6 329.096 410.965 318.189 408.872 308.386 405.787 300.767 408.589 296.269 412.243 290.665 416.886 284.165 428.811 266.191 448.051 241.983 473.882 216.056 516.573 172.914 578.922 133.455 637.102 114.525 662.138 105.766 668.668 118.697 664.652 134.761Z" fill="#F06292" transform="matrix(1.00041 0 0 1 1503 260.075)"/><path d="M571.047 200.867C544.955 203.517 547.709 215.434 539.403 221.995 538.351 222.826 537.018 223.858 537.324 225.163 538.224 229.044 550.507 224.684 559.491 224.249 566.64 223.901 575.68 225.898 581.998 220.934 589.886 214.725 588.576 199.084 571.047 200.867Z" fill="#F06292" transform="matrix(1.00041 0 0 1 1503 260.075)"/><path d="M499.417 261.771C557.214 263.246 567.278 267.689 575.653 257.834 581.117 251.403 579.398 241.736 569.309 239.521 563.923 238.337 526.005 239.49 520.671 241.392 515.958 243.076 496.632 256.59 499.417 261.771Z" fill="#F06292" transform="matrix(1.00041 0 0 1 1503 260.075)"/><path d="M555.866 274.859C470.802 272.444 501.457 270.778 447.015 304.549 443.616 306.658 440.215 308.769 436.817 310.875 454.15 309.257 471.654 310.736 489.023 309.504 512.052 307.872 534.803 301.486 557.84 302.969 563.435 303.33 569.422 304.083 574.347 301.511 581.827 297.608 583.649 287.658 577.532 281.193 572.307 275.681 563.634 275.08 555.864 274.859Z" fill="#F06292" transform="matrix(1.00041 0 0 1 1503 260.075)"/><path d="M521.916 215.391C525.244 210.758 521.555 204.171 515.868 204.627 499.5 205.946 483.697 214.204 471.328 225.329 454.582 240.396 443.04 260.314 431.335 279.471 429.174 283.008 427.364 286.75 426.028 290.678 425.497 292.24 425.006 293.919 425.314 295.551 425.597 297.065 426.75 298.518 428.281 298.679 429.76 298.836 431.079 297.818 432.214 296.857 465.116 269.08 511.513 229.862 521.916 215.39Z" fill="#F06292" transform="matrix(1.00041 0 0 1 1503 260.075)"/><path d="M640.149 124.882C625.587 124.882 625.587 147.463 640.149 147.463 654.711 147.463 654.711 124.882 640.149 124.882Z" fill="#F06292" transform="matrix(1.00041 0 0 1 1503 260.075)"/><path d="M620.156 152.683C607.899 152.683 607.899 171.692 620.156 171.692 632.417 171.692 632.417 152.683 620.156 152.683Z" fill="#F06292" transform="matrix(1.00041 0 0 1 1503 260.075)"/><path d="M615.834 187.746C603.821 187.746 603.821 206.377 615.834 206.377 627.846 206.377 627.846 187.746 615.834 187.746Z" fill="#F06292" transform="matrix(1.00041 0 0 1 1503 260.075)"/><path d="M601.622 219.724C589.504 219.724 589.504 238.511 601.622 238.511 613.734 238.511 613.734 219.724 601.622 219.724Z" fill="#F06292" transform="matrix(1.00041 0 0 1 1503 260.075)"/><path d="M594.415 261.871C582.037 261.871 582.037 281.067 594.415 281.067 606.793 281.067 606.793 261.871 594.415 261.871Z" fill="#F06292" transform="matrix(1.00041 0 0 1 1503 260.075)"/><path d="M585.983 175.639C598.361 175.639 598.361 156.443 585.983 156.443 573.605 156.448 573.605 175.639 585.983 175.639Z" fill="#F06292" transform="matrix(1.00041 0 0 1 1503 260.075)"/><path d="M552.39 191.734C563.494 191.734 563.494 174.513 552.39 174.513 541.287 174.517 541.287 191.734 552.39 191.734Z" fill="#F06292" transform="matrix(1.00041 0 0 1 1503 260.075)"/><path d="M511.569 343.559C501.435 344.098 497.254 361.107 525.818 367.393 572.229 377.596 572.916 377.774 576.036 378.37 583.289 379.754 590.176 370.896 580.008 361.249 569.871 351.63 553.95 351.752 541.798 349.194 531.722 347.07 522.023 343.002 511.568 343.559Z" fill="#F06292" transform="matrix(1.00041 0 0 1 1503 260.075)"/><path d="M558.728 385.094C544.771 381.547 539.619 395.227 550.265 399.234 555.7 401.279 568.043 399.873 580.134 413.492 582.797 415.776 585.259 418.513 588.622 419.262 593.308 420.305 598.176 416.494 599.235 411.812 600.292 407.131 598.133 402.144 594.675 398.821 591.215 395.493 586.634 393.591 582.023 392.26 553.981 384.149 564.414 386.539 558.728 385.094Z" fill="#F06292" transform="matrix(1.00041 0 0 1 1503 260.075)"/><path d="M574.723 410.4 581.814 415.277C580.357 413.406 577.372 410.927 574.723 410.4Z" fill="#F06292" transform="matrix(1.00041 0 0 1 1503 260.075)"/><path d="M573.063 421.471C552.105 409.432 550.104 407.893 546.327 407.549 542.15 407.165 537.943 409.872 538.856 414.553L538.299 413.836C538.495 414.106 538.695 414.371 538.891 414.64 539.605 418.052 538.178 413.666 557.817 440.389 559.618 442.838 561.69 445.471 564.674 446.062 571.123 447.346 582.33 434.894 580.002 428.067 578.941 424.979 575.896 423.099 573.063 421.471Z" fill="#F06292" transform="matrix(1.00041 0 0 1 1503 260.075)"/><path d="M536.284 427.352C526.735 413.482 532.151 412.12 502.178 407.578 497.762 406.907 494.529 411.489 496.596 415.448 504.036 429.701 522.375 436.554 530.729 468.12 531.303 470.287 533.083 471.966 535.314 472.193 546.31 473.298 560.654 464.848 553.802 451.039 551.749 446.906 542.265 436.032 536.284 427.352Z" fill="#F06292" transform="matrix(1.00041 0 0 1 1503 260.075)"/><path d="M428.377 367.139C427.368 366.512 426.167 365.86 425.049 366.269 413.632 370.463 476.298 436.714 492.301 473.792 493.44 476.438 494.51 479.148 496.247 481.445 505.375 493.54 518.58 476.511 518.954 468.597 519.11 465.226 517.366 462.088 515.661 459.173 476.46 392.278 475.054 396.121 428.378 367.139Z" fill="#F06292" transform="matrix(1.00041 0 0 1 1503 260.075)"/><path d="M434.693 418.308C437.877 430.434 443.207 440.306 457.761 470.162 459.879 474.508 462.173 479.06 466.193 481.757 477.683 489.467 492.302 476.953 459.849 439.832 446.605 424.686 440.401 414.688 434.693 418.308Z" fill="#F06292" transform="matrix(1.00041 0 0 1 1503 260.075)"/><path d="M469.433 377.542C473.309 381.363 476.415 386.005 480.806 389.215 488.598 394.914 508.604 398.361 514.068 392.335 517.035 389.067 516.57 383.724 514.129 380.048 509.134 372.525 498.919 371.181 492.757 364.82 482.336 354.065 488.846 335.651 440.899 340.564 428.843 341.799 425.162 347.852 426.811 352.812 429.691 361.456 454.517 362.841 469.433 377.542Z" fill="#F06292" transform="matrix(1.00041 0 0 1 1503 260.075)"/><path d="M413.095 208.085C432.574 166.926 467.064 163.132 468.047 162.631 467.103 162.983 429.342 157.044 404.62 203.929 389.353 236.522 393.878 261.974 394.135 281.127 398.499 257.441 401.479 230.239 413.095 208.085Z" fill="#F06292" transform="matrix(1.00041 0 0 1 1503 260.075)"/><path d="M366.504 208.085C377.812 230.292 380.47 257.337 384.586 281.15 384.887 269.185 391.243 239.664 374.984 203.939 350.584 156.41 312.562 162.301 311.6 161.757 312.548 162.458 347.761 167.21 366.504 208.086Z" fill="#F06292" transform="matrix(1.00041 0 0 1 1503 260.075)"/><path d="M31.6571-1.89696C30.0211-1.04853 28.3157-0.408997 26.5404 0.0174871 24.774 0.44387 22.9379 0.661412 21.0236 0.661412 15.2805 0.661412 10.7294-0.939712 7.3792-4.14196 4.0247-7.34421 2.34961-11.6951 2.34961-17.1949 2.34961-22.6947 4.0247-27.0453 7.3792-30.2478 10.7294-33.4587 15.2805-35.0686 21.0236-35.0686 22.938-35.0686 24.774-34.851 26.5404-34.4247 28.3157-33.9938 30.0211-33.3543 31.6571-32.5102L31.6571-25.3748C30.0081-26.4973 28.3853-27.324 26.7842-27.8462 25.183-28.3683 23.4993-28.6293 21.7372-28.6293 18.5697-28.6293 16.0724-27.6112 14.2536-25.5837 12.4437-23.5518 11.5387-20.7542 11.5387-17.1952 11.5387-13.6319 12.4437-10.8343 14.2536-8.80677 16.0723-6.77493 18.5697-5.76113 21.7372-5.76113 23.4993-5.76113 25.1831-6.02219 26.7842-6.54428 28.3853-7.07508 30.0081-7.90181 31.6571-9.01563Z" fill="#F06292" transform="matrix(1.00041 0 0 1 1581 1025.58)"/><path d="M23.1642-18.7958C22.442-19.1439 21.724-19.3919 21.0062-19.5442 20.284-19.7051 19.566-19.7878 18.8481-19.7878 16.725-19.7878 15.089-19.109 13.9404-17.7516 12.8005-16.3941 12.2349-14.4449 12.2349-11.904L12.2349 0.000523498 3.96822 0.000523498 3.96822-25.8435 12.2349-25.8435 12.2349-21.5971C13.2878-23.2895 14.5018-24.5252 15.8722-25.304 17.2515-26.0784 18.9048-26.4701 20.8322-26.4701 21.1107-26.4701 21.4108-26.457 21.7372-26.4353 22.0592-26.4091 22.529-26.357 23.1468-26.2787Z" fill="#F06292" transform="matrix(1.00041 0 0 1 1615.69 1025.58)"/><path d="M29.7603-12.9827 29.7603-10.6332 10.4599-10.6332C10.6557-8.69274 11.3519-7.23953 12.5484-6.26493 13.7535-5.29903 15.4286-4.82041 17.5779-4.82041 19.3183-4.82041 21.0979-5.07276 22.9209-5.58617 24.7395-6.10827 26.6147-6.89146 28.5422-7.93567L28.5422-1.56593C26.593-0.834979 24.6351-0.282466 22.6773 0.0874353 20.7281 0.470313 18.7702 0.661746 16.8123 0.661746 12.1351 0.661746 8.50216-0.521693 5.91775-2.88857 3.329-5.26414 2.03674-8.60127 2.03674-12.8956 2.03674-17.1072 3.30717-20.4183 5.84814-22.8331 8.389-25.2565 11.8915-26.4704 16.3599-26.4704 20.4192-26.4704 23.6693-25.2434 26.1058-22.7982 28.5423-20.3487 29.7605-17.0768 29.7605-12.9826ZM21.2674-15.7326C21.2674-17.2988 20.8061-18.5607 19.8925-19.5265 18.9875-20.488 17.791-20.971 16.3073-20.971 14.7062-20.971 13.4052-20.5184 12.4089-19.6135 11.4082-18.7172 10.7904-17.425 10.5467-15.7324Z" fill="#F06292" transform="matrix(1.00041 0 0 1 1639.01 1025.58)"/><path d="M15.559-11.6261C13.8274-11.6261 12.5308-11.3303 11.6606-10.7385 10.7905-10.1555 10.3553-9.29835 10.3553-8.1628 10.3553-7.11859 10.7034-6.3006 11.3996-5.70893 12.1044-5.11721 13.079-4.82135 14.3233-4.82135 15.8766-4.82135 17.1819-5.37826 18.2391-6.49209 19.305-7.60591 19.8402-9.00253 19.8402-10.6863L19.8402-11.6261ZM28.1764-14.7414 28.1764-0.00100244 19.8401-0.00100244 19.8401-3.82978C18.735-2.26352 17.4906-1.11917 16.0983-0.401311 14.7147 0.303528 13.0353 0.660298 11.0514 0.660298 8.37129 0.660298 6.19576-0.114156 4.52503-1.67183 2.86298-3.23809 2.03629-5.26135 2.03629-7.74563 2.03629-10.7826 3.07181-13.0103 5.15155-14.4286 7.23997-15.8426 10.5118-16.5518 14.9671-16.5518L19.8401-16.5518 19.8401-17.1957C19.8401-18.4923 19.3224-19.445 18.2912-20.0499 17.2557-20.6633 15.6502-20.9722 13.4705-20.9722 11.7041-20.9722 10.0594-20.7895 8.52789-20.4327 7.00507-20.0846 5.59541-19.5539 4.29881-18.8489L4.29881-25.1489C6.06088-25.5754 7.83609-25.9017 9.62423-26.1235 11.4081-26.3542 13.1919-26.4716 14.9671-26.4716 19.6313-26.4716 22.9945-25.5493 25.0612-23.7044 27.1366-21.8684 28.1764-18.8837 28.1764-14.7416Z" fill="#F06292" transform="matrix(1.00041 0 0 1 1671.07 1025.58)"/><path d="M12.9827-33.1708 12.9827-25.844 21.5104-25.844 21.5104-19.9268 12.9827-19.9268 12.9827-8.97999C12.9827-7.77049 13.2177-6.9525 13.6963-6.52612 14.1836-6.10844 15.1321-5.8996 16.5504-5.8996L20.7795-5.8996 20.7795 0.000222765 13.6963 0.000222765C10.4331 0.000222765 8.12716-0.67852 6.76963-2.03596 5.4121-3.40218 4.73344-5.71682 4.73344-8.97999L4.73344-19.9268 0.626215-19.9268 0.626215-25.844 4.73344-25.844 4.73344-33.1708Z" fill="#F06292" transform="matrix(1.00041 0 0 1 1702.97 1025.58)"/><path d="M29.7603-12.9827 29.7603-10.6332 10.4599-10.6332C10.6557-8.69274 11.3519-7.23953 12.5484-6.26493 13.7535-5.29903 15.4286-4.82041 17.5779-4.82041 19.3183-4.82041 21.0979-5.07276 22.9209-5.58617 24.7395-6.10827 26.6147-6.89146 28.5422-7.93567L28.5422-1.56593C26.593-0.834979 24.6351-0.282466 22.6773 0.0874353 20.7281 0.470313 18.7702 0.661746 16.8123 0.661746 12.1351 0.661746 8.50216-0.521693 5.91775-2.88857 3.329-5.26414 2.03674-8.60127 2.03674-12.8956 2.03674-17.1072 3.30717-20.4183 5.84814-22.8331 8.389-25.2565 11.8915-26.4704 16.3599-26.4704 20.4192-26.4704 23.6693-25.2434 26.1058-22.7982 28.5423-20.3487 29.7605-17.0768 29.7605-12.9826ZM21.2674-15.7326C21.2674-17.2988 20.8061-18.5607 19.8925-19.5265 18.9875-20.488 17.791-20.971 16.3073-20.971 14.7062-20.971 13.4052-20.5184 12.4089-19.6135 11.4082-18.7172 10.7904-17.425 10.5467-15.7324Z" fill="#F06292" transform="matrix(1.00041 0 0 1 1725.57 1025.58)"/><path d="M21.5458-22.0504 21.5458-35.9042 29.8473-35.9042 29.8473-0.00111383 21.5458-0.00111383 21.5458-3.7429C20.4059-2.22008 19.1529-1.10625 17.7867-0.401423 16.4161 0.303417 14.8325 0.660186 13.0355 0.660186 9.85501 0.660186 7.2402-0.601555 5.18653-3.13372 3.14165-5.66155 2.12351-8.91604 2.12351-12.8971 2.12351-16.8738 3.14161-20.1283 5.18653-22.6604 7.2402-25.2013 9.85501-26.4718 13.0355-26.4718 14.8194-26.4718 16.3987-26.1107 17.7693-25.3928 19.1485-24.6706 20.4059-23.5567 21.5458-22.0513ZM16.0986-5.3252C17.8738-5.3252 19.2225-5.96912 20.1536-7.25702 21.0803-8.55362 21.5458-10.4332 21.5458-12.8958 21.5458-15.354 21.0803-17.2292 20.1536-18.5171 19.2225-19.8137 17.8737-20.4663 16.0986-20.4663 14.3452-20.4663 13.0051-19.8137 12.0783-18.5171 11.1473-17.2293 10.686-15.3541 10.686-12.8958 10.686-10.4332 11.1473-8.55362 12.0783-7.25702 13.005-5.96921 14.3452-5.3252 16.0986-5.3252Z" fill="#F06292" transform="matrix(1.00041 0 0 1 1757.63 1025.58)"/><path d="M17.7165-5.32542C19.4917-5.32542 20.8404-5.96935 21.7715-7.25724 22.6982-8.55384 23.1638-10.4334 23.1638-12.896 23.1638-15.3542 22.6982-17.2294 21.7715-18.5173 20.8404-19.8139 19.4916-20.4665 17.7165-20.4665 15.9501-20.4665 14.5926-19.8139 13.6441-18.5173 12.7043-17.2164 12.2345-15.3412 12.2345-12.896 12.2345-10.4465 12.7044-8.57122 13.6441-7.27461 14.5927-5.97367 15.9501-5.32542 17.7165-5.32542ZM12.2344-22.0506C13.3699-23.5561 14.6273-24.6699 16.0109-25.3921 17.3902-26.11 18.9782-26.4711 20.7794-26.4711 23.9686-26.4711 26.5834-25.2007 28.6284-22.6597 30.669-20.1276 31.6914-16.8731 31.6914-12.8964 31.6914-8.91533 30.669-5.66085 28.6284-3.13302 26.5836-0.600853 23.9686 0.660888 20.7794 0.660888 18.9781 0.660888 17.39 0.304119 16.0109-0.400721 14.6273-1.11861 13.3699-2.23241 12.2344-3.7422L12.2344-0.000412115 3.96767-0.000412115 3.96767-35.9035 12.2344-35.9035Z" fill="#F06292" transform="matrix(1.00041 0 0 1 1807.92 1025.58)"/><path d="M0.57431-25.8441 8.84101-25.8441 15.785-8.30134 21.6848-25.8441 29.9515-25.8441 19.0744 2.45376C17.9823 5.31662 16.7118 7.32674 15.263 8.47532 13.8098 9.62389 11.8911 10.1983 9.5024 10.1983L4.73389 10.1983 4.73389 4.7684 7.30961 4.7684C8.71058 4.7684 9.73307 4.5465 10.3726 4.10706 11.0079 3.66327 11.5038 2.8627 11.8519 1.70543L12.0956 0.991895Z" fill="#F06292" transform="matrix(1.00041 0 0 1 1841.76 1025.58)"/><path d="M4.33345-34.4417 19.0738-34.4417C23.4595-34.4417 26.8227-33.4671 29.1678-31.5179 31.5087-29.5774 32.6833-26.8102 32.6833-23.2165 32.6833-19.5965 31.5086-16.812 29.1678-14.8628 26.8227-12.9223 23.4595-11.9564 19.0738-11.9564L13.2262-11.9564 13.2262-0.000556913 4.333-0.000556913ZM13.2267-28.0025 13.2267-18.3957 18.1344-18.3957C19.8487-18.3957 21.1801-18.8134 22.1198-19.6488 23.0595-20.4841 23.5294-21.6719 23.5294-23.2165 23.5294-24.748 23.0595-25.9227 22.1198-26.7494 21.1801-27.5848 19.8486-28.0025 18.1344-28.0025Z" fill="#F06292" transform="matrix(1.00041 0 0 1 1889.03 1025.58)"/><path d="M23.1642-18.7958C22.442-19.1439 21.724-19.3919 21.0062-19.5442 20.284-19.7051 19.566-19.7878 18.8481-19.7878 16.725-19.7878 15.089-19.109 13.9404-17.7516 12.8005-16.3941 12.2349-14.4449 12.2349-11.904L12.2349 0.000523498 3.96822 0.000523498 3.96822-25.8435 12.2349-25.8435 12.2349-21.5971C13.2878-23.2895 14.5018-24.5252 15.8722-25.304 17.2515-26.0784 18.9048-26.4701 20.8322-26.4701 21.1107-26.4701 21.4108-26.457 21.7372-26.4353 22.0592-26.4091 22.529-26.357 23.1468-26.2787Z" fill="#F06292" transform="matrix(1.00041 0 0 1 1923.68 1025.58)"/><path d="M16.2719-20.5534C14.4358-20.5534 13.0392-19.892 12.0777-18.5695 11.1118-17.2555 10.6331-15.3672 10.6331-12.8959 10.6331-10.4245 11.1117-8.52756 12.0777-7.20489 13.0392-5.89091 14.4358-5.23832 16.2719-5.23832 18.0688-5.23832 19.4437-5.89095 20.3965-7.20489 21.345-8.52756 21.8235-10.4245 21.8235-12.8959 21.8235-15.3672 21.3449-17.2555 20.3965-18.5695 19.4436-19.8921 18.0688-20.5534 16.2719-20.5534ZM16.2719-26.4706C20.7141-26.4706 24.1818-25.2698 26.6792-22.8681 29.1853-20.4664 30.4384-17.1423 30.4384-12.8959 30.4384-8.64941 29.1853-5.32531 26.6792-2.92368 24.1818-0.530738 20.7141 0.661501 16.2719 0.661501 11.8035 0.661501 8.3098-0.530626 5.79501-2.92368 3.2889-5.32531 2.03585-8.64941 2.03585-12.8959 2.03585-17.1423 3.2889-20.4664 5.79501-22.8681 8.3098-25.2697 11.8035-26.4706 16.2719-26.4706Z" fill="#F06292" transform="matrix(1.00041 0 0 1 1946.99 1025.58)"/><path d="M28.3157-33.3624 28.3157-26.0703C26.423-26.9144 24.5739-27.5539 22.7639-27.9847 20.9626-28.4111 19.2658-28.6286 17.6647-28.6286 15.5502-28.6286 13.9839-28.3328 12.9657-27.741 11.9564-27.1581 11.4516-26.2531 11.4516-25.0261 11.4516-24.1081 11.791-23.3901 12.4784-22.8681 13.1615-22.3547 14.4015-21.9153 16.2028-21.5454L19.9793-20.7796C23.8081-20.0139 26.5274-18.8478 28.1416-17.2816 29.7644-15.7153 30.5781-13.4788 30.5781-10.5813 30.5781-6.78736 29.4469-3.95925 27.1843-2.10573 24.9306-0.261014 21.4934 0.661456 16.8641 0.661456 14.68 0.661456 12.4871 0.452614 10.2856 0.0349296 8.0927-0.369701 5.89122-0.978829 3.68963-1.79241L3.68963-9.29336C5.89122-8.1186 8.02308-7.23968 10.0768-6.64802 12.1304-6.05636 14.1057-5.76044 16.0113-5.76044 17.9475-5.76044 19.4311-6.0824 20.4666-6.73503 21.4978-7.38331 22.0155-8.30575 22.0155-9.50222 22.0155-10.5812 21.6588-11.4079 20.9539-11.991 20.2578-12.5827 18.8655-13.1092 16.7771-13.5747L13.3311-14.323C9.88515-15.0627 7.36601-16.2418 5.77803-17.856 4.1856-19.4658 3.39378-21.6412 3.39378-24.3823 3.39378-27.8151 4.49891-30.4561 6.71788-32.3009 8.9325-34.1456 12.1174-35.0681 16.2724-35.0681 18.1607-35.0681 20.1055-34.9202 22.1026-34.6331 24.0954-34.3546 26.1663-33.9282 28.3157-33.3626Z" fill="#F06292" transform="matrix(1.00041 0 0 1 1979.47 1025.58)"/><path d="M0.57431-25.8441 8.84101-25.8441 15.785-8.30134 21.6848-25.8441 29.9515-25.8441 19.0744 2.45376C17.9823 5.31662 16.7118 7.32674 15.263 8.47532 13.8098 9.62389 11.8911 10.1983 9.5024 10.1983L4.73389 10.1983 4.73389 4.7684 7.30961 4.7684C8.71058 4.7684 9.73307 4.5465 10.3726 4.10706 11.0079 3.66327 11.5038 2.8627 11.8519 1.70543L12.0956 0.991895Z" fill="#F06292" transform="matrix(1.00041 0 0 1 2013.52 1025.58)"/><path d="M27.9147-21.5458C28.9589-23.147 30.1989-24.3651 31.6391-25.2005 33.0749-26.0446 34.6586-26.4709 36.3902-26.4709 39.3488-26.4709 41.6026-25.5529 43.1602-23.7211 44.7134-21.8851 45.4923-19.2223 45.4923-15.7329L45.4923-0.000111383 37.1908-0.000111383 37.1908-13.4707C37.1995-13.6665 37.2126-13.8754 37.2257-14.0972 37.2344-14.3148 37.2431-14.6237 37.2431-15.0196 37.2431-16.8513 36.969-18.1783 36.4251-19.005 35.8899-19.8273 35.0198-20.2407 33.8145-20.2407 32.2482-20.2407 31.0343-19.5881 30.1772-18.2915 29.3288-17.0037 28.8894-15.1328 28.8545-12.6876L28.8545-2.22765e-05 20.5531-2.22765e-05 20.5531-13.4706C20.5531-16.3335 20.3007-18.1783 19.8047-19.005 19.3174-19.8273 18.4472-20.2407 17.1941-20.2407 15.6017-20.2407 14.3791-19.5881 13.5219-18.2915 12.6605-16.9905 12.2341-15.1284 12.2341-12.705L12.2341-0.000690572 3.91523-0.000690572 3.91523-25.8448 12.2341-25.8448 12.2341-22.0508C13.2436-23.5127 14.4009-24.6135 15.7148-25.3576 17.0375-26.0973 18.4864-26.4714 20.0657-26.4714 21.8496-26.4714 23.4289-26.0363 24.7994-25.1661 26.1656-24.3047 27.2055-23.0994 27.9147-21.5462Z" fill="#F06292" transform="matrix(1.00041 0 0 1 2044.33 1025.58)"/><path d="M17.7165-5.32542C19.4917-5.32542 20.8404-5.96935 21.7715-7.25724 22.6982-8.55384 23.1638-10.4334 23.1638-12.896 23.1638-15.3542 22.6982-17.2294 21.7715-18.5173 20.8404-19.8139 19.4916-20.4665 17.7165-20.4665 15.9501-20.4665 14.5926-19.8139 13.6441-18.5173 12.7043-17.2164 12.2345-15.3412 12.2345-12.896 12.2345-10.4465 12.7044-8.57122 13.6441-7.27461 14.5927-5.97367 15.9501-5.32542 17.7165-5.32542ZM12.2344-22.0506C13.3699-23.5561 14.6273-24.6699 16.0109-25.3921 17.3902-26.11 18.9782-26.4711 20.7794-26.4711 23.9686-26.4711 26.5834-25.2007 28.6284-22.6597 30.669-20.1276 31.6914-16.8731 31.6914-12.8964 31.6914-8.91533 30.669-5.66085 28.6284-3.13302 26.5836-0.600853 23.9686 0.660888 20.7794 0.660888 18.9781 0.660888 17.39 0.304119 16.0109-0.400721 14.6273-1.11861 13.3699-2.23241 12.2344-3.7422L12.2344-0.000412115 3.96767-0.000412115 3.96767-35.9035 12.2344-35.9035Z" fill="#F06292" transform="matrix(1.00041 0 0 1 2093.59 1025.58)"/><path d="M16.2719-20.5534C14.4358-20.5534 13.0392-19.892 12.0777-18.5695 11.1118-17.2555 10.6331-15.3672 10.6331-12.8959 10.6331-10.4245 11.1117-8.52756 12.0777-7.20489 13.0392-5.89091 14.4358-5.23832 16.2719-5.23832 18.0688-5.23832 19.4437-5.89095 20.3965-7.20489 21.345-8.52756 21.8235-10.4245 21.8235-12.8959 21.8235-15.3672 21.3449-17.2555 20.3965-18.5695 19.4436-19.8921 18.0688-20.5534 16.2719-20.5534ZM16.2719-26.4706C20.7141-26.4706 24.1818-25.2698 26.6792-22.8681 29.1853-20.4664 30.4384-17.1423 30.4384-12.8959 30.4384-8.64941 29.1853-5.32531 26.6792-2.92368 24.1818-0.530738 20.7141 0.661501 16.2719 0.661501 11.8035 0.661501 8.3098-0.530626 5.79501-2.92368 3.2889-5.32531 2.03585-8.64941 2.03585-12.8959 2.03585-17.1423 3.2889-20.4664 5.79501-22.8681 8.3098-25.2697 11.8035-26.4706 16.2719-26.4706Z" fill="#F06292" transform="matrix(1.00041 0 0 1 2127.43 1025.58)"/><path d="M3.968-35.903 12.2347-35.903 12.2347 0 3.968 0Z" fill="#F06292" transform="matrix(1.00041 0 0 1 2159.91 1025.58)"/><path d="M24.1566-25.0265 24.1566-18.7613C22.3902-19.4922 20.6846-20.0404 19.0399-20.4146 17.3909-20.7844 15.8377-20.9715 14.3758-20.9715 12.8095-20.9715 11.6435-20.7714 10.8777-20.3798 10.112-19.9839 9.72915-19.3791 9.72915-18.5698 9.72915-17.9085 10.0163-17.3951 10.5993-17.0383 11.178-16.6902 12.2091-16.4336 13.697-16.2725L15.1589-16.0637C19.3925-15.5156 22.2336-14.6279 23.6867-13.4011 25.1486-12.1698 25.8795-10.238 25.8795-7.6057 25.8795-4.85589 24.8615-2.7893 22.834-1.41005 20.8021-0.0264533 17.7738 0.660999 13.7493 0.660999 12.0439 0.660999 10.2773 0.526126 8.45867 0.260713 6.63567-0.0046892 4.76043-0.404976 2.8373-0.940102L2.8373-7.22274C4.48198-6.42218 6.17009-5.81743 7.90175-5.41278 9.62907-5.01685 11.3869-4.82106 13.1751-4.82106 14.7848-4.82106 15.9988-5.0386 16.8123-5.48239 17.6346-5.93488 18.048-6.60056 18.048-7.48382 18.048-8.21477 17.7608-8.7586 17.1952-9.11981 16.6383-9.47658 15.5158-9.76373 13.8364-9.97258L12.3919-10.1466C8.71104-10.6078 6.13532-11.4606 4.66473-12.705 3.18981-13.958 2.45446-15.855 2.45446-18.3959 2.45446-21.1326 3.38555-23.1644 5.2564-24.4872 7.13598-25.8099 10.0119-26.4712 13.8885-26.4712 15.407-26.4712 17.0038-26.3537 18.6745-26.1231 20.3539-25.8882 22.1813-25.5226 24.1566-25.0266Z" fill="#F06292" transform="matrix(1.00041 0 0 1 2176.11 1025.58)"/><path d="M20.9711-35.903 20.9711-30.4731 16.4113-30.4731C15.2366-30.4731 14.4186-30.2556 13.9575-29.8292 13.4919-29.4116 13.2613-28.6807 13.2613-27.6363L13.2613-25.8437 20.3272-25.8437 20.3272-19.9266 13.2613-19.9266 13.2613 0.000913337 5.0121 0.000913337 5.0121-19.9266 0.904871-19.9266 0.904871-25.8437 5.0121-25.8437 5.0121-27.6363C5.0121-30.4557 5.79525-32.5354 7.3616-33.8842 8.92787-35.2286 11.3557-35.903 14.6537-35.903Z" fill="#F06292" transform="matrix(1.00041 0 0 1 1581 1072.83)"/><path d="M12.9827-33.1708 12.9827-25.844 21.5104-25.844 21.5104-19.9268 12.9827-19.9268 12.9827-8.97999C12.9827-7.77049 13.2177-6.9525 13.6963-6.52612 14.1836-6.10844 15.1321-5.8996 16.5504-5.8996L20.7795-5.8996 20.7795 0.000222765 13.6963 0.000222765C10.4331 0.000222765 8.12716-0.67852 6.76963-2.03596 5.4121-3.40218 4.73344-5.71682 4.73344-8.97999L4.73344-19.9268 0.626215-19.9268 0.626215-25.844 4.73344-25.844 4.73344-33.1708Z" fill="#F06292" transform="matrix(1.00041 0 0 1 1723.07 1072.83)"/><path d="M29.9519-15.7328 29.9519 0 21.6329 0 21.6329-11.9914C21.6329-14.2538 21.5807-15.8072 21.4763-16.6556 21.3805-17.4996 21.2152-18.1262 20.9717-18.5352 20.6453-19.066 20.2059-19.4837 19.649-19.7882 19.1008-20.0884 18.4742-20.2408 17.7694-20.2408 16.0377-20.2408 14.6803-19.5707 13.697-18.2393 12.7224-16.9036 12.2351-15.0587 12.2351-12.705L12.2351-0.000612604 3.9684-0.000612604 3.9684-35.9037 12.2351-35.9037 12.2351-22.0499C13.4752-23.5553 14.7935-24.6691 16.1858-25.3914 17.5867-26.1093 19.1356-26.4704 20.8325-26.4704 23.8129-26.4704 26.0753-25.5524 27.62-23.7206 29.1732-21.8845 29.9521-19.2217 29.9521-15.7323Z" fill="#F06292" transform="matrix(1.00041 0 0 1 1745.67 1072.83)"/><path d="M4.33345-34.4417 14.2534-34.4417 26.7839-10.8253 26.7839-34.4417 35.2072-34.4417 35.2072 0 25.2873 0 12.7568-23.6343 12.7568 0 4.33345 0Z" fill="#F06292" transform="matrix(1.00041 0 0 1 1827.84 1072.83)"/><path d="M4.33345-34.4417 19.0738-34.4417C23.4595-34.4417 26.8227-33.4671 29.1678-31.5179 31.5087-29.5774 32.6833-26.8102 32.6833-23.2165 32.6833-19.5965 31.5086-16.812 29.1678-14.8628 26.8227-12.9223 23.4595-11.9564 19.0738-11.9564L13.2262-11.9564 13.2262-0.000556913 4.333-0.000556913ZM13.2267-28.0025 13.2267-18.3957 18.1344-18.3957C19.8487-18.3957 21.1801-18.8134 22.1198-19.6488 23.0595-20.4841 23.5294-21.6719 23.5294-23.2165 23.5294-24.748 23.0595-25.9227 22.1198-26.7494 21.1801-27.5848 19.8486-28.0025 18.1344-28.0025Z" fill="#F06292" transform="matrix(1.00041 0 0 1 1983.65 1072.83)"/><path d="M3.968-25.8441 12.2347-25.8441 12.2347-0.470034C12.2347 2.99764 11.3993 5.64297 9.72859 7.46597 8.06654 9.28462 5.66057 10.1983 2.50611 10.1983L-1.56626 10.1983-1.56626 4.7684-0.139228 4.7684C1.42703 4.7684 2.49742 4.41163 3.08039 3.70679 3.67211 2.99759 3.96798 1.60533 3.96798-0.470056ZM3.968-35.9033 12.2347-35.9033 12.2347-29.1681 3.968-29.1681Z" fill="#F06292" transform="matrix(1.00041 0 0 1 2074.08 1072.83)"/><path d="M12.9827-33.1708 12.9827-25.844 21.5104-25.844 21.5104-19.9268 12.9827-19.9268 12.9827-8.97999C12.9827-7.77049 13.2177-6.9525 13.6963-6.52612 14.1836-6.10844 15.1321-5.8996 16.5504-5.8996L20.7795-5.8996 20.7795 0.000222765 13.6963 0.000222765C10.4331 0.000222765 8.12716-0.67852 6.76963-2.03596 5.4121-3.40218 4.73344-5.71682 4.73344-8.97999L4.73344-19.9268 0.626215-19.9268 0.626215-25.844 4.73344-25.844 4.73344-33.1708Z" fill="#F06292" transform="matrix(1.00041 0 0 1 2150.37 1072.83)"/></g></g></g></g></svg>