<svg width="1177" height="216" xmlns="http://www.w3.org/2000/svg" xmlns:xlink="http://www.w3.org/1999/xlink" xml:space="preserve" overflow="hidden"><defs><clipPath id="clip0"><rect x="37" y="184" width="1177" height="216"/></clipPath><clipPath id="clip1"><rect x="1048" y="185" width="184" height="150"/></clipPath><clipPath id="clip2"><rect x="1048" y="185" width="184" height="150"/></clipPath><clipPath id="clip3"><rect x="1048" y="185" width="184" height="185"/></clipPath><clipPath id="clip4"><rect x="23" y="250" width="148" height="121"/></clipPath><clipPath id="clip5"><rect x="23" y="250" width="148" height="121"/></clipPath><clipPath id="clip6"><rect x="23" y="250" width="148" height="149"/></clipPath></defs><g clip-path="url(#clip0)" transform="translate(-37 -184)"><text fill="#FFFFFF" font-family="Noto Sans KR Medium,Noto Sans KR Medium_MSFontService,sans-serif" font-weight="700" font-size="367" transform="matrix(0.473549 0 0 0.475305 56.08 354)">♡<tspan font-family="Migra Extrabold,Migra Extrabold_MSFontService,sans-serif" font-weight="800" font-size="367" x="376.406" y="0">CollageIt</tspan><tspan font-size="367" x="1872.29" y="0">♡</tspan></text><g clip-path="url(#clip1)"><g clip-path="url(#clip2)"><g clip-path="url(#clip3)"><path d="M91.3951 0C88.099 26.9015 87.0096 43.9818 80.5704 55.0095 70.0436 68.7145 51.7991 70.0199 18.2782 73.1171 51.2535 77.1071 69.0835 77.9715 79.6406 90.527 87.5288 101.641 88.8626 118.836 91.3947 146.234 95.694 110.699 96.3685 92.7545 111.948 82.5441 123.027 77.1933 139.558 76.0253 164.511 73.118 133.57 69.3274 115.617 68.4554 104.929 59.0028 95.8929 48.2292 94.9286 30.3387 91.3942 0.000783386Z" fill="#FFFFFF" transform="matrix(1 0 0 1.0035 1048.33 185.918)"/><path d="M0.954737-0.057122C0.905776-0.032641 0.853756-0.0132601 0.799693 0 0.747673 0.0132603 0.69361 0.0204006 0.636488 0.0204006 0.462061 0.0204006 0.323342-0.0265215 0.220301-0.122405 0.119317-0.220328 0.0693374-0.351912 0.0693374-0.518171 0.0693374-0.686477 0.11932-0.818052 0.220301-0.913937 0.323324-1.01186 0.462049-1.06083 0.636488-1.06083 0.69361-1.06083 0.747673-1.05368 0.799693-1.04042 0.853756-1.02614 0.905776-1.00778 0.954737-0.983298L0.954737-0.767054C0.905776-0.799693 0.856815-0.824176 0.807854-0.840498 0.76093-0.856815 0.710951-0.864976 0.656888-0.864976 0.561008-0.864976 0.485523-0.833355 0.428402-0.771132 0.37332-0.710951 0.346799-0.626286 0.346799-0.518166 0.346799-0.412081 0.37332-0.327418 0.428402-0.265197 0.485523-0.205014 0.561008-0.175434 0.656888-0.175434 0.710951-0.175434 0.760935-0.181554 0.807854-0.195835 0.856815-0.212155 0.905776-0.237657 0.954737-0.273357Z" fill="#FFFFFF" transform="matrix(1 0 0 1.0035 1066.61 336.96)"/><path d="M0.701781-0.567146C0.679339-0.577344 0.657921-0.585505 0.636503-0.591624 0.614061-0.596726 0.592638-0.599785 0.57122-0.599785 0.505937-0.599785 0.454935-0.577344 0.420255-0.534502 0.387614-0.493702 0.371293-0.434541 0.371293-0.359057L0.371293-5.22259e-06 0.118325-5.22259e-06 0.118325-0.779317 0.371293-0.779317 0.371293-0.652829C0.400874-0.703832 0.436575-0.740554 0.477376-0.762995 0.520217-0.787478 0.57122-0.799717 0.628342-0.799717L0.656903-0.799717C0.6671-0.799717 0.681386-0.797676 0.697703-0.795639Z" fill="#FFFFFF" transform="matrix(1 0 0 1.0035 1067.66 336.96)"/><path d="M0.89763-0.391693 0.89763-0.322332 0.314164-0.322332C0.322324-0.26215 0.343744-0.217269 0.379446-0.187689 0.414126-0.160148 0.465127-0.146887 0.53041-0.146887 0.584472-0.146887 0.63853-0.153008 0.693615-0.167288 0.747677-0.183608 0.803781-0.208089 0.860898-0.24073L0.860898-0.0489629C0.803776-0.0244821 0.744618-0.00612214 0.685449 0.00407752 0.625268 0.0142777 0.567127 0.020398 0.510005 0.020398 0.36822 0.020398 0.258058-0.0142824 0.179521-0.0856853 0.0999573-0.159128 0.0611982-0.261134 0.0611982-0.391703 0.0611982-0.516149 0.0989389-0.616112 0.175442-0.689546 0.253984-0.76299 0.360067-0.799712 0.493707-0.799712 0.616107-0.799712 0.714034-0.76299 0.787473-0.689546 0.860917-0.616103 0.897639-0.516139 0.897639-0.391703ZM0.644659-0.477376C0.644659-0.523277 0.62936-0.559999 0.599776-0.587537 0.572238-0.617121 0.536534-0.63242 0.493693-0.63242 0.444733-0.63242 0.404953-0.618139 0.375372-0.59162 0.34477-0.564077 0.32641-0.526337 0.31825-0.477376Z" fill="#FFFFFF" transform="matrix(1 0 0 1.0035 1068.36 336.96)"/><path d="M0.469221-0.350904C0.4172-0.350904 0.377419-0.340705 0.350899-0.322342 0.326418-0.306022 0.314179-0.279501 0.314179-0.244818 0.314179-0.214217 0.323361-0.189736 0.342741-0.171376 0.364162-0.155055 0.393742-0.146895 0.432504-0.146895 0.478404-0.146895 0.518185-0.163216 0.550829-0.195857 0.583468-0.228498 0.59979-0.27032 0.59979-0.322342L0.59979-0.350904ZM0.852766-0.444749 0.852766-2.08903e-05 0.5998-2.08903e-05 0.5998-0.114265C0.567156-0.0673423 0.528397-0.033683 0.485556-0.0122626 0.444754 0.00915803 0.393753 0.0203785 0.334592 0.0203785 0.252989 0.0203785 0.185668-0.00206239 0.134667-0.0489823 0.0857047-0.0979438 0.0612242-0.159147 0.0612242-0.232587 0.0612242-0.324389 0.0918257-0.392732 0.155069-0.436594 0.21729-0.479436 0.316235-0.501878 0.452911-0.501878L0.599795-0.501878 0.599795-0.518195C0.599795-0.559 0.583478-0.587556 0.550834-0.603878 0.520231-0.622236 0.473311-0.632439 0.408029-0.632439 0.352947-0.632439 0.302966-0.626319 0.257065-0.616122 0.210143-0.604901 0.168323-0.589597 0.13058-0.571239L0.13058-0.758922C0.181581-0.772184 0.234624-0.781363 0.289706-0.787483 0.343768-0.795644 0.397829-0.799726 0.452911-0.799726 0.593675-0.799726 0.69568-0.771165 0.758926-0.714044 0.82115-0.658958 0.85277-0.569197 0.85277-0.444769Z" fill="#FFFFFF" transform="matrix(1 0 0 1.0035 1069.33 336.96)"/><path d="M0.391693-1.00373 0.391693-0.779317 0.648742-0.779317 0.648742-0.603868 0.391693-0.603868 0.391693-0.269312C0.391693-0.233611 0.397813-0.20913 0.412092-0.19587 0.428412-0.184649 0.457996-0.179549 0.501859-0.179549L0.628342-0.179549 0.628342-2.35016e-05 0.416176-2.35016e-05C0.31519-2.35016e-05 0.244809-0.0204241 0.204008-0.0612266 0.163206-0.10203 0.142804-0.171391 0.142804-0.269315L0.142804-0.603873 0.0204006-0.603873 0.0204006-0.779322 0.142804-0.779322 0.142804-1.00373Z" fill="#FFFFFF" transform="matrix(1 0 0 1.0035 1070.29 336.96)"/><path d="M0.89763-0.391693 0.89763-0.322332 0.314164-0.322332C0.322324-0.26215 0.343744-0.217269 0.379446-0.187689 0.414126-0.160148 0.465127-0.146887 0.53041-0.146887 0.584472-0.146887 0.63853-0.153008 0.693615-0.167288 0.747677-0.183608 0.803781-0.208089 0.860898-0.24073L0.860898-0.0489629C0.803776-0.0244821 0.744618-0.00612214 0.685449 0.00407752 0.625268 0.0142777 0.567127 0.020398 0.510005 0.020398 0.36822 0.020398 0.258058-0.0142824 0.179521-0.0856853 0.0999573-0.159128 0.0611982-0.261134 0.0611982-0.391703 0.0611982-0.516149 0.0989389-0.616112 0.175442-0.689546 0.253984-0.76299 0.360067-0.799712 0.493707-0.799712 0.616107-0.799712 0.714034-0.76299 0.787473-0.689546 0.860917-0.616103 0.897639-0.516139 0.897639-0.391703ZM0.644659-0.477376C0.644659-0.523277 0.62936-0.559999 0.599776-0.587537 0.572238-0.617121 0.536534-0.63242 0.493693-0.63242 0.444733-0.63242 0.404953-0.618139 0.375372-0.59162 0.34477-0.564077 0.32641-0.526337 0.31825-0.477376Z" fill="#FFFFFF" transform="matrix(1 0 0 1.0035 1070.98 336.96)"/><path d="M0.65282-0.665068 0.65282-1.08533 0.901708-1.08533 0.901708-2.61128e-05 0.65282-2.61128e-05 0.65282-0.11427C0.617121-0.0673476 0.579381-0.0336882 0.538576-0.0122678 0.497776 0.00915282 0.449835 0.0203732 0.395771 0.0203732 0.297848 0.0203732 0.217267-0.0173676 0.155043-0.0938704 0.0948599-0.169352 0.0652796-0.269317 0.0652796-0.391714 0.0652796-0.511057 0.0948599-0.608979 0.155043-0.685483 0.217264-0.760963 0.297848-0.799726 0.395771-0.799726 0.446772-0.799726 0.493693-0.788506 0.534498-0.767087 0.577334-0.744646 0.617121-0.710984 0.65282-0.665083ZM0.485537-0.159132C0.539599-0.159132 0.580399-0.177493 0.607942-0.216254 0.637521-0.257055 0.652825-0.315198 0.652825-0.3917 0.652825-0.465143 0.637526-0.520227 0.607942-0.558985 0.580399-0.599785 0.539599-0.620185 0.485537-0.620185 0.433515-0.620185 0.392714-0.59979 0.363133-0.558985 0.335592-0.520222 0.322332-0.46514 0.322332-0.3917 0.322332-0.315198 0.335592-0.257057 0.363133-0.216254 0.392714-0.177492 0.433515-0.159132 0.485537-0.159132Z" fill="#FFFFFF" transform="matrix(1 0 0 1.0035 1071.95 336.96)"/><path d="M0.534502-0.159126C0.588565-0.159126 0.629365-0.177487 0.656907-0.216248 0.686487-0.257049 0.70179-0.315192 0.70179-0.391695 0.70179-0.465138 0.686491-0.520222 0.656907-0.558981 0.629365-0.599781 0.588565-0.620181 0.534502-0.620181 0.482482-0.620181 0.44168-0.599785 0.4121-0.558981 0.384559-0.520217 0.371298-0.465135 0.371298-0.391695 0.371298-0.315192 0.384559-0.257052 0.4121-0.216248 0.44168-0.177486 0.482482-0.159126 0.534502-0.159126ZM0.371298-0.665064C0.403939-0.710965 0.440659-0.744627 0.481463-0.767064 0.524305-0.788487 0.573266-0.799708 0.628346-0.799708 0.723209-0.799708 0.801754-0.760944 0.864995-0.685464 0.927218-0.60896 0.958839-0.511038 0.958839-0.391693 0.958839-0.269289 0.927218-0.169326 0.864995-0.0938496 0.801754-0.0173467 0.723209 0.0203941 0.628346 0.0203941 0.573266 0.0203941 0.524305 0.00917371 0.481463-0.0122469 0.440662-0.0336675 0.403939-0.0673296 0.371298-0.114249L0.371298-5.22259e-06 0.11833-5.22259e-06 0.11833-1.08531 0.371298-1.08531Z" fill="#FFFFFF" transform="matrix(1 0 0 1.0035 1073.47 336.96)"/><path d="M0.0163205-0.779312 0.265207-0.779312 0.477376-0.252981 0.656898-0.779312 0.905786-0.779312 0.575303 0.0734292C0.542663 0.160132 0.5039 0.221335 0.461059 0.257034 0.417197 0.291714 0.359057 0.310074 0.285612 0.310074L0.142806 0.310074 0.142806 0.14279 0.22033 0.14279C0.26317 0.14279 0.294793 0.13565 0.314174 0.12239 0.332534 0.108109 0.347836 0.0856697 0.359057 0.0530287L0.367217 0.0285479Z" fill="#FFFFFF" transform="matrix(1 0 0 1.0035 1074.49 336.96)"/><path d="M0.76299-0.187686 0.342731-0.187686 0.277449 0 0.00817332 0 0.391719-1.04044 0.714058-1.04044 1.0976 0 0.828325 0ZM0.408013-0.383532 0.693634-0.383532 0.554912-0.79562Z" fill="#FFFFFF" transform="matrix(1 0 0 1.0035 1075.91 336.96)"/><path d="M0.118323-1.0853 0.37129-1.0853 0.37129 0 0.118323 0Z" fill="#FFFFFF" transform="matrix(1 0 0 1.0035 1077.02 336.96)"/><path d="M0.118323-0.779312 0.37129-0.779312 0.37129 0 0.118323 0ZM0.118323-1.08533 0.37129-1.08533 0.37129-0.881322 0.118323-0.881322Z" fill="#FFFFFF" transform="matrix(1 0 0 1.0035 1077.51 336.96)"/><path d="M0.954737-0.057122C0.905776-0.032641 0.853756-0.0132601 0.799693 0 0.747673 0.0132603 0.69361 0.0204006 0.636488 0.0204006 0.462061 0.0204006 0.323342-0.0265215 0.220301-0.122405 0.119317-0.220328 0.0693374-0.351912 0.0693374-0.518171 0.0693374-0.686477 0.11932-0.818052 0.220301-0.913937 0.323324-1.01186 0.462049-1.06083 0.636488-1.06083 0.69361-1.06083 0.747673-1.05368 0.799693-1.04042 0.853756-1.02614 0.905776-1.00778 0.954737-0.983298L0.954737-0.767054C0.905776-0.799693 0.856815-0.824176 0.807854-0.840498 0.76093-0.856815 0.710951-0.864976 0.656888-0.864976 0.561008-0.864976 0.485523-0.833355 0.428402-0.771132 0.37332-0.710951 0.346799-0.626286 0.346799-0.518166 0.346799-0.412081 0.37332-0.327418 0.428402-0.265197 0.485523-0.205014 0.561008-0.175434 0.656888-0.175434 0.710951-0.175434 0.760935-0.181554 0.807854-0.195835 0.856815-0.212155 0.905776-0.237657 0.954737-0.273357Z" fill="#FFFFFF" transform="matrix(1 0 0 1.0035 1078.5 336.96)"/><path d="M0.489615-0.620181C0.434533-0.620181 0.392714-0.599781 0.36313-0.558976 0.335589-0.520213 0.322329-0.465132 0.322329-0.391693 0.322329-0.31519 0.335589-0.257049 0.36313-0.216245 0.392711-0.177484 0.434533-0.159124 0.489615-0.159124 0.543677-0.159124 0.5855-0.177484 0.616103-0.216245 0.645682-0.257047 0.660985-0.31519 0.660985-0.391693 0.660985-0.465135 0.645687-0.520217 0.616103-0.558976 0.5855-0.599776 0.543682-0.620181 0.489615-0.620181ZM0.489615-0.799708C0.625282-0.799708 0.730347-0.762986 0.803781-0.689542 0.879261-0.618139 0.918025-0.519194 0.918025-0.391698 0.918025-0.261134 0.879261-0.159132 0.803781-0.0856815 0.730337-0.0142785 0.625272 0.020402 0.489615 0.020402 0.355991 0.020402 0.250929-0.0142785 0.175452-0.0856815 0.0989494-0.159124 0.0612086-0.261128 0.0612086-0.391698 0.0612086-0.519204 0.0989494-0.618144 0.175452-0.689542 0.250934-0.762981 0.355999-0.799708 0.489615-0.799708Z" fill="#FFFFFF" transform="matrix(1 0 0 1.0035 1079.55 336.96)"/><path d="M0.730351-0.75482 0.730351-0.567132C0.675266-0.58855 0.624268-0.604872 0.575307-0.616093 0.526342-0.626291 0.478404-0.632415 0.432499-0.632415 0.385577-0.632415 0.350897-0.626291 0.326416-0.616093 0.303974-0.604872 0.293775-0.587532 0.293775-0.563054 0.293775-0.540613 0.301935-0.524291 0.318256-0.514093 0.336616-0.502872 0.369257-0.494711 0.416179-0.48961L0.45698-0.485527C0.584482-0.469209 0.670169-0.44167 0.714029-0.403926 0.759931-0.368228 0.78339-0.310082 0.78339-0.228481 0.78339-0.146878 0.75177-0.0836354 0.689546-0.0407948 0.629365 6.5282e-06 0.538581 0.0204085 0.416171 0.0204085 0.364149 0.0204085 0.310088 0.0163284 0.252966 0.00816811 0.197883 7.83386e-06 0.142801-0.0122326 0.0856815-0.0285518L0.0856815-0.216238C0.134643-0.193797 0.184626-0.176458 0.236645-0.163197 0.290706-0.151977 0.344768-0.146877 0.39985-0.146877 0.448812-0.146877 0.485532-0.152997 0.510015-0.167277 0.534498-0.180538 0.546737-0.199918 0.546737-0.224399 0.546737-0.24888 0.536534-0.266223 0.518171-0.277438 0.501854-0.287641 0.469211-0.295801 0.42025-0.301919L0.375367-0.306001C0.263163-0.319261 0.18462-0.344762 0.138719-0.383524 0.0948575-0.421266 0.0734373-0.478389 0.0734373-0.554888 0.0734373-0.63853 0.101999-0.699735 0.159119-0.738493 0.21624-0.779298 0.302943-0.799698 0.420247-0.799698 0.466148-0.799698 0.514093-0.795615 0.563054-0.787454 0.614052-0.78134 0.670155-0.771137 0.730337-0.754815ZM0.42026 0C0.44678 0.0295806 0.466161 0.057122 0.47738 0.0816025 0.490643 0.106083 0.497785 0.128525 0.497785 0.150964 0.497785 0.193804 0.482482 0.226445 0.452901 0.248886 0.425357 0.270307 0.381498 0.281528 0.322337 0.281528 0.299896 0.281528 0.277454 0.278467 0.252975 0.273367 0.230534 0.270307 0.208092 0.266228 0.183613 0.261127L0.183613 0.155044C0.205034 0.163204 0.225436 0.168304 0.244817 0.171364 0.266239 0.173404 0.28358 0.175444 0.297859 0.175444 0.324379 0.175444 0.344781 0.169324 0.359062 0.159124 0.375382 0.150964 0.383543 0.136683 0.383543 0.118323 0.383543 0.104042 0.377422 0.0877211 0.367222 0.069361 0.359062 0.0499803 0.34376 0.0265202 0.322339 -1.44955e-17Z" fill="#FFFFFF" transform="matrix(1 0 0 1.0035 1080.53 336.96)"/><path d="M0.118323-1.0853 0.37129-1.0853 0.37129-0.493688 0.656912-0.779312 0.94661-0.779312 0.567165-0.424334 0.975175 0 0.673258 0 0.371343-0.32641 0.371343 0 0.118375 0Z" fill="#FFFFFF" transform="matrix(1 0 0 1.0035 1081.37 336.96)"/><path d="M0.110165-0.306017 0.110165-0.779312 0.363133-0.779312 0.363133-0.701786 0.363133-0.542663 0.363133-0.416176C0.363133-0.352933 0.364154-0.307032 0.367214-0.277452 0.369254-0.249911 0.375375-0.230529 0.383535-0.22033 0.393735-0.204009 0.408016-0.189728 0.424336-0.179528 0.440657-0.171368 0.459017-0.167288 0.481459-0.167288 0.532456-0.167288 0.573256-0.187689 0.603863-0.228491 0.633443-0.269294 0.648746-0.324377 0.648746-0.395777L0.648746-0.779322 0.89763-0.779322 0.89763-9.13951e-06 0.648746-9.13951e-06 0.648746-0.114253C0.609978-0.0673305 0.569178-0.0336712 0.526342-0.0122508 0.485541 0.00916978 0.438617 0.0203902 0.387616 0.0203902 0.297854 0.0203902 0.228489-0.00613 0.179527-0.0612124 0.132605-0.118334 0.110166-0.199937 0.110166-0.306022Z" fill="#FFFFFF" transform="matrix(1 0 0 1.0035 1082.33 336.96)"/><path d="M0.9058-0.477371 0.9058 0 0.652834 0 0.652834-0.363125C0.652834-0.430447 0.650793-0.477371 0.648756-0.501849 0.645696-0.528369 0.640595-0.54775 0.632434-0.558971 0.624273-0.575293 0.609993-0.587532 0.591634-0.595693 0.575312-0.605891 0.556949-0.61201 0.538595-0.61201 0.48351-0.61201 0.441691-0.59161 0.412105-0.55081 0.384566-0.510005 0.371304-0.453907 0.371304-0.383524L0.371304 2.08903e-05 0.118337 2.08903e-05 0.118337-0.779289 0.371304-0.779289 0.371304-0.665045C0.405984-0.710946 0.44577-0.744608 0.489624-0.767049 0.532466-0.788468 0.57939-0.799689 0.628351-0.799689 0.718117-0.799689 0.785437-0.771128 0.832361-0.71401 0.881322-0.658925 0.9058-0.580385 0.9058-0.477362Z" fill="#FFFFFF" transform="matrix(1 0 0 1.0035 1083.34 336.96)"/><path d="M0.632424-1.0853 0.632424-0.922098 0.497785-0.922098C0.462082-0.922098 0.43658-0.914956 0.42026-0.901693 0.405979-0.887418 0.399861-0.865995 0.399861-0.836411L0.399861-0.779289 0.616107-0.779289 0.616107-0.603845 0.399861-0.603845 0.399861 1.43621e-05 0.150973 1.43621e-05 0.150973-0.603845 0.0285688-0.603845 0.0285688-0.779289 0.150973-0.779289 0.150973-0.836411C0.150973-0.920057 0.173413-0.983298 0.220334-1.0241 0.269296-1.0649 0.343757-1.0853 0.444743-1.0853Z" fill="#FFFFFF" transform="matrix(1 0 0 1.0035 1066.61 338.395)"/><path d="M0.701781-0.567146C0.679339-0.577344 0.657921-0.585505 0.636503-0.591624 0.614061-0.596726 0.592638-0.599785 0.57122-0.599785 0.505937-0.599785 0.454935-0.577344 0.420255-0.534502 0.387614-0.493702 0.371293-0.434541 0.371293-0.359057L0.371293-5.22259e-06 0.118325-5.22259e-06 0.118325-0.779317 0.371293-0.779317 0.371293-0.652829C0.400874-0.703832 0.436575-0.740554 0.477376-0.762995 0.520217-0.787478 0.57122-0.799717 0.628342-0.799717L0.656903-0.799717C0.6671-0.799717 0.681386-0.797676 0.697703-0.795639Z" fill="#FFFFFF" transform="matrix(1 0 0 1.0035 1067.23 338.395)"/><path d="M0.489615-0.620181C0.434533-0.620181 0.392714-0.599781 0.36313-0.558976 0.335589-0.520213 0.322329-0.465132 0.322329-0.391693 0.322329-0.31519 0.335589-0.257049 0.36313-0.216245 0.392711-0.177484 0.434533-0.159124 0.489615-0.159124 0.543677-0.159124 0.5855-0.177484 0.616103-0.216245 0.645682-0.257047 0.660985-0.31519 0.660985-0.391693 0.660985-0.465135 0.645687-0.520217 0.616103-0.558976 0.5855-0.599776 0.543682-0.620181 0.489615-0.620181ZM0.489615-0.799708C0.625282-0.799708 0.730347-0.762986 0.803781-0.689542 0.879261-0.618139 0.918025-0.519194 0.918025-0.391698 0.918025-0.261134 0.879261-0.159132 0.803781-0.0856815 0.730337-0.0142785 0.625272 0.020402 0.489615 0.020402 0.355991 0.020402 0.250929-0.0142785 0.175452-0.0856815 0.0989494-0.159124 0.0612086-0.261128 0.0612086-0.391698 0.0612086-0.519204 0.0989494-0.618144 0.175452-0.689542 0.250934-0.762981 0.355999-0.799708 0.489615-0.799708Z" fill="#FFFFFF" transform="matrix(1 0 0 1.0035 1067.94 338.395)"/><path d="M0.844595-0.65282C0.874175-0.698721 0.910896-0.734425 0.954756-0.758903 0.997598-0.785422 1.04656-0.799708 1.10164-0.799708 1.18835-0.799708 1.25465-0.771142 1.30157-0.714025 1.35053-0.658944 1.37501-0.580399 1.37501-0.477376L1.37501-7.83386e-06 1.12204-7.83386e-06 1.12204-0.408021C1.12408-0.413121 1.12612-0.41822 1.12612-0.424341L1.12612-0.452904C1.12612-0.510024 1.11796-0.550829 1.10164-0.575307 1.08532-0.59979 1.0588-0.612029 1.02412-0.612029 0.975156-0.612029 0.936393-0.591629 0.909873-0.550824 0.885395-0.512061 0.873156-0.45698 0.873156-0.38354L0.873156 5.22259e-06 0.620185 5.22259e-06 0.620185-0.408008C0.620185-0.494711 0.612029-0.550815 0.595707-0.575293 0.581427-0.599771 0.555926-0.61201 0.518185-0.61201 0.471261-0.61201 0.434541-0.59161 0.408018-0.55081 0.383538-0.512047 0.371298-0.456964 0.371298-0.383524L0.371298 2.08903e-05 0.118329 2.08903e-05 0.118329-0.779289 0.371298-0.779289 0.371298-0.665045C0.400876-0.710946 0.434541-0.744608 0.473301-0.767049 0.514102-0.788468 0.558981-0.799689 0.607942-0.799689 0.662004-0.799689 0.709947-0.785408 0.750751-0.758889 0.791551-0.734406 0.822149-0.698707 0.844595-0.652806Z" fill="#FFFFFF" transform="matrix(1 0 0 1.0035 1068.92 338.395)"/><path d="M0.391693-1.00373 0.391693-0.779317 0.648742-0.779317 0.648742-0.603868 0.391693-0.603868 0.391693-0.269312C0.391693-0.233611 0.397813-0.20913 0.412092-0.19587 0.428412-0.184649 0.457996-0.179549 0.501859-0.179549L0.628342-0.179549 0.628342-2.35016e-05 0.416176-2.35016e-05C0.31519-2.35016e-05 0.244809-0.0204241 0.204008-0.0612266 0.163206-0.10203 0.142804-0.171391 0.142804-0.269315L0.142804-0.603873 0.0204006-0.603873 0.0204006-0.779322 0.142804-0.779322 0.142804-1.00373Z" fill="#FFFFFF" transform="matrix(1 0 0 1.0035 1070.9 338.395)"/><path d="M0.9058-0.477371 0.9058 0 0.652834 0 0.652834-0.363125C0.652834-0.430447 0.650793-0.477371 0.648756-0.501849 0.645696-0.528369 0.640595-0.54775 0.632434-0.558971 0.624273-0.575293 0.609993-0.587532 0.591634-0.595693 0.575312-0.605891 0.556949-0.61201 0.538595-0.61201 0.48351-0.61201 0.441691-0.59161 0.412105-0.55081 0.384566-0.510005 0.371304-0.453907 0.371304-0.383524L0.371304 2.08903e-05 0.118337 2.08903e-05 0.118337-1.08528 0.371304-1.08528 0.371304-0.665021C0.405984-0.710922 0.44577-0.744584 0.489624-0.767021 0.532466-0.788444 0.57939-0.799665 0.628351-0.799665 0.718117-0.799665 0.785437-0.771104 0.832361-0.713982 0.881322-0.658901 0.9058-0.580356 0.9058-0.477333Z" fill="#FFFFFF" transform="matrix(1 0 0 1.0035 1071.59 338.395)"/><path d="M0.89763-0.391693 0.89763-0.322332 0.314164-0.322332C0.322324-0.26215 0.343744-0.217269 0.379446-0.187689 0.414126-0.160148 0.465127-0.146887 0.53041-0.146887 0.584472-0.146887 0.63853-0.153008 0.693615-0.167288 0.747677-0.183608 0.803781-0.208089 0.860898-0.24073L0.860898-0.0489629C0.803776-0.0244821 0.744618-0.00612214 0.685449 0.00407752 0.625268 0.0142777 0.567127 0.020398 0.510005 0.020398 0.36822 0.020398 0.258058-0.0142824 0.179521-0.0856853 0.0999573-0.159128 0.0611982-0.261134 0.0611982-0.391703 0.0611982-0.516149 0.0989389-0.616112 0.175442-0.689546 0.253984-0.76299 0.360067-0.799712 0.493707-0.799712 0.616107-0.799712 0.714034-0.76299 0.787473-0.689546 0.860917-0.616103 0.897639-0.516139 0.897639-0.391703ZM0.644659-0.477376C0.644659-0.523277 0.62936-0.559999 0.599776-0.587537 0.572238-0.617121 0.536534-0.63242 0.493693-0.63242 0.444733-0.63242 0.404953-0.618139 0.375372-0.59162 0.34477-0.564077 0.32641-0.526337 0.31825-0.477376Z" fill="#FFFFFF" transform="matrix(1 0 0 1.0035 1072.6 338.395)"/><path d="M0.130564-1.04044 0.432481-1.04044 0.807854-0.32641 0.807854-1.04044 1.0649-1.04044 1.0649 0 0.762986 0 0.387614-0.714029 0.387614 0 0.130564 0Z" fill="#FFFFFF" transform="matrix(1 0 0 1.0035 1074.07 338.395)"/><path d="M0.489615-0.620181C0.434533-0.620181 0.392714-0.599781 0.36313-0.558976 0.335589-0.520213 0.322329-0.465132 0.322329-0.391693 0.322329-0.31519 0.335589-0.257049 0.36313-0.216245 0.392711-0.177484 0.434533-0.159124 0.489615-0.159124 0.543677-0.159124 0.5855-0.177484 0.616103-0.216245 0.645682-0.257047 0.660985-0.31519 0.660985-0.391693 0.660985-0.465135 0.645687-0.520217 0.616103-0.558976 0.5855-0.599776 0.543682-0.620181 0.489615-0.620181ZM0.489615-0.799708C0.625282-0.799708 0.730347-0.762986 0.803781-0.689542 0.879261-0.618139 0.918025-0.519194 0.918025-0.391698 0.918025-0.261134 0.879261-0.159132 0.803781-0.0856815 0.730337-0.0142785 0.625272 0.020402 0.489615 0.020402 0.355991 0.020402 0.250929-0.0142785 0.175452-0.0856815 0.0989494-0.159124 0.0612086-0.261128 0.0612086-0.391698 0.0612086-0.519204 0.0989494-0.618144 0.175452-0.689542 0.250934-0.762981 0.355999-0.799708 0.489615-0.799708Z" fill="#FFFFFF" transform="matrix(1 0 0 1.0035 1075.26 338.395)"/><path d="M0.110165-0.306017 0.110165-0.779312 0.363133-0.779312 0.363133-0.701786 0.363133-0.542663 0.363133-0.416176C0.363133-0.352933 0.364154-0.307032 0.367214-0.277452 0.369254-0.249911 0.375375-0.230529 0.383535-0.22033 0.393735-0.204009 0.408016-0.189728 0.424336-0.179528 0.440657-0.171368 0.459017-0.167288 0.481459-0.167288 0.532456-0.167288 0.573256-0.187689 0.603863-0.228491 0.633443-0.269294 0.648746-0.324377 0.648746-0.395777L0.648746-0.779322 0.89763-0.779322 0.89763-9.13951e-06 0.648746-9.13951e-06 0.648746-0.114253C0.609978-0.0673305 0.569178-0.0336712 0.526342-0.0122508 0.485541 0.00916978 0.438617 0.0203902 0.387616 0.0203902 0.297854 0.0203902 0.228489-0.00613 0.179527-0.0612124 0.132605-0.118334 0.110166-0.199937 0.110166-0.306022Z" fill="#FFFFFF" transform="matrix(1 0 0 1.0035 1076.24 338.395)"/><path d="M0.9058-0.477371 0.9058 0 0.652834 0 0.652834-0.363125C0.652834-0.430447 0.650793-0.477371 0.648756-0.501849 0.645696-0.528369 0.640595-0.54775 0.632434-0.558971 0.624273-0.575293 0.609993-0.587532 0.591634-0.595693 0.575312-0.605891 0.556949-0.61201 0.538595-0.61201 0.48351-0.61201 0.441691-0.59161 0.412105-0.55081 0.384566-0.510005 0.371304-0.453907 0.371304-0.383524L0.371304 2.08903e-05 0.118337 2.08903e-05 0.118337-0.779289 0.371304-0.779289 0.371304-0.665045C0.405984-0.710946 0.44577-0.744608 0.489624-0.767049 0.532466-0.788468 0.57939-0.799689 0.628351-0.799689 0.718117-0.799689 0.785437-0.771128 0.832361-0.71401 0.881322-0.658925 0.9058-0.580385 0.9058-0.477362Z" fill="#FFFFFF" transform="matrix(1 0 0 1.0035 1077.26 338.395)"/><path d="M0.130564-1.04044 0.575293-1.04044C0.707896-1.04044 0.8099-1.00984 0.881308-0.950678 0.951692-0.893556 0.987391-0.809915 0.987391-0.70179 0.987391-0.592648 0.951692-0.507983 0.881308-0.448822 0.809905-0.3917 0.707905-0.363141 0.575293-0.363141L0.399845-0.363141 0.399845-1.56677e-05 0.13057-1.56677e-05ZM0.39984-0.844595 0.39984-0.554898 0.546723-0.554898C0.597725-0.554898 0.637507-0.567142 0.665045-0.59162 0.694629-0.618139 0.709928-0.654861 0.709928-0.701781 0.709928-0.747682 0.694629-0.783386 0.665045-0.807864 0.637507-0.832347 0.597725-0.844586 0.546723-0.844586Z" fill="#FFFFFF" transform="matrix(1 0 0 1.0035 1078.77 338.395)"/><path d="M0.701781-0.567146C0.679339-0.577344 0.657921-0.585505 0.636503-0.591624 0.614061-0.596726 0.592638-0.599785 0.57122-0.599785 0.505937-0.599785 0.454935-0.577344 0.420255-0.534502 0.387614-0.493702 0.371293-0.434541 0.371293-0.359057L0.371293-5.22259e-06 0.118325-5.22259e-06 0.118325-0.779317 0.371293-0.779317 0.371293-0.652829C0.400874-0.703832 0.436575-0.740554 0.477376-0.762995 0.520217-0.787478 0.57122-0.799717 0.628342-0.799717L0.656903-0.799717C0.6671-0.799717 0.681386-0.797676 0.697703-0.795639Z" fill="#FFFFFF" transform="matrix(1 0 0 1.0035 1079.82 338.395)"/><path d="M0.489615-0.620181C0.434533-0.620181 0.392714-0.599781 0.36313-0.558976 0.335589-0.520213 0.322329-0.465132 0.322329-0.391693 0.322329-0.31519 0.335589-0.257049 0.36313-0.216245 0.392711-0.177484 0.434533-0.159124 0.489615-0.159124 0.543677-0.159124 0.5855-0.177484 0.616103-0.216245 0.645682-0.257047 0.660985-0.31519 0.660985-0.391693 0.660985-0.465135 0.645687-0.520217 0.616103-0.558976 0.5855-0.599776 0.543682-0.620181 0.489615-0.620181ZM0.489615-0.799708C0.625282-0.799708 0.730347-0.762986 0.803781-0.689542 0.879261-0.618139 0.918025-0.519194 0.918025-0.391698 0.918025-0.261134 0.879261-0.159132 0.803781-0.0856815 0.730337-0.0142785 0.625272 0.020402 0.489615 0.020402 0.355991 0.020402 0.250929-0.0142785 0.175452-0.0856815 0.0989494-0.159124 0.0612086-0.261128 0.0612086-0.391698 0.0612086-0.519204 0.0989494-0.618144 0.175452-0.689542 0.250934-0.762981 0.355999-0.799708 0.489615-0.799708Z" fill="#FFFFFF" transform="matrix(1 0 0 1.0035 1080.52 338.395)"/><path d="M0.118323-0.779312 0.37129-0.779312 0.37129-0.0122469C0.37129 0.0907761 0.34477 0.169318 0.293767 0.224401 0.244805 0.281522 0.172384 0.310082 0.077521 0.310082L-0.0489643 0.310082-0.0489643 0.142798-0.00408144 0.142798C0.0418197 0.142798 0.0734425 0.131578 0.089763 0.110157 0.108123 0.0907761 0.118325 0.0499746 0.118325-0.0122469ZM0.118323-1.08533 0.37129-1.08533 0.37129-0.881322 0.118323-0.881322Z" fill="#FFFFFF" transform="matrix(1 0 0 1.0035 1081.51 338.395)"/><path d="M0.89763-0.391693 0.89763-0.322332 0.314164-0.322332C0.322324-0.26215 0.343744-0.217269 0.379446-0.187689 0.414126-0.160148 0.465127-0.146887 0.53041-0.146887 0.584472-0.146887 0.63853-0.153008 0.693615-0.167288 0.747677-0.183608 0.803781-0.208089 0.860898-0.24073L0.860898-0.0489629C0.803776-0.0244821 0.744618-0.00612214 0.685449 0.00407752 0.625268 0.0142777 0.567127 0.020398 0.510005 0.020398 0.36822 0.020398 0.258058-0.0142824 0.179521-0.0856853 0.0999573-0.159128 0.0611982-0.261134 0.0611982-0.391703 0.0611982-0.516149 0.0989389-0.616112 0.175442-0.689546 0.253984-0.76299 0.360067-0.799712 0.493707-0.799712 0.616107-0.799712 0.714034-0.76299 0.787473-0.689546 0.860917-0.616103 0.897639-0.516139 0.897639-0.391703ZM0.644659-0.477376C0.644659-0.523277 0.62936-0.559999 0.599776-0.587537 0.572238-0.617121 0.536534-0.63242 0.493693-0.63242 0.444733-0.63242 0.404953-0.618139 0.375372-0.59162 0.34477-0.564077 0.32641-0.526337 0.31825-0.477376Z" fill="#FFFFFF" transform="matrix(1 0 0 1.0035 1081.99 338.395)"/><path d="M0.750742-0.75482 0.750742-0.554893C0.718103-0.576311 0.683422-0.592633 0.648742-0.603854 0.613043-0.614052 0.577339-0.620176 0.542659-0.620176 0.471256-0.620176 0.417194-0.599771 0.379453-0.558971 0.340692-0.518171 0.322332-0.462069 0.322332-0.391687 0.322332-0.318245 0.340692-0.261123 0.379453-0.220322 0.417194-0.179521 0.471256-0.159119 0.542659-0.159119 0.580399-0.159119 0.617121-0.164219 0.652825-0.175439 0.687505-0.18564 0.720144-0.204001 0.750747-0.228479L0.750747-0.024473C0.711983-0.00815243 0.673225 0.00204724 0.632424 0.00816811 0.591624 0.0163284 0.55082 0.0204085 0.51002 0.0204085 0.368235 0.0204085 0.258073-0.014272 0.179536-0.0856749 0.0999729-0.159117 0.0612138-0.261122 0.0612138-0.39169 0.0612138-0.519194 0.0999758-0.618139 0.179536-0.689532 0.258079-0.762976 0.368243-0.799698 0.51002-0.799698 0.55082-0.799698 0.591624-0.79562 0.632424-0.787459 0.673225-0.78134 0.711988-0.771137 0.750747-0.75482Z" fill="#FFFFFF" transform="matrix(1 0 0 1.0035 1082.96 338.395)"/><path d="M0.391693-1.00373 0.391693-0.779317 0.648742-0.779317 0.648742-0.603868 0.391693-0.603868 0.391693-0.269312C0.391693-0.233611 0.397813-0.20913 0.412092-0.19587 0.428412-0.184649 0.457996-0.179549 0.501859-0.179549L0.628342-0.179549 0.628342-2.35016e-05 0.416176-2.35016e-05C0.31519-2.35016e-05 0.244809-0.0204241 0.204008-0.0612266 0.163206-0.10203 0.142804-0.171391 0.142804-0.269315L0.142804-0.603873 0.0204006-0.603873 0.0204006-0.779322 0.142804-0.779322 0.142804-1.00373Z" fill="#FFFFFF" transform="matrix(1 0 0 1.0035 1083.81 338.395)"/></g></g></g><g clip-path="url(#clip4)"><g clip-path="url(#clip5)"><g clip-path="url(#clip6)"><path d="M73.4 0C70.7534 21.6048 69.8783 35.3222 64.7066 44.1784 56.2529 55.185 41.6004 56.2339 14.6794 58.721 41.1621 61.9255 55.4814 62.6197 63.9603 72.703 70.295 81.6289 71.3666 95.4381 73.4 117.442 76.8527 88.9036 77.3944 74.4921 89.9065 66.2921 98.804 61.9946 112.08 61.0565 132.12 58.7219 107.271 55.6775 92.853 54.9771 84.2694 47.3857 77.0123 38.7332 76.238 24.3653 73.3996 0.000629143Z" fill="#FFFFFF" transform="matrix(1 0 0 1.00522 24.0444 250.559)"/><path d="M0.766756-0.045875C0.727437-0.0262143 0.685656-0.0106493 0.642241 0 0.60046 0.0106495 0.557045 0.0163839 0.511167 0.0163839 0.371086 0.0163839 0.259679-0.0212997 0.176925-0.0983049 0.0958249-0.176948 0.0556855-0.282624 0.0556855-0.416147 0.0556855-0.551315 0.0958268-0.656987 0.176925-0.733991 0.259664-0.812633 0.371075-0.851957 0.511167-0.851957 0.557045-0.851957 0.60046-0.846222 0.642241-0.835572 0.685656-0.824103 0.727437-0.809356 0.766756-0.789695L0.766756-0.61603C0.727437-0.642241 0.688114-0.661903 0.648795-0.675011 0.61111-0.688118 0.570972-0.694672 0.527552-0.694672 0.450548-0.694672 0.389929-0.669276 0.344054-0.619302 0.299816-0.570972 0.278518-0.502975 0.278518-0.416143 0.278518-0.330946 0.299816-0.262953 0.344054-0.212982 0.389929-0.164649 0.450548-0.140893 0.527552-0.140893 0.570972-0.140893 0.61111-0.145808 0.648795-0.157276 0.688114-0.170384 0.727437-0.190864 0.766756-0.219535Z" fill="#FFFFFF" transform="matrix(1 0 0 1.00522 38.7244 372.071)"/><path d="M0.563608-0.455479C0.545585-0.46367 0.528381-0.470224 0.511177-0.47514 0.493158-0.479236 0.475954-0.481694 0.45875-0.481694 0.406322-0.481694 0.365362-0.46367 0.33751-0.429264 0.311296-0.396497 0.298189-0.348984 0.298189-0.288362L0.298189-4.19429e-06 0.095028-4.19429e-06 0.095028-0.625875 0.298189-0.625875 0.298189-0.524294C0.321945-0.565256 0.350617-0.594744 0.383386-0.612767 0.417791-0.632429 0.458753-0.64226 0.504628-0.64226L0.527562-0.64226C0.535754-0.64226 0.547223-0.640621 0.560331-0.638983Z" fill="#FFFFFF" transform="matrix(1 0 0 1.00522 39.5673 372.071)"/><path d="M0.720893-0.314572 0.720893-0.258867 0.252308-0.258867C0.258861-0.210535 0.276064-0.174491 0.304736-0.150734 0.332588-0.128616 0.373548-0.117967 0.425976-0.117967 0.469393-0.117967 0.512811-0.122882 0.55705-0.134351 0.600465-0.147457 0.645523-0.167118 0.691395-0.193332L0.691395-0.0393225C0.645518-0.0196618 0.598007-0.00491676 0.550491 0.00327469 0.502161 0.0114666 0.455466 0.0163818 0.409589 0.0163818 0.29572 0.0163818 0.207248-0.0114703 0.144174-0.0688147 0.0802765-0.127797 0.0491487-0.209719 0.0491487-0.31458 0.0491487-0.414522 0.0794586-0.494806 0.140899-0.553782 0.203977-0.612763 0.289173-0.642255 0.396499-0.642255 0.494802-0.642255 0.573444-0.612763 0.632429-0.553782 0.69141-0.494797 0.720902-0.414518 0.720902-0.31458ZM0.517731-0.383383C0.517731-0.420247 0.505447-0.449739 0.481689-0.471858 0.459568-0.495616 0.430896-0.507905 0.396491-0.507905 0.357169-0.507905 0.325221-0.496435 0.301464-0.475135 0.276888-0.453017 0.262143-0.422707 0.255589-0.383386Z" fill="#FFFFFF" transform="matrix(1 0 0 1.00522 40.1309 372.071)"/><path d="M0.376836-0.281815C0.335057-0.281815 0.303109-0.273623 0.28181-0.258876 0.262149-0.245768 0.25232-0.22447 0.25232-0.196616 0.25232-0.172039 0.259694-0.152378 0.275259-0.137634 0.292461-0.124526 0.316218-0.117973 0.347348-0.117973 0.384211-0.117973 0.416159-0.13108 0.442374-0.157294 0.468588-0.183509 0.481694-0.217097 0.481694-0.258876L0.481694-0.281815ZM0.684865-0.357182 0.684865-1.67772e-05 0.481703-1.67772e-05 0.481703-0.0917666C0.455489-0.054083 0.424359-0.0270511 0.389954-0.0098482 0.357185 0.00735487 0.316226 0.0163661 0.268713 0.0163661 0.203177 0.0163661 0.149111-0.00165633 0.108152-0.0393383 0.0688303-0.0786598 0.0491695-0.127813 0.0491695-0.186793 0.0491695-0.26052 0.0737462-0.315406 0.124537-0.350632 0.174507-0.385038 0.25397-0.403061 0.363737-0.403061L0.481703-0.403061 0.481703-0.416168C0.481703-0.448936 0.468594-0.471872 0.44238-0.48498 0.417804-0.499726 0.38012-0.507919 0.327691-0.507919 0.283454-0.507919 0.243315-0.503003 0.206451-0.494811 0.168768-0.485799 0.135182-0.473512 0.10487-0.458765L0.10487-0.609495C0.145829-0.620145 0.188428-0.627518 0.232666-0.632434 0.276083-0.638988 0.3195-0.642269 0.363737-0.642269 0.476788-0.642269 0.558707-0.619331 0.6095-0.573458 0.659473-0.529214 0.68487-0.457127 0.68487-0.357198Z" fill="#FFFFFF" transform="matrix(1 0 0 1.00522 40.9075 372.071)"/><path d="M0.314572-0.806098 0.314572-0.625875 0.521012-0.625875 0.521012-0.484975 0.314572-0.484975 0.314572-0.216287C0.314572-0.187615 0.319487-0.167954 0.330955-0.157305 0.344062-0.148294 0.36782-0.144197 0.403046-0.144197L0.504628-0.144197 0.504628-1.88743e-05 0.334234-1.88743e-05C0.253132-1.88743e-05 0.196608-0.0164028 0.16384-0.0491719 0.131073-0.0819405 0.114688-0.137646 0.114688-0.216289L0.114688-0.484975 0.0163839-0.484975 0.0163839-0.62588 0.114688-0.62588 0.114688-0.806103Z" fill="#FFFFFF" transform="matrix(1 0 0 1.00522 41.6841 372.071)"/><path d="M0.720893-0.314572 0.720893-0.258867 0.252308-0.258867C0.258861-0.210535 0.276064-0.174491 0.304736-0.150734 0.332588-0.128616 0.373548-0.117967 0.425976-0.117967 0.469393-0.117967 0.512811-0.122882 0.55705-0.134351 0.600465-0.147457 0.645523-0.167118 0.691395-0.193332L0.691395-0.0393225C0.645518-0.0196618 0.598007-0.00491676 0.550491 0.00327469 0.502161 0.0114666 0.455466 0.0163818 0.409589 0.0163818 0.29572 0.0163818 0.207248-0.0114703 0.144174-0.0688147 0.0802765-0.127797 0.0491487-0.209719 0.0491487-0.31458 0.0491487-0.414522 0.0794586-0.494806 0.140899-0.553782 0.203977-0.612763 0.289173-0.642255 0.396499-0.642255 0.494802-0.642255 0.573444-0.612763 0.632429-0.553782 0.69141-0.494797 0.720902-0.414518 0.720902-0.31458ZM0.517731-0.383383C0.517731-0.420247 0.505447-0.449739 0.481689-0.471858 0.459568-0.495616 0.430896-0.507905 0.396491-0.507905 0.357169-0.507905 0.325221-0.496435 0.301464-0.475135 0.276888-0.453017 0.262143-0.422707 0.255589-0.383386Z" fill="#FFFFFF" transform="matrix(1 0 0 1.00522 42.2334 372.071)"/><path d="M0.524285-0.53412 0.524285-0.871637 0.72417-0.871637 0.72417-2.09714e-05 0.524285-2.09714e-05 0.524285-0.0917709C0.495616-0.0540873 0.465304-0.0270553 0.432536-0.00985237 0.399768 0.00735071 0.361267 0.0163619 0.317847 0.0163619 0.239205 0.0163619 0.174489-0.0139481 0.124516-0.075388 0.0761831-0.136008 0.0524266-0.216291 0.0524266-0.314588 0.0524266-0.410434 0.0761831-0.489076 0.124516-0.550519 0.174487-0.611138 0.239205-0.642269 0.317847-0.642269 0.358807-0.642269 0.396491-0.633258 0.429258-0.616054 0.463664-0.59803 0.495616-0.571 0.524285-0.534135ZM0.389939-0.1278C0.433356-0.1278 0.466124-0.142546 0.488243-0.173675 0.512001-0.206443 0.524289-0.253138 0.524289-0.314578 0.524289-0.37356 0.512001-0.417797 0.488243-0.448925 0.466124-0.481694 0.433356-0.498079 0.389939-0.498079 0.34816-0.498079 0.315391-0.481694 0.291635-0.448925 0.269516-0.417795 0.258867-0.373558 0.258867-0.314578 0.258867-0.253138 0.269516-0.206445 0.291635-0.173675 0.315391-0.142545 0.34816-0.1278 0.389939-0.1278Z" fill="#FFFFFF" transform="matrix(1 0 0 1.00522 43.01 372.071)"/><path d="M0.429264-0.127796C0.472682-0.127796 0.505452-0.142541 0.527566-0.173671 0.551324-0.206439 0.563613-0.253134 0.563613-0.314574 0.563613-0.373556 0.551329-0.417793 0.527566-0.448921 0.505452-0.481689 0.472682-0.498074 0.429264-0.498074 0.387485-0.498074 0.354717-0.481689 0.330961-0.448921 0.308842-0.417791 0.298193-0.373554 0.298193-0.314574 0.298193-0.253134 0.308842-0.206441 0.330961-0.173671 0.354717-0.142541 0.387485-0.127796 0.429264-0.127796ZM0.298193-0.534116C0.324407-0.570981 0.353897-0.598016 0.386667-0.616035 0.421073-0.633239 0.460394-0.64225 0.504632-0.64225 0.580817-0.64225 0.643894-0.611119 0.694686-0.5505 0.744655-0.489062 0.770052-0.410418 0.770052-0.314572 0.770052-0.216268 0.74466-0.135987 0.694686-0.0753714 0.643894-0.0139313 0.580817 0.0163787 0.504632 0.0163787 0.460394 0.0163787 0.421073 0.00736747 0.386667-0.00983561 0.3539-0.0270387 0.324407-0.0540726 0.298193-0.0917543L0.298193-4.19429e-06 0.0950322-4.19429e-06 0.0950322-0.871619 0.298193-0.871619Z" fill="#FFFFFF" transform="matrix(1 0 0 1.00522 44.2271 372.071)"/><path d="M0.0131072-0.62587 0.21299-0.62587 0.383383-0.203171 0.527562-0.62587 0.727447-0.62587 0.46203 0.0589715C0.435816 0.128603 0.404686 0.177756 0.37028 0.206426 0.335055 0.234278 0.288362 0.249023 0.229378 0.249023L0.114689 0.249023 0.114689 0.114676 0.176949 0.114676C0.211354 0.114676 0.236751 0.108942 0.252316 0.0982921 0.267061 0.0868233 0.27935 0.0688019 0.288362 0.0425878L0.294915 0.022927Z" fill="#FFFFFF" transform="matrix(1 0 0 1.00522 45.051 372.071)"/><path d="M0.612763-0.150732 0.27525-0.150732 0.222822 0 0.00656405 0 0.314593-0.835586 0.573463-0.835586 0.881492 0 0.665237 0ZM0.327679-0.308018 0.557064-0.308018 0.445654-0.638969Z" fill="#FFFFFF" transform="matrix(1 0 0 1.00522 46.197 372.071)"/><path d="M0.0950256-0.871614 0.298187-0.871614 0.298187 0 0.0950256 0Z" fill="#FFFFFF" transform="matrix(1 0 0 1.00522 47.0873 372.071)"/><path d="M0.0950256-0.62587 0.298187-0.62587 0.298187 0 0.0950256 0ZM0.0950256-0.871637 0.298187-0.871637 0.298187-0.707799 0.0950256-0.707799Z" fill="#FFFFFF" transform="matrix(1 0 0 1.00522 47.4803 372.071)"/><path d="M0.766756-0.045875C0.727437-0.0262143 0.685656-0.0106493 0.642241 0 0.60046 0.0106495 0.557045 0.0163839 0.511167 0.0163839 0.371086 0.0163839 0.259679-0.0212997 0.176925-0.0983049 0.0958249-0.176948 0.0556855-0.282624 0.0556855-0.416147 0.0556855-0.551315 0.0958268-0.656987 0.176925-0.733991 0.259664-0.812633 0.371075-0.851957 0.511167-0.851957 0.557045-0.851957 0.60046-0.846222 0.642241-0.835572 0.685656-0.824103 0.727437-0.809356 0.766756-0.789695L0.766756-0.61603C0.727437-0.642241 0.688114-0.661903 0.648795-0.675011 0.61111-0.688118 0.570972-0.694672 0.527552-0.694672 0.450548-0.694672 0.389929-0.669276 0.344054-0.619302 0.299816-0.570972 0.278518-0.502975 0.278518-0.416143 0.278518-0.330946 0.299816-0.262953 0.344054-0.212982 0.389929-0.164649 0.450548-0.140893 0.527552-0.140893 0.570972-0.140893 0.61111-0.145808 0.648795-0.157276 0.688114-0.170384 0.727437-0.190864 0.766756-0.219535Z" fill="#FFFFFF" transform="matrix(1 0 0 1.00522 48.2712 372.071)"/><path d="M0.393214-0.498074C0.348977-0.498074 0.315391-0.481689 0.291633-0.448919 0.269515-0.417789 0.258865-0.373552 0.258865-0.314572 0.258865-0.253132 0.269515-0.206439 0.291633-0.173669 0.31539-0.142539 0.348977-0.127794 0.393214-0.127794 0.436632-0.127794 0.47022-0.14254 0.494797-0.173669 0.518555-0.206436 0.530843-0.253132 0.530843-0.314572 0.530843-0.373554 0.518555-0.417791 0.494797-0.448919 0.47022-0.481689 0.436634-0.498074 0.393214-0.498074ZM0.393214-0.64225C0.502165-0.64225 0.586547-0.612763 0.645523-0.553777 0.706142-0.496431 0.737273-0.416971 0.737273-0.314576 0.737273-0.209719 0.706142-0.1278 0.645523-0.0688114 0.586542-0.0114672 0.502165 0.016385 0.393214 0.016385 0.285899 0.016385 0.201523-0.0114672 0.140907-0.0688114 0.0794672-0.127794 0.0491572-0.209714 0.0491572-0.314576 0.0491572-0.416975 0.0794672-0.49644 0.140907-0.553777 0.201527-0.612758 0.285906-0.64225 0.393214-0.64225Z" fill="#FFFFFF" transform="matrix(1 0 0 1.00522 49.1141 372.071)"/><path d="M0.586552-0.606199 0.586552-0.455468C0.542313-0.472671 0.501355-0.48578 0.462032-0.494792 0.422711-0.50298 0.384209-0.507895 0.347344-0.507895 0.30966-0.507895 0.281808-0.50298 0.262147-0.494792 0.244124-0.48578 0.235933-0.471851 0.235933-0.452193 0.235933-0.43417 0.242487-0.421062 0.255594-0.412871 0.270339-0.40386 0.296553-0.397306 0.334237-0.39321L0.367005-0.389933C0.469404-0.376825 0.538217-0.354709 0.573444-0.324397 0.610305-0.295727 0.629147-0.24903 0.629147-0.183495 0.629147-0.117959 0.603756-0.0671686 0.553782-0.0327627 0.505447 5.24285e-06 0.43254 0.0163902 0.33423 0.0163902 0.292451 0.0163902 0.249034 0.0131135 0.203159 0.00655988 0.158922 6.29143e-06 0.114684-0.00982405 0.0688114-0.0229302L0.0688114-0.173663C0.108133-0.15564 0.148274-0.141715 0.190052-0.131065 0.233469-0.122054 0.276886-0.117958 0.321123-0.117958 0.360444-0.117958 0.389935-0.122874 0.409597-0.134342 0.429258-0.144992 0.439088-0.160556 0.439088-0.180217 0.439088-0.199878 0.430896-0.213806 0.416149-0.222813 0.403042-0.231007 0.376827-0.23756 0.337506-0.242474L0.30146-0.245752C0.211348-0.256401 0.14827-0.276882 0.111407-0.308012 0.0761807-0.338322 0.0589781-0.384197 0.0589781-0.445637 0.0589781-0.512811 0.0819164-0.561965 0.127789-0.593091 0.173665-0.625861 0.243296-0.642246 0.337504-0.642246 0.374368-0.642246 0.412871-0.638969 0.452193-0.632415 0.493154-0.627499 0.538207-0.619307 0.586542-0.606199ZM0.337514 0C0.358813 0.0237565 0.374378 0.045875 0.383389 0.0655358 0.394039 0.0851966 0.399775 0.103219 0.399775 0.12124 0.399775 0.155646 0.387485 0.18186 0.363729 0.199883 0.341608 0.217086 0.306385 0.226097 0.258872 0.226097 0.240849 0.226097 0.222826 0.22364 0.203166 0.219544 0.185144 0.217086 0.167121 0.21381 0.147462 0.209713L0.147462 0.124517C0.164665 0.131071 0.18105 0.135166 0.196615 0.137624 0.213819 0.139262 0.227746 0.140901 0.239213 0.140901 0.260511 0.140901 0.276897 0.135986 0.288366 0.127794 0.301473 0.12124 0.308026 0.109771 0.308026 0.0950256 0.308026 0.0835572 0.303111 0.0704494 0.294919 0.0557045 0.288366 0.0401396 0.276077 0.0212986 0.258873 -1.16415e-17Z" fill="#FFFFFF" transform="matrix(1 0 0 1.00522 49.9002 372.071)"/><path d="M0.0950256-0.871614 0.298187-0.871614 0.298187-0.396486 0.527571-0.62587 0.76023-0.62587 0.455494-0.340786 0.783174 0 0.540703 0 0.298229-0.262143 0.298229 0 0.0950677 0Z" fill="#FFFFFF" transform="matrix(1 0 0 1.00522 50.5821 372.071)"/><path d="M0.0884745-0.245764 0.0884745-0.62587 0.291635-0.62587 0.291635-0.563613 0.291635-0.435816 0.291635-0.334234C0.291635-0.283444 0.292455-0.24658 0.294913-0.222824 0.296551-0.200705 0.301467-0.18514 0.30802-0.176949 0.316212-0.163842 0.327681-0.152372 0.340788-0.144181 0.353895-0.137627 0.36864-0.134351 0.386663-0.134351 0.427621-0.134351 0.460388-0.150734 0.484966-0.183503 0.508724-0.216272 0.521012-0.26051 0.521012-0.317852L0.521012-0.62588 0.720897-0.62588 0.720897-7.34e-06 0.521012-7.34e-06 0.521012-0.0917576C0.489881-0.0540741 0.457112-0.0270416 0.422709-0.00983873 0.389941 0.00736435 0.352257 0.0163756 0.311298 0.0163756 0.239209 0.0163756 0.183501-0.00492306 0.14418-0.04916 0.106496-0.0950351 0.0884755-0.160571 0.0884755-0.245768Z" fill="#FFFFFF" transform="matrix(1 0 0 1.00522 51.3445 372.071)"/><path d="M0.727456-0.383379 0.727456 0 0.524299 0 0.524299-0.291629C0.524299-0.345695 0.52266-0.383379 0.521022-0.40304 0.518564-0.424338 0.514468-0.439904 0.507914-0.448915 0.50136-0.462022 0.489891-0.471853 0.475145-0.478403 0.462039-0.486595 0.447291-0.49151 0.432549-0.49151 0.388309-0.49151 0.354726-0.475126 0.330965-0.442359 0.308848-0.409591 0.298197-0.364536 0.298197-0.308012L0.298197 1.67772e-05 0.0950374 1.67772e-05 0.0950374-0.625856 0.298197-0.625856 0.298197-0.534106C0.326049-0.570967 0.358001-0.598002 0.393223-0.616025 0.427629-0.633225 0.465315-0.642236 0.504637-0.642236 0.576725-0.642236 0.630791-0.619298 0.668476-0.573425 0.707799-0.529191 0.727456-0.466111 0.727456-0.383373Z" fill="#FFFFFF" transform="matrix(1 0 0 1.00522 52.1637 372.071)"/><path d="M0.507909-0.871614 0.507909-0.740545 0.399775-0.740545C0.371102-0.740545 0.350622-0.73481 0.337514-0.72416 0.326045-0.712691 0.321131-0.695487 0.321131-0.671729L0.321131-0.625856 0.494802-0.625856 0.494802-0.484952 0.321131-0.484952 0.321131 1.15343e-05 0.121247 1.15343e-05 0.121247-0.484952 0.0229438-0.484952 0.0229438-0.625856 0.121247-0.625856 0.121247-0.671729C0.121247-0.738906 0.13927-0.789695 0.176952-0.822464 0.216274-0.855229 0.276075-0.871619 0.357177-0.871619Z" fill="#FFFFFF" transform="matrix(1 0 0 1.00522 38.7244 373.226)"/><path d="M0.563608-0.455479C0.545585-0.46367 0.528381-0.470224 0.511177-0.47514 0.493158-0.479236 0.475954-0.481694 0.45875-0.481694 0.406322-0.481694 0.365362-0.46367 0.33751-0.429264 0.311296-0.396497 0.298189-0.348984 0.298189-0.288362L0.298189-4.19429e-06 0.095028-4.19429e-06 0.095028-0.625875 0.298189-0.625875 0.298189-0.524294C0.321945-0.565256 0.350617-0.594744 0.383386-0.612767 0.417791-0.632429 0.458753-0.64226 0.504628-0.64226L0.527562-0.64226C0.535754-0.64226 0.547223-0.640621 0.560331-0.638983Z" fill="#FFFFFF" transform="matrix(1 0 0 1.00522 39.2217 373.226)"/><path d="M0.393214-0.498074C0.348977-0.498074 0.315391-0.481689 0.291633-0.448919 0.269515-0.417789 0.258865-0.373552 0.258865-0.314572 0.258865-0.253132 0.269515-0.206439 0.291633-0.173669 0.31539-0.142539 0.348977-0.127794 0.393214-0.127794 0.436632-0.127794 0.47022-0.14254 0.494797-0.173669 0.518555-0.206436 0.530843-0.253132 0.530843-0.314572 0.530843-0.373554 0.518555-0.417791 0.494797-0.448919 0.47022-0.481689 0.436634-0.498074 0.393214-0.498074ZM0.393214-0.64225C0.502165-0.64225 0.586547-0.612763 0.645523-0.553777 0.706142-0.496431 0.737273-0.416971 0.737273-0.314576 0.737273-0.209719 0.706142-0.1278 0.645523-0.0688114 0.586542-0.0114672 0.502165 0.016385 0.393214 0.016385 0.285899 0.016385 0.201523-0.0114672 0.140907-0.0688114 0.0794672-0.127794 0.0491572-0.209714 0.0491572-0.314576 0.0491572-0.416975 0.0794672-0.49644 0.140907-0.553777 0.201527-0.612758 0.285906-0.64225 0.393214-0.64225Z" fill="#FFFFFF" transform="matrix(1 0 0 1.00522 39.7899 373.226)"/><path d="M0.678302-0.524285C0.702055-0.56115 0.731547-0.589824 0.766775-0.609481 0.801183-0.630781 0.840502-0.64225 0.884741-0.64225 0.954371-0.64225 1.00762-0.619312 1.0453-0.573439 1.08462-0.5292 1.10428-0.466124 1.10428-0.383386L1.10428-6.29143e-06 0.901121-6.29143e-06 0.901121-0.327685C0.902759-0.331781 0.904398-0.335877 0.904398-0.340792L0.904398-0.363731C0.904398-0.409606 0.897844-0.442374 0.884736-0.462034 0.871628-0.481694 0.850332-0.491525 0.822478-0.491525 0.78316-0.491525 0.752024-0.47514 0.730728-0.442372 0.711067-0.411242 0.70124-0.367005 0.70124-0.308024L0.70124 4.19429e-06 0.498079 4.19429e-06 0.498079-0.327675C0.498079-0.397306 0.491525-0.442363 0.478417-0.462022 0.466948-0.481684 0.44647-0.49151 0.416157-0.49151 0.378474-0.49151 0.348984-0.475126 0.327683-0.442359 0.308022-0.411229 0.298193-0.366992 0.298193-0.308012L0.298193 1.67772e-05 0.0950313 1.67772e-05 0.0950313-0.625856 0.298193-0.625856 0.298193-0.534106C0.321947-0.570967 0.348984-0.598002 0.380112-0.616025 0.41288-0.633225 0.448923-0.642236 0.488243-0.642236 0.531663-0.642236 0.570162-0.630767 0.602932-0.609471 0.635701-0.58981 0.660274-0.561136 0.678302-0.524275Z" fill="#FFFFFF" transform="matrix(1 0 0 1.00522 40.576 373.226)"/><path d="M0.314572-0.806098 0.314572-0.625875 0.521012-0.625875 0.521012-0.484975 0.314572-0.484975 0.314572-0.216287C0.314572-0.187615 0.319487-0.167954 0.330955-0.157305 0.344062-0.148294 0.36782-0.144197 0.403046-0.144197L0.504628-0.144197 0.504628-1.88743e-05 0.334234-1.88743e-05C0.253132-1.88743e-05 0.196608-0.0164028 0.16384-0.0491719 0.131073-0.0819405 0.114688-0.137646 0.114688-0.216289L0.114688-0.484975 0.0163839-0.484975 0.0163839-0.62588 0.114688-0.62588 0.114688-0.806103Z" fill="#FFFFFF" transform="matrix(1 0 0 1.00522 42.1719 373.226)"/><path d="M0.727456-0.383379 0.727456 0 0.524299 0 0.524299-0.291629C0.524299-0.345695 0.52266-0.383379 0.521022-0.40304 0.518564-0.424338 0.514468-0.439904 0.507914-0.448915 0.50136-0.462022 0.489891-0.471853 0.475145-0.478403 0.462039-0.486595 0.447291-0.49151 0.432549-0.49151 0.388309-0.49151 0.354726-0.475126 0.330965-0.442359 0.308848-0.409591 0.298197-0.364536 0.298197-0.308012L0.298197 1.67772e-05 0.0950374 1.67772e-05 0.0950374-0.8716 0.298197-0.8716 0.298197-0.534082C0.326049-0.570948 0.358001-0.597983 0.393223-0.616002 0.427629-0.633206 0.465315-0.642217 0.504637-0.642217 0.576725-0.642217 0.630791-0.619279 0.668476-0.573406 0.707799-0.529167 0.727456-0.46609 0.727456-0.383352Z" fill="#FFFFFF" transform="matrix(1 0 0 1.00522 42.7212 373.226)"/><path d="M0.720893-0.314572 0.720893-0.258867 0.252308-0.258867C0.258861-0.210535 0.276064-0.174491 0.304736-0.150734 0.332588-0.128616 0.373548-0.117967 0.425976-0.117967 0.469393-0.117967 0.512811-0.122882 0.55705-0.134351 0.600465-0.147457 0.645523-0.167118 0.691395-0.193332L0.691395-0.0393225C0.645518-0.0196618 0.598007-0.00491676 0.550491 0.00327469 0.502161 0.0114666 0.455466 0.0163818 0.409589 0.0163818 0.29572 0.0163818 0.207248-0.0114703 0.144174-0.0688147 0.0802765-0.127797 0.0491487-0.209719 0.0491487-0.31458 0.0491487-0.414522 0.0794586-0.494806 0.140899-0.553782 0.203977-0.612763 0.289173-0.642255 0.396499-0.642255 0.494802-0.642255 0.573444-0.612763 0.632429-0.553782 0.69141-0.494797 0.720902-0.414518 0.720902-0.31458ZM0.517731-0.383383C0.517731-0.420247 0.505447-0.449739 0.481689-0.471858 0.459568-0.495616 0.430896-0.507905 0.396491-0.507905 0.357169-0.507905 0.325221-0.496435 0.301464-0.475135 0.276888-0.453017 0.262143-0.422707 0.255589-0.383386Z" fill="#FFFFFF" transform="matrix(1 0 0 1.00522 43.5357 373.226)"/><path d="M0.104857-0.835586 0.347329-0.835586 0.648795-0.262143 0.648795-0.835586 0.855234-0.835586 0.855234 0 0.612763 0 0.311296-0.573444 0.311296 0 0.104857 0Z" fill="#FFFFFF" transform="matrix(1 0 0 1.00522 44.7148 373.226)"/><path d="M0.393214-0.498074C0.348977-0.498074 0.315391-0.481689 0.291633-0.448919 0.269515-0.417789 0.258865-0.373552 0.258865-0.314572 0.258865-0.253132 0.269515-0.206439 0.291633-0.173669 0.31539-0.142539 0.348977-0.127794 0.393214-0.127794 0.436632-0.127794 0.47022-0.14254 0.494797-0.173669 0.518555-0.206436 0.530843-0.253132 0.530843-0.314572 0.530843-0.373554 0.518555-0.417791 0.494797-0.448919 0.47022-0.481689 0.436634-0.498074 0.393214-0.498074ZM0.393214-0.64225C0.502165-0.64225 0.586547-0.612763 0.645523-0.553777 0.706142-0.496431 0.737273-0.416971 0.737273-0.314576 0.737273-0.209719 0.706142-0.1278 0.645523-0.0688114 0.586542-0.0114672 0.502165 0.016385 0.393214 0.016385 0.285899 0.016385 0.201523-0.0114672 0.140907-0.0688114 0.0794672-0.127794 0.0491572-0.209714 0.0491572-0.314576 0.0491572-0.416975 0.0794672-0.49644 0.140907-0.553777 0.201527-0.612758 0.285906-0.64225 0.393214-0.64225Z" fill="#FFFFFF" transform="matrix(1 0 0 1.00522 45.6714 373.226)"/><path d="M0.0884745-0.245764 0.0884745-0.62587 0.291635-0.62587 0.291635-0.563613 0.291635-0.435816 0.291635-0.334234C0.291635-0.283444 0.292455-0.24658 0.294913-0.222824 0.296551-0.200705 0.301467-0.18514 0.30802-0.176949 0.316212-0.163842 0.327681-0.152372 0.340788-0.144181 0.353895-0.137627 0.36864-0.134351 0.386663-0.134351 0.427621-0.134351 0.460388-0.150734 0.484966-0.183503 0.508724-0.216272 0.521012-0.26051 0.521012-0.317852L0.521012-0.62588 0.720897-0.62588 0.720897-7.34e-06 0.521012-7.34e-06 0.521012-0.0917576C0.489881-0.0540741 0.457112-0.0270416 0.422709-0.00983873 0.389941 0.00736435 0.352257 0.0163756 0.311298 0.0163756 0.239209 0.0163756 0.183501-0.00492306 0.14418-0.04916 0.106496-0.0950351 0.0884755-0.160571 0.0884755-0.245768Z" fill="#FFFFFF" transform="matrix(1 0 0 1.00522 46.4622 373.226)"/><path d="M0.727456-0.383379 0.727456 0 0.524299 0 0.524299-0.291629C0.524299-0.345695 0.52266-0.383379 0.521022-0.40304 0.518564-0.424338 0.514468-0.439904 0.507914-0.448915 0.50136-0.462022 0.489891-0.471853 0.475145-0.478403 0.462039-0.486595 0.447291-0.49151 0.432549-0.49151 0.388309-0.49151 0.354726-0.475126 0.330965-0.442359 0.308848-0.409591 0.298197-0.364536 0.298197-0.308012L0.298197 1.67772e-05 0.0950374 1.67772e-05 0.0950374-0.625856 0.298197-0.625856 0.298197-0.534106C0.326049-0.570967 0.358001-0.598002 0.393223-0.616025 0.427629-0.633225 0.465315-0.642236 0.504637-0.642236 0.576725-0.642236 0.630791-0.619298 0.668476-0.573425 0.707799-0.529191 0.727456-0.466111 0.727456-0.383373Z" fill="#FFFFFF" transform="matrix(1 0 0 1.00522 47.2767 373.226)"/><path d="M0.104857-0.835586 0.462022-0.835586C0.568519-0.835586 0.650438-0.811009 0.707785-0.763498 0.764312-0.71762 0.792981-0.650448 0.792981-0.563613 0.792981-0.475959 0.764312-0.407966 0.707785-0.360453 0.650443-0.314578 0.568524-0.291642 0.462022-0.291642L0.321119-0.291642 0.321119-1.25829e-05 0.104861-1.25829e-05ZM0.321115-0.678302 0.321115-0.445643 0.439079-0.445643C0.480036-0.445643 0.511987-0.455475 0.534106-0.475135 0.557859-0.496431 0.570153-0.525923 0.570153-0.563608 0.570153-0.600469 0.557864-0.629143 0.534106-0.648804 0.511987-0.668466 0.480036-0.678292 0.439079-0.678292Z" fill="#FFFFFF" transform="matrix(1 0 0 1.00522 48.4937 373.226)"/><path d="M0.563608-0.455479C0.545585-0.46367 0.528381-0.470224 0.511177-0.47514 0.493158-0.479236 0.475954-0.481694 0.45875-0.481694 0.406322-0.481694 0.365362-0.46367 0.33751-0.429264 0.311296-0.396497 0.298189-0.348984 0.298189-0.288362L0.298189-4.19429e-06 0.095028-4.19429e-06 0.095028-0.625875 0.298189-0.625875 0.298189-0.524294C0.321945-0.565256 0.350617-0.594744 0.383386-0.612767 0.417791-0.632429 0.458753-0.64226 0.504628-0.64226L0.527562-0.64226C0.535754-0.64226 0.547223-0.640621 0.560331-0.638983Z" fill="#FFFFFF" transform="matrix(1 0 0 1.00522 49.3319 373.226)"/><path d="M0.393214-0.498074C0.348977-0.498074 0.315391-0.481689 0.291633-0.448919 0.269515-0.417789 0.258865-0.373552 0.258865-0.314572 0.258865-0.253132 0.269515-0.206439 0.291633-0.173669 0.31539-0.142539 0.348977-0.127794 0.393214-0.127794 0.436632-0.127794 0.47022-0.14254 0.494797-0.173669 0.518555-0.206436 0.530843-0.253132 0.530843-0.314572 0.530843-0.373554 0.518555-0.417791 0.494797-0.448919 0.47022-0.481689 0.436634-0.498074 0.393214-0.498074ZM0.393214-0.64225C0.502165-0.64225 0.586547-0.612763 0.645523-0.553777 0.706142-0.496431 0.737273-0.416971 0.737273-0.314576 0.737273-0.209719 0.706142-0.1278 0.645523-0.0688114 0.586542-0.0114672 0.502165 0.016385 0.393214 0.016385 0.285899 0.016385 0.201523-0.0114672 0.140907-0.0688114 0.0794672-0.127794 0.0491572-0.209714 0.0491572-0.314576 0.0491572-0.416975 0.0794672-0.49644 0.140907-0.553777 0.201527-0.612758 0.285906-0.64225 0.393214-0.64225Z" fill="#FFFFFF" transform="matrix(1 0 0 1.00522 49.9002 373.226)"/><path d="M0.0950256-0.62587 0.298187-0.62587 0.298187-0.00983561C0.298187 0.0729028 0.276888 0.135981 0.235927 0.180218 0.196605 0.226093 0.138443 0.24903 0.0622579 0.24903L-0.0393236 0.24903-0.0393236 0.114682-0.00327784 0.114682C0.0335858 0.114682 0.0589824 0.105671 0.0720893 0.0884679 0.0868346 0.0729033 0.095028 0.0401351 0.095028-0.00983561ZM0.0950256-0.871637 0.298187-0.871637 0.298187-0.707799 0.0950256-0.707799Z" fill="#FFFFFF" transform="matrix(1 0 0 1.00522 50.6863 373.226)"/><path d="M0.720893-0.314572 0.720893-0.258867 0.252308-0.258867C0.258861-0.210535 0.276064-0.174491 0.304736-0.150734 0.332588-0.128616 0.373548-0.117967 0.425976-0.117967 0.469393-0.117967 0.512811-0.122882 0.55705-0.134351 0.600465-0.147457 0.645523-0.167118 0.691395-0.193332L0.691395-0.0393225C0.645518-0.0196618 0.598007-0.00491676 0.550491 0.00327469 0.502161 0.0114666 0.455466 0.0163818 0.409589 0.0163818 0.29572 0.0163818 0.207248-0.0114703 0.144174-0.0688147 0.0802765-0.127797 0.0491487-0.209719 0.0491487-0.31458 0.0491487-0.414522 0.0794586-0.494806 0.140899-0.553782 0.203977-0.612763 0.289173-0.642255 0.396499-0.642255 0.494802-0.642255 0.573444-0.612763 0.632429-0.553782 0.69141-0.494797 0.720902-0.414518 0.720902-0.31458ZM0.517731-0.383383C0.517731-0.420247 0.505447-0.449739 0.481689-0.471858 0.459568-0.495616 0.430896-0.507905 0.396491-0.507905 0.357169-0.507905 0.325221-0.496435 0.301464-0.475135 0.276888-0.453017 0.262143-0.422707 0.255589-0.383386Z" fill="#FFFFFF" transform="matrix(1 0 0 1.00522 51.0793 373.226)"/><path d="M0.602927-0.606199 0.602927-0.445639C0.576716-0.462842 0.548862-0.47595 0.521012-0.484961 0.492339-0.493154 0.463666-0.498069 0.435814-0.498069 0.37847-0.498069 0.335052-0.481684 0.304742-0.448915 0.273612-0.416147 0.258867-0.371092 0.258867-0.314568 0.258867-0.255585 0.273612-0.20971 0.304742-0.176942 0.335052-0.144174 0.37847-0.127789 0.435814-0.127789 0.466124-0.127789 0.495616-0.131885 0.524289-0.140897 0.552139-0.149089 0.578355-0.163835 0.602932-0.183494L0.602932-0.0196544C0.571801-0.00654728 0.54067 0.00164416 0.507905 0.00655988 0.47514 0.0131135 0.44237 0.0163902 0.409602 0.0163902 0.295733 0.0163902 0.207261-0.011462 0.144187-0.0688062 0.0802892-0.127789 0.0491615-0.209709 0.0491615-0.314569 0.0491615-0.416971 0.0802911-0.496435 0.144187-0.553768 0.207265-0.612753 0.295739-0.642246 0.409602-0.642246 0.44237-0.642246 0.47514-0.638969 0.507905-0.632415 0.540674-0.627499 0.571805-0.619307 0.602932-0.606199Z" fill="#FFFFFF" transform="matrix(1 0 0 1.00522 51.8559 373.226)"/><path d="M0.314572-0.806098 0.314572-0.625875 0.521012-0.625875 0.521012-0.484975 0.314572-0.484975 0.314572-0.216287C0.314572-0.187615 0.319487-0.167954 0.330955-0.157305 0.344062-0.148294 0.36782-0.144197 0.403046-0.144197L0.504628-0.144197 0.504628-1.88743e-05 0.334234-1.88743e-05C0.253132-1.88743e-05 0.196608-0.0164028 0.16384-0.0491719 0.131073-0.0819405 0.114688-0.137646 0.114688-0.216289L0.114688-0.484975 0.0163839-0.484975 0.0163839-0.62588 0.114688-0.62588 0.114688-0.806103Z" fill="#FFFFFF" transform="matrix(1 0 0 1.00522 52.5378 373.226)"/></g></g></g></g></svg>